M48
; DRILL file {KiCad 9.0.4} date 2025-10-20T09:18:45+0200
; FORMAT={-:-/ absolute / metric / decimal}
; #@! TF.CreationDate,2025-10-20T09:18:45+02:00
; #@! TF.GenerationSoftware,Kicad,Pcbnew,9.0.4
; #@! TF.FileFunction,Plated,1,2,PTH
FMAT,2
METRIC
; #@! TA.AperFunction,Plated,PTH,ViaDrill
T1C1.000
; #@! TA.AperFunction,Plated,PTH,ComponentDrill
T2C1.000
; #@! TA.AperFunction,Plated,PTH,ComponentDrill
T3C1.100
; #@! TA.AperFunction,Plated,PTH,ComponentDrill
T4C1.300
; #@! TA.AperFunction,Plated,PTH,ComponentDrill
T5C1.500
; #@! TA.AperFunction,Plated,PTH,ComponentDrill
T6C3.200
%
G90
G05
T1
X111.0Y-71.5
X111.0Y-113.0
X120.5Y-76.18
X120.5Y-113.0
X127.0Y-102.938
X128.0Y-127.0
X135.0Y-113.25
X139.5Y-101.5
X140.875Y-118.625
X145.0Y-72.5
X145.135Y-125.0
X147.75Y-106.75
X148.0Y-123.0
X156.25Y-93.5
X160.5Y-99.5
X166.867Y-124.387
X174.5Y-124.5
X176.25Y-90.0
X196.475Y-81.0
T2
X115.0Y-64.42
X115.0Y-66.96
X115.0Y-69.5
X130.995Y-60.743
X132.38Y-57.903
X133.765Y-60.743
X135.15Y-57.903
X136.535Y-60.743
X137.92Y-57.903
X139.305Y-60.743
X140.69Y-57.903
X142.075Y-60.743
X143.46Y-57.903
X144.845Y-60.743
X146.23Y-57.903
X147.615Y-60.743
X149.0Y-57.903
X150.385Y-60.743
X180.22Y-64.03
X180.22Y-86.89
X180.26Y-93.11
X180.26Y-115.97
X182.76Y-64.03
X182.76Y-86.89
X182.8Y-93.11
X182.8Y-115.97
X185.3Y-64.03
X185.3Y-86.89
X185.34Y-93.11
X185.34Y-115.97
X187.84Y-64.03
X187.84Y-86.89
X187.88Y-93.11
X187.88Y-115.97
X190.38Y-64.03
X190.38Y-86.89
X190.42Y-93.11
X190.42Y-115.97
X192.92Y-64.03
X192.92Y-86.89
X192.96Y-93.11
X192.96Y-115.97
X195.46Y-64.03
X195.46Y-86.89
X195.5Y-93.11
X195.5Y-115.97
X198.0Y-64.03
X198.0Y-86.89
X198.04Y-93.11
X198.04Y-115.97
T3
X124.5Y-114.5
X127.04Y-114.5
X167.92Y-93.0
X170.46Y-93.0
T4
X111.0Y-119.887
X111.25Y-60.112
X114.5Y-119.887
X114.75Y-60.112
X118.0Y-119.887
T5
X103.25Y-64.0
X122.5Y-67.0
X127.0Y-119.0
X128.0Y-67.0
X131.5Y-112.5
X138.5Y-65.0
X138.5Y-112.5
X139.0Y-90.0
X142.5Y-65.0
X144.5Y-104.5
X152.5Y-66.0
X154.5Y-117.5
X155.868Y-74.165
X158.0Y-66.0
X158.5Y-117.5
X167.0Y-87.0
X172.5Y-104.0
X173.0Y-111.5
X185.5Y-122.0
X187.5Y-82.5
T6
X124.028Y-59.323
X157.352Y-59.323
M30
