%TF.GenerationSoftware,KiCad,Pcbnew,9.0.4*%
%TF.CreationDate,2025-10-24T10:45:45+02:00*%
%TF.ProjectId,ELE340_GRNS,454c4533-3430-45f4-9752-4e532e6b6963,V3.1*%
%TF.SameCoordinates,Original*%
%TF.FileFunction,OtherDrawing,Comment*%
%FSLAX46Y46*%
G04 Gerber Fmt 4.6, Leading zero omitted, Abs format (unit mm)*
G04 Created by KiCad (PCBNEW 9.0.4) date 2025-10-24 10:45:45*
%MOMM*%
%LPD*%
G01*
G04 APERTURE LIST*
%ADD10C,0.350000*%
%ADD11C,0.360000*%
%ADD12C,0.240000*%
%ADD13C,0.300000*%
G04 APERTURE END LIST*
D10*
X137487972Y-76501779D02*
G75*
G02*
X137137972Y-76501779I-175000J0D01*
G01*
X137137972Y-76501779D02*
G75*
G02*
X137487972Y-76501779I175000J0D01*
G01*
X154301083Y-87364757D02*
G75*
G02*
X153951083Y-87364757I-175000J0D01*
G01*
X153951083Y-87364757D02*
G75*
G02*
X154301083Y-87364757I175000J0D01*
G01*
D11*
X163250000Y-52000000D02*
X196750000Y-52000000D01*
X197750000Y-53000000D02*
X197750000Y-55500000D01*
D10*
X139675000Y-106000000D02*
G75*
G02*
X139325000Y-106000000I-175000J0D01*
G01*
X139325000Y-106000000D02*
G75*
G02*
X139675000Y-106000000I175000J0D01*
G01*
D11*
X196750000Y-56500000D02*
X163250000Y-56500000D01*
X162250000Y-55500000D02*
X162250000Y-53000000D01*
X162250000Y-53000000D02*
G75*
G02*
X163250000Y-52000000I1000000J0D01*
G01*
D10*
X113881042Y-81436330D02*
G75*
G02*
X113531042Y-81436330I-175000J0D01*
G01*
X113531042Y-81436330D02*
G75*
G02*
X113881042Y-81436330I175000J0D01*
G01*
X141175000Y-123000000D02*
G75*
G02*
X140825000Y-123000000I-175000J0D01*
G01*
X140825000Y-123000000D02*
G75*
G02*
X141175000Y-123000000I175000J0D01*
G01*
D11*
X197750000Y-55500000D02*
G75*
G02*
X196750000Y-56500000I-1000000J0D01*
G01*
D10*
X168534630Y-114213998D02*
G75*
G02*
X168184630Y-114213998I-175000J0D01*
G01*
X168184630Y-114213998D02*
G75*
G02*
X168534630Y-114213998I175000J0D01*
G01*
D11*
X163250000Y-56500000D02*
G75*
G02*
X162250000Y-55500000I0J1000000D01*
G01*
X196750000Y-52000000D02*
G75*
G02*
X197750000Y-53000000I0J-1000000D01*
G01*
D12*
X148190746Y-118021037D02*
X148190746Y-118992466D01*
X148190746Y-118992466D02*
X148247889Y-119106752D01*
X148247889Y-119106752D02*
X148305032Y-119163895D01*
X148305032Y-119163895D02*
X148419317Y-119221037D01*
X148419317Y-119221037D02*
X148647889Y-119221037D01*
X148647889Y-119221037D02*
X148762174Y-119163895D01*
X148762174Y-119163895D02*
X148819317Y-119106752D01*
X148819317Y-119106752D02*
X148876460Y-118992466D01*
X148876460Y-118992466D02*
X148876460Y-118021037D01*
X150019317Y-118021037D02*
X149447889Y-118021037D01*
X149447889Y-118021037D02*
X149390746Y-118592466D01*
X149390746Y-118592466D02*
X149447889Y-118535323D01*
X149447889Y-118535323D02*
X149562175Y-118478180D01*
X149562175Y-118478180D02*
X149847889Y-118478180D01*
X149847889Y-118478180D02*
X149962175Y-118535323D01*
X149962175Y-118535323D02*
X150019317Y-118592466D01*
X150019317Y-118592466D02*
X150076460Y-118706752D01*
X150076460Y-118706752D02*
X150076460Y-118992466D01*
X150076460Y-118992466D02*
X150019317Y-119106752D01*
X150019317Y-119106752D02*
X149962175Y-119163895D01*
X149962175Y-119163895D02*
X149847889Y-119221037D01*
X149847889Y-119221037D02*
X149562175Y-119221037D01*
X149562175Y-119221037D02*
X149447889Y-119163895D01*
X149447889Y-119163895D02*
X149390746Y-119106752D01*
D13*
X135840225Y-110300828D02*
X134983082Y-110300828D01*
X135411653Y-110300828D02*
X135411653Y-108800828D01*
X135411653Y-108800828D02*
X135268796Y-109015114D01*
X135268796Y-109015114D02*
X135125939Y-109157971D01*
X135125939Y-109157971D02*
X134983082Y-109229400D01*
X136340224Y-108800828D02*
X137268796Y-108800828D01*
X137268796Y-108800828D02*
X136768796Y-109372257D01*
X136768796Y-109372257D02*
X136983081Y-109372257D01*
X136983081Y-109372257D02*
X137125939Y-109443685D01*
X137125939Y-109443685D02*
X137197367Y-109515114D01*
X137197367Y-109515114D02*
X137268796Y-109657971D01*
X137268796Y-109657971D02*
X137268796Y-110015114D01*
X137268796Y-110015114D02*
X137197367Y-110157971D01*
X137197367Y-110157971D02*
X137125939Y-110229400D01*
X137125939Y-110229400D02*
X136983081Y-110300828D01*
X136983081Y-110300828D02*
X136554510Y-110300828D01*
X136554510Y-110300828D02*
X136411653Y-110229400D01*
X136411653Y-110229400D02*
X136340224Y-110157971D01*
D12*
X110343721Y-75526221D02*
X110343721Y-76497650D01*
X110343721Y-76497650D02*
X110400864Y-76611936D01*
X110400864Y-76611936D02*
X110458007Y-76669079D01*
X110458007Y-76669079D02*
X110572292Y-76726221D01*
X110572292Y-76726221D02*
X110800864Y-76726221D01*
X110800864Y-76726221D02*
X110915149Y-76669079D01*
X110915149Y-76669079D02*
X110972292Y-76611936D01*
X110972292Y-76611936D02*
X111029435Y-76497650D01*
X111029435Y-76497650D02*
X111029435Y-75526221D01*
X112229435Y-76726221D02*
X111543721Y-76726221D01*
X111886578Y-76726221D02*
X111886578Y-75526221D01*
X111886578Y-75526221D02*
X111772292Y-75697650D01*
X111772292Y-75697650D02*
X111658007Y-75811936D01*
X111658007Y-75811936D02*
X111543721Y-75869079D01*
D13*
X175840225Y-112300828D02*
X174983082Y-112300828D01*
X175411653Y-112300828D02*
X175411653Y-110800828D01*
X175411653Y-110800828D02*
X175268796Y-111015114D01*
X175268796Y-111015114D02*
X175125939Y-111157971D01*
X175125939Y-111157971D02*
X174983082Y-111229400D01*
X177197367Y-110800828D02*
X176483081Y-110800828D01*
X176483081Y-110800828D02*
X176411653Y-111515114D01*
X176411653Y-111515114D02*
X176483081Y-111443685D01*
X176483081Y-111443685D02*
X176625939Y-111372257D01*
X176625939Y-111372257D02*
X176983081Y-111372257D01*
X176983081Y-111372257D02*
X177125939Y-111443685D01*
X177125939Y-111443685D02*
X177197367Y-111515114D01*
X177197367Y-111515114D02*
X177268796Y-111657971D01*
X177268796Y-111657971D02*
X177268796Y-112015114D01*
X177268796Y-112015114D02*
X177197367Y-112157971D01*
X177197367Y-112157971D02*
X177125939Y-112229400D01*
X177125939Y-112229400D02*
X176983081Y-112300828D01*
X176983081Y-112300828D02*
X176625939Y-112300828D01*
X176625939Y-112300828D02*
X176483081Y-112229400D01*
X176483081Y-112229400D02*
X176411653Y-112157971D01*
X189054510Y-59800828D02*
X188554510Y-59086542D01*
X188197367Y-59800828D02*
X188197367Y-58300828D01*
X188197367Y-58300828D02*
X188768796Y-58300828D01*
X188768796Y-58300828D02*
X188911653Y-58372257D01*
X188911653Y-58372257D02*
X188983082Y-58443685D01*
X188983082Y-58443685D02*
X189054510Y-58586542D01*
X189054510Y-58586542D02*
X189054510Y-58800828D01*
X189054510Y-58800828D02*
X188983082Y-58943685D01*
X188983082Y-58943685D02*
X188911653Y-59015114D01*
X188911653Y-59015114D02*
X188768796Y-59086542D01*
X188768796Y-59086542D02*
X188197367Y-59086542D01*
X189697367Y-59015114D02*
X190197367Y-59015114D01*
X190411653Y-59800828D02*
X189697367Y-59800828D01*
X189697367Y-59800828D02*
X189697367Y-58300828D01*
X189697367Y-58300828D02*
X190411653Y-58300828D01*
X190840225Y-58300828D02*
X191340225Y-59800828D01*
X191340225Y-59800828D02*
X191840225Y-58300828D01*
X194125939Y-58800828D02*
X194125939Y-59800828D01*
X193768796Y-58229400D02*
X193411653Y-59300828D01*
X193411653Y-59300828D02*
X194340224Y-59300828D01*
X194911652Y-59657971D02*
X194983081Y-59729400D01*
X194983081Y-59729400D02*
X194911652Y-59800828D01*
X194911652Y-59800828D02*
X194840224Y-59729400D01*
X194840224Y-59729400D02*
X194911652Y-59657971D01*
X194911652Y-59657971D02*
X194911652Y-59800828D01*
X196411653Y-59800828D02*
X195554510Y-59800828D01*
X195983081Y-59800828D02*
X195983081Y-58300828D01*
X195983081Y-58300828D02*
X195840224Y-58515114D01*
X195840224Y-58515114D02*
X195697367Y-58657971D01*
X195697367Y-58657971D02*
X195554510Y-58729400D01*
X157436870Y-122293523D02*
X156579727Y-122293523D01*
X157008298Y-122293523D02*
X157008298Y-120793523D01*
X157008298Y-120793523D02*
X156865441Y-121007809D01*
X156865441Y-121007809D02*
X156722584Y-121150666D01*
X156722584Y-121150666D02*
X156579727Y-121222095D01*
X158722584Y-120793523D02*
X158436869Y-120793523D01*
X158436869Y-120793523D02*
X158294012Y-120864952D01*
X158294012Y-120864952D02*
X158222584Y-120936380D01*
X158222584Y-120936380D02*
X158079726Y-121150666D01*
X158079726Y-121150666D02*
X158008298Y-121436380D01*
X158008298Y-121436380D02*
X158008298Y-122007809D01*
X158008298Y-122007809D02*
X158079726Y-122150666D01*
X158079726Y-122150666D02*
X158151155Y-122222095D01*
X158151155Y-122222095D02*
X158294012Y-122293523D01*
X158294012Y-122293523D02*
X158579726Y-122293523D01*
X158579726Y-122293523D02*
X158722584Y-122222095D01*
X158722584Y-122222095D02*
X158794012Y-122150666D01*
X158794012Y-122150666D02*
X158865441Y-122007809D01*
X158865441Y-122007809D02*
X158865441Y-121650666D01*
X158865441Y-121650666D02*
X158794012Y-121507809D01*
X158794012Y-121507809D02*
X158722584Y-121436380D01*
X158722584Y-121436380D02*
X158579726Y-121364952D01*
X158579726Y-121364952D02*
X158294012Y-121364952D01*
X158294012Y-121364952D02*
X158151155Y-121436380D01*
X158151155Y-121436380D02*
X158079726Y-121507809D01*
X158079726Y-121507809D02*
X158008298Y-121650666D01*
X190572861Y-83023156D02*
X190858575Y-83023156D01*
X190858575Y-83023156D02*
X191001432Y-82951728D01*
X191001432Y-82951728D02*
X191072861Y-82880299D01*
X191072861Y-82880299D02*
X191215718Y-82666013D01*
X191215718Y-82666013D02*
X191287147Y-82380299D01*
X191287147Y-82380299D02*
X191287147Y-81808870D01*
X191287147Y-81808870D02*
X191215718Y-81666013D01*
X191215718Y-81666013D02*
X191144290Y-81594585D01*
X191144290Y-81594585D02*
X191001432Y-81523156D01*
X191001432Y-81523156D02*
X190715718Y-81523156D01*
X190715718Y-81523156D02*
X190572861Y-81594585D01*
X190572861Y-81594585D02*
X190501432Y-81666013D01*
X190501432Y-81666013D02*
X190430004Y-81808870D01*
X190430004Y-81808870D02*
X190430004Y-82166013D01*
X190430004Y-82166013D02*
X190501432Y-82308870D01*
X190501432Y-82308870D02*
X190572861Y-82380299D01*
X190572861Y-82380299D02*
X190715718Y-82451728D01*
X190715718Y-82451728D02*
X191001432Y-82451728D01*
X191001432Y-82451728D02*
X191144290Y-82380299D01*
X191144290Y-82380299D02*
X191215718Y-82308870D01*
X191215718Y-82308870D02*
X191287147Y-82166013D01*
X120684429Y-69300828D02*
X121541572Y-69300828D01*
X121113000Y-70800828D02*
X121113000Y-69300828D01*
X122827286Y-69372257D02*
X122684429Y-69300828D01*
X122684429Y-69300828D02*
X122470143Y-69300828D01*
X122470143Y-69300828D02*
X122255857Y-69372257D01*
X122255857Y-69372257D02*
X122113000Y-69515114D01*
X122113000Y-69515114D02*
X122041571Y-69657971D01*
X122041571Y-69657971D02*
X121970143Y-69943685D01*
X121970143Y-69943685D02*
X121970143Y-70157971D01*
X121970143Y-70157971D02*
X122041571Y-70443685D01*
X122041571Y-70443685D02*
X122113000Y-70586542D01*
X122113000Y-70586542D02*
X122255857Y-70729400D01*
X122255857Y-70729400D02*
X122470143Y-70800828D01*
X122470143Y-70800828D02*
X122613000Y-70800828D01*
X122613000Y-70800828D02*
X122827286Y-70729400D01*
X122827286Y-70729400D02*
X122898714Y-70657971D01*
X122898714Y-70657971D02*
X122898714Y-70157971D01*
X122898714Y-70157971D02*
X122613000Y-70157971D01*
X123470143Y-69443685D02*
X123541571Y-69372257D01*
X123541571Y-69372257D02*
X123684429Y-69300828D01*
X123684429Y-69300828D02*
X124041571Y-69300828D01*
X124041571Y-69300828D02*
X124184429Y-69372257D01*
X124184429Y-69372257D02*
X124255857Y-69443685D01*
X124255857Y-69443685D02*
X124327286Y-69586542D01*
X124327286Y-69586542D02*
X124327286Y-69729400D01*
X124327286Y-69729400D02*
X124255857Y-69943685D01*
X124255857Y-69943685D02*
X123398714Y-70800828D01*
X123398714Y-70800828D02*
X124327286Y-70800828D01*
X147840225Y-103800828D02*
X146983082Y-103800828D01*
X147411653Y-103800828D02*
X147411653Y-102300828D01*
X147411653Y-102300828D02*
X147268796Y-102515114D01*
X147268796Y-102515114D02*
X147125939Y-102657971D01*
X147125939Y-102657971D02*
X146983082Y-102729400D01*
X149268796Y-103800828D02*
X148411653Y-103800828D01*
X148840224Y-103800828D02*
X148840224Y-102300828D01*
X148840224Y-102300828D02*
X148697367Y-102515114D01*
X148697367Y-102515114D02*
X148554510Y-102657971D01*
X148554510Y-102657971D02*
X148411653Y-102729400D01*
X154498722Y-64770741D02*
X154784436Y-64770741D01*
X154784436Y-64770741D02*
X154927293Y-64699313D01*
X154927293Y-64699313D02*
X154998722Y-64627884D01*
X154998722Y-64627884D02*
X155141579Y-64413598D01*
X155141579Y-64413598D02*
X155213008Y-64127884D01*
X155213008Y-64127884D02*
X155213008Y-63556455D01*
X155213008Y-63556455D02*
X155141579Y-63413598D01*
X155141579Y-63413598D02*
X155070151Y-63342170D01*
X155070151Y-63342170D02*
X154927293Y-63270741D01*
X154927293Y-63270741D02*
X154641579Y-63270741D01*
X154641579Y-63270741D02*
X154498722Y-63342170D01*
X154498722Y-63342170D02*
X154427293Y-63413598D01*
X154427293Y-63413598D02*
X154355865Y-63556455D01*
X154355865Y-63556455D02*
X154355865Y-63913598D01*
X154355865Y-63913598D02*
X154427293Y-64056455D01*
X154427293Y-64056455D02*
X154498722Y-64127884D01*
X154498722Y-64127884D02*
X154641579Y-64199313D01*
X154641579Y-64199313D02*
X154927293Y-64199313D01*
X154927293Y-64199313D02*
X155070151Y-64127884D01*
X155070151Y-64127884D02*
X155141579Y-64056455D01*
X155141579Y-64056455D02*
X155213008Y-63913598D01*
X137014660Y-66883806D02*
X137014660Y-67883806D01*
X136657517Y-66312378D02*
X136300374Y-67383806D01*
X136300374Y-67383806D02*
X137228945Y-67383806D01*
X134840225Y-90624922D02*
X133983082Y-90624922D01*
X134411653Y-90624922D02*
X134411653Y-89124922D01*
X134411653Y-89124922D02*
X134268796Y-89339208D01*
X134268796Y-89339208D02*
X134125939Y-89482065D01*
X134125939Y-89482065D02*
X133983082Y-89553494D01*
X130156444Y-119719104D02*
X129299301Y-119719104D01*
X129727872Y-119719104D02*
X129727872Y-118219104D01*
X129727872Y-118219104D02*
X129585015Y-118433390D01*
X129585015Y-118433390D02*
X129442158Y-118576247D01*
X129442158Y-118576247D02*
X129299301Y-118647676D01*
X130727872Y-118361961D02*
X130799300Y-118290533D01*
X130799300Y-118290533D02*
X130942158Y-118219104D01*
X130942158Y-118219104D02*
X131299300Y-118219104D01*
X131299300Y-118219104D02*
X131442158Y-118290533D01*
X131442158Y-118290533D02*
X131513586Y-118361961D01*
X131513586Y-118361961D02*
X131585015Y-118504818D01*
X131585015Y-118504818D02*
X131585015Y-118647676D01*
X131585015Y-118647676D02*
X131513586Y-118861961D01*
X131513586Y-118861961D02*
X130656443Y-119719104D01*
X130656443Y-119719104D02*
X131585015Y-119719104D01*
X153268796Y-73300828D02*
X152554510Y-73300828D01*
X152554510Y-73300828D02*
X152483082Y-74015114D01*
X152483082Y-74015114D02*
X152554510Y-73943685D01*
X152554510Y-73943685D02*
X152697368Y-73872257D01*
X152697368Y-73872257D02*
X153054510Y-73872257D01*
X153054510Y-73872257D02*
X153197368Y-73943685D01*
X153197368Y-73943685D02*
X153268796Y-74015114D01*
X153268796Y-74015114D02*
X153340225Y-74157971D01*
X153340225Y-74157971D02*
X153340225Y-74515114D01*
X153340225Y-74515114D02*
X153268796Y-74657971D01*
X153268796Y-74657971D02*
X153197368Y-74729400D01*
X153197368Y-74729400D02*
X153054510Y-74800828D01*
X153054510Y-74800828D02*
X152697368Y-74800828D01*
X152697368Y-74800828D02*
X152554510Y-74729400D01*
X152554510Y-74729400D02*
X152483082Y-74657971D01*
D12*
X160443608Y-123640662D02*
X160443608Y-124612091D01*
X160443608Y-124612091D02*
X160500751Y-124726377D01*
X160500751Y-124726377D02*
X160557894Y-124783520D01*
X160557894Y-124783520D02*
X160672179Y-124840662D01*
X160672179Y-124840662D02*
X160900751Y-124840662D01*
X160900751Y-124840662D02*
X161015036Y-124783520D01*
X161015036Y-124783520D02*
X161072179Y-124726377D01*
X161072179Y-124726377D02*
X161129322Y-124612091D01*
X161129322Y-124612091D02*
X161129322Y-123640662D01*
X162215037Y-123640662D02*
X161986465Y-123640662D01*
X161986465Y-123640662D02*
X161872179Y-123697805D01*
X161872179Y-123697805D02*
X161815037Y-123754948D01*
X161815037Y-123754948D02*
X161700751Y-123926377D01*
X161700751Y-123926377D02*
X161643608Y-124154948D01*
X161643608Y-124154948D02*
X161643608Y-124612091D01*
X161643608Y-124612091D02*
X161700751Y-124726377D01*
X161700751Y-124726377D02*
X161757894Y-124783520D01*
X161757894Y-124783520D02*
X161872179Y-124840662D01*
X161872179Y-124840662D02*
X162100751Y-124840662D01*
X162100751Y-124840662D02*
X162215037Y-124783520D01*
X162215037Y-124783520D02*
X162272179Y-124726377D01*
X162272179Y-124726377D02*
X162329322Y-124612091D01*
X162329322Y-124612091D02*
X162329322Y-124326377D01*
X162329322Y-124326377D02*
X162272179Y-124212091D01*
X162272179Y-124212091D02*
X162215037Y-124154948D01*
X162215037Y-124154948D02*
X162100751Y-124097805D01*
X162100751Y-124097805D02*
X161872179Y-124097805D01*
X161872179Y-124097805D02*
X161757894Y-124154948D01*
X161757894Y-124154948D02*
X161700751Y-124212091D01*
X161700751Y-124212091D02*
X161643608Y-124326377D01*
D13*
X127617231Y-69300828D02*
X128545803Y-69300828D01*
X128545803Y-69300828D02*
X128045803Y-69872257D01*
X128045803Y-69872257D02*
X128260088Y-69872257D01*
X128260088Y-69872257D02*
X128402946Y-69943685D01*
X128402946Y-69943685D02*
X128474374Y-70015114D01*
X128474374Y-70015114D02*
X128545803Y-70157971D01*
X128545803Y-70157971D02*
X128545803Y-70515114D01*
X128545803Y-70515114D02*
X128474374Y-70657971D01*
X128474374Y-70657971D02*
X128402946Y-70729400D01*
X128402946Y-70729400D02*
X128260088Y-70800828D01*
X128260088Y-70800828D02*
X127831517Y-70800828D01*
X127831517Y-70800828D02*
X127688660Y-70729400D01*
X127688660Y-70729400D02*
X127617231Y-70657971D01*
X102840225Y-62300828D02*
X103697368Y-62300828D01*
X103268796Y-63800828D02*
X103268796Y-62300828D01*
X104983082Y-62372257D02*
X104840225Y-62300828D01*
X104840225Y-62300828D02*
X104625939Y-62300828D01*
X104625939Y-62300828D02*
X104411653Y-62372257D01*
X104411653Y-62372257D02*
X104268796Y-62515114D01*
X104268796Y-62515114D02*
X104197367Y-62657971D01*
X104197367Y-62657971D02*
X104125939Y-62943685D01*
X104125939Y-62943685D02*
X104125939Y-63157971D01*
X104125939Y-63157971D02*
X104197367Y-63443685D01*
X104197367Y-63443685D02*
X104268796Y-63586542D01*
X104268796Y-63586542D02*
X104411653Y-63729400D01*
X104411653Y-63729400D02*
X104625939Y-63800828D01*
X104625939Y-63800828D02*
X104768796Y-63800828D01*
X104768796Y-63800828D02*
X104983082Y-63729400D01*
X104983082Y-63729400D02*
X105054510Y-63657971D01*
X105054510Y-63657971D02*
X105054510Y-63157971D01*
X105054510Y-63157971D02*
X104768796Y-63157971D01*
X106483082Y-63800828D02*
X105625939Y-63800828D01*
X106054510Y-63800828D02*
X106054510Y-62300828D01*
X106054510Y-62300828D02*
X105911653Y-62515114D01*
X105911653Y-62515114D02*
X105768796Y-62657971D01*
X105768796Y-62657971D02*
X105625939Y-62729400D01*
X144180433Y-66432429D02*
X145180433Y-66432429D01*
X145180433Y-66432429D02*
X144537576Y-67932429D01*
X169935545Y-86270524D02*
X170006973Y-86199096D01*
X170006973Y-86199096D02*
X170149831Y-86127667D01*
X170149831Y-86127667D02*
X170506973Y-86127667D01*
X170506973Y-86127667D02*
X170649831Y-86199096D01*
X170649831Y-86199096D02*
X170721259Y-86270524D01*
X170721259Y-86270524D02*
X170792688Y-86413381D01*
X170792688Y-86413381D02*
X170792688Y-86556239D01*
X170792688Y-86556239D02*
X170721259Y-86770524D01*
X170721259Y-86770524D02*
X169864116Y-87627667D01*
X169864116Y-87627667D02*
X170792688Y-87627667D01*
X160221932Y-63965914D02*
X160079075Y-63894486D01*
X160079075Y-63894486D02*
X160007646Y-63823057D01*
X160007646Y-63823057D02*
X159936218Y-63680200D01*
X159936218Y-63680200D02*
X159936218Y-63608771D01*
X159936218Y-63608771D02*
X160007646Y-63465914D01*
X160007646Y-63465914D02*
X160079075Y-63394486D01*
X160079075Y-63394486D02*
X160221932Y-63323057D01*
X160221932Y-63323057D02*
X160507646Y-63323057D01*
X160507646Y-63323057D02*
X160650504Y-63394486D01*
X160650504Y-63394486D02*
X160721932Y-63465914D01*
X160721932Y-63465914D02*
X160793361Y-63608771D01*
X160793361Y-63608771D02*
X160793361Y-63680200D01*
X160793361Y-63680200D02*
X160721932Y-63823057D01*
X160721932Y-63823057D02*
X160650504Y-63894486D01*
X160650504Y-63894486D02*
X160507646Y-63965914D01*
X160507646Y-63965914D02*
X160221932Y-63965914D01*
X160221932Y-63965914D02*
X160079075Y-64037343D01*
X160079075Y-64037343D02*
X160007646Y-64108771D01*
X160007646Y-64108771D02*
X159936218Y-64251629D01*
X159936218Y-64251629D02*
X159936218Y-64537343D01*
X159936218Y-64537343D02*
X160007646Y-64680200D01*
X160007646Y-64680200D02*
X160079075Y-64751629D01*
X160079075Y-64751629D02*
X160221932Y-64823057D01*
X160221932Y-64823057D02*
X160507646Y-64823057D01*
X160507646Y-64823057D02*
X160650504Y-64751629D01*
X160650504Y-64751629D02*
X160721932Y-64680200D01*
X160721932Y-64680200D02*
X160793361Y-64537343D01*
X160793361Y-64537343D02*
X160793361Y-64251629D01*
X160793361Y-64251629D02*
X160721932Y-64108771D01*
X160721932Y-64108771D02*
X160650504Y-64037343D01*
X160650504Y-64037343D02*
X160507646Y-63965914D01*
X153340225Y-119800828D02*
X152483082Y-119800828D01*
X152911653Y-119800828D02*
X152911653Y-118300828D01*
X152911653Y-118300828D02*
X152768796Y-118515114D01*
X152768796Y-118515114D02*
X152625939Y-118657971D01*
X152625939Y-118657971D02*
X152483082Y-118729400D01*
X154625939Y-118800828D02*
X154625939Y-119800828D01*
X154268796Y-118229400D02*
X153911653Y-119300828D01*
X153911653Y-119300828D02*
X154840224Y-119300828D01*
X128840225Y-110300828D02*
X127983082Y-110300828D01*
X128411653Y-110300828D02*
X128411653Y-108800828D01*
X128411653Y-108800828D02*
X128268796Y-109015114D01*
X128268796Y-109015114D02*
X128125939Y-109157971D01*
X128125939Y-109157971D02*
X127983082Y-109229400D01*
X129768796Y-108800828D02*
X129911653Y-108800828D01*
X129911653Y-108800828D02*
X130054510Y-108872257D01*
X130054510Y-108872257D02*
X130125939Y-108943685D01*
X130125939Y-108943685D02*
X130197367Y-109086542D01*
X130197367Y-109086542D02*
X130268796Y-109372257D01*
X130268796Y-109372257D02*
X130268796Y-109729400D01*
X130268796Y-109729400D02*
X130197367Y-110015114D01*
X130197367Y-110015114D02*
X130125939Y-110157971D01*
X130125939Y-110157971D02*
X130054510Y-110229400D01*
X130054510Y-110229400D02*
X129911653Y-110300828D01*
X129911653Y-110300828D02*
X129768796Y-110300828D01*
X129768796Y-110300828D02*
X129625939Y-110229400D01*
X129625939Y-110229400D02*
X129554510Y-110157971D01*
X129554510Y-110157971D02*
X129483081Y-110015114D01*
X129483081Y-110015114D02*
X129411653Y-109729400D01*
X129411653Y-109729400D02*
X129411653Y-109372257D01*
X129411653Y-109372257D02*
X129483081Y-109086542D01*
X129483081Y-109086542D02*
X129554510Y-108943685D01*
X129554510Y-108943685D02*
X129625939Y-108872257D01*
X129625939Y-108872257D02*
X129768796Y-108800828D01*
D12*
X160966331Y-81232415D02*
X160966331Y-82203844D01*
X160966331Y-82203844D02*
X161023474Y-82318130D01*
X161023474Y-82318130D02*
X161080617Y-82375273D01*
X161080617Y-82375273D02*
X161194902Y-82432415D01*
X161194902Y-82432415D02*
X161423474Y-82432415D01*
X161423474Y-82432415D02*
X161537759Y-82375273D01*
X161537759Y-82375273D02*
X161594902Y-82318130D01*
X161594902Y-82318130D02*
X161652045Y-82203844D01*
X161652045Y-82203844D02*
X161652045Y-81232415D01*
X162166331Y-81346701D02*
X162223474Y-81289558D01*
X162223474Y-81289558D02*
X162337760Y-81232415D01*
X162337760Y-81232415D02*
X162623474Y-81232415D01*
X162623474Y-81232415D02*
X162737760Y-81289558D01*
X162737760Y-81289558D02*
X162794902Y-81346701D01*
X162794902Y-81346701D02*
X162852045Y-81460987D01*
X162852045Y-81460987D02*
X162852045Y-81575273D01*
X162852045Y-81575273D02*
X162794902Y-81746701D01*
X162794902Y-81746701D02*
X162109188Y-82432415D01*
X162109188Y-82432415D02*
X162852045Y-82432415D01*
X135022378Y-70913479D02*
X135022378Y-71884908D01*
X135022378Y-71884908D02*
X135079521Y-71999194D01*
X135079521Y-71999194D02*
X135136664Y-72056337D01*
X135136664Y-72056337D02*
X135250949Y-72113479D01*
X135250949Y-72113479D02*
X135479521Y-72113479D01*
X135479521Y-72113479D02*
X135593806Y-72056337D01*
X135593806Y-72056337D02*
X135650949Y-71999194D01*
X135650949Y-71999194D02*
X135708092Y-71884908D01*
X135708092Y-71884908D02*
X135708092Y-70913479D01*
X136165235Y-70913479D02*
X136908092Y-70913479D01*
X136908092Y-70913479D02*
X136508092Y-71370622D01*
X136508092Y-71370622D02*
X136679521Y-71370622D01*
X136679521Y-71370622D02*
X136793807Y-71427765D01*
X136793807Y-71427765D02*
X136850949Y-71484908D01*
X136850949Y-71484908D02*
X136908092Y-71599194D01*
X136908092Y-71599194D02*
X136908092Y-71884908D01*
X136908092Y-71884908D02*
X136850949Y-71999194D01*
X136850949Y-71999194D02*
X136793807Y-72056337D01*
X136793807Y-72056337D02*
X136679521Y-72113479D01*
X136679521Y-72113479D02*
X136336664Y-72113479D01*
X136336664Y-72113479D02*
X136222378Y-72056337D01*
X136222378Y-72056337D02*
X136165235Y-71999194D01*
D13*
X170193454Y-100300828D02*
X171050597Y-100300828D01*
X170622025Y-101800828D02*
X170622025Y-100300828D01*
X172336311Y-100372257D02*
X172193454Y-100300828D01*
X172193454Y-100300828D02*
X171979168Y-100300828D01*
X171979168Y-100300828D02*
X171764882Y-100372257D01*
X171764882Y-100372257D02*
X171622025Y-100515114D01*
X171622025Y-100515114D02*
X171550596Y-100657971D01*
X171550596Y-100657971D02*
X171479168Y-100943685D01*
X171479168Y-100943685D02*
X171479168Y-101157971D01*
X171479168Y-101157971D02*
X171550596Y-101443685D01*
X171550596Y-101443685D02*
X171622025Y-101586542D01*
X171622025Y-101586542D02*
X171764882Y-101729400D01*
X171764882Y-101729400D02*
X171979168Y-101800828D01*
X171979168Y-101800828D02*
X172122025Y-101800828D01*
X172122025Y-101800828D02*
X172336311Y-101729400D01*
X172336311Y-101729400D02*
X172407739Y-101657971D01*
X172407739Y-101657971D02*
X172407739Y-101157971D01*
X172407739Y-101157971D02*
X172122025Y-101157971D01*
X172979168Y-101372257D02*
X173693454Y-101372257D01*
X172836311Y-101800828D02*
X173336311Y-100300828D01*
X173336311Y-100300828D02*
X173836311Y-101800828D01*
X175122025Y-101800828D02*
X174264882Y-101800828D01*
X174693453Y-101800828D02*
X174693453Y-100300828D01*
X174693453Y-100300828D02*
X174550596Y-100515114D01*
X174550596Y-100515114D02*
X174407739Y-100657971D01*
X174407739Y-100657971D02*
X174264882Y-100729400D01*
D11*
X163740069Y-54288152D02*
X164340069Y-54288152D01*
X164597212Y-55231009D02*
X163740069Y-55231009D01*
X163740069Y-55231009D02*
X163740069Y-53431009D01*
X163740069Y-53431009D02*
X164597212Y-53431009D01*
X166225783Y-55231009D02*
X165368640Y-55231009D01*
X165368640Y-55231009D02*
X165368640Y-53431009D01*
X166825783Y-54288152D02*
X167425783Y-54288152D01*
X167682926Y-55231009D02*
X166825783Y-55231009D01*
X166825783Y-55231009D02*
X166825783Y-53431009D01*
X166825783Y-53431009D02*
X167682926Y-53431009D01*
X168282925Y-53431009D02*
X169397211Y-53431009D01*
X169397211Y-53431009D02*
X168797211Y-54116723D01*
X168797211Y-54116723D02*
X169054354Y-54116723D01*
X169054354Y-54116723D02*
X169225783Y-54202437D01*
X169225783Y-54202437D02*
X169311497Y-54288152D01*
X169311497Y-54288152D02*
X169397211Y-54459580D01*
X169397211Y-54459580D02*
X169397211Y-54888152D01*
X169397211Y-54888152D02*
X169311497Y-55059580D01*
X169311497Y-55059580D02*
X169225783Y-55145295D01*
X169225783Y-55145295D02*
X169054354Y-55231009D01*
X169054354Y-55231009D02*
X168540068Y-55231009D01*
X168540068Y-55231009D02*
X168368640Y-55145295D01*
X168368640Y-55145295D02*
X168282925Y-55059580D01*
X170940069Y-54031009D02*
X170940069Y-55231009D01*
X170511497Y-53345295D02*
X170082926Y-54631009D01*
X170082926Y-54631009D02*
X171197211Y-54631009D01*
X172225783Y-53431009D02*
X172397212Y-53431009D01*
X172397212Y-53431009D02*
X172568640Y-53516723D01*
X172568640Y-53516723D02*
X172654355Y-53602437D01*
X172654355Y-53602437D02*
X172740069Y-53773866D01*
X172740069Y-53773866D02*
X172825783Y-54116723D01*
X172825783Y-54116723D02*
X172825783Y-54545295D01*
X172825783Y-54545295D02*
X172740069Y-54888152D01*
X172740069Y-54888152D02*
X172654355Y-55059580D01*
X172654355Y-55059580D02*
X172568640Y-55145295D01*
X172568640Y-55145295D02*
X172397212Y-55231009D01*
X172397212Y-55231009D02*
X172225783Y-55231009D01*
X172225783Y-55231009D02*
X172054355Y-55145295D01*
X172054355Y-55145295D02*
X171968640Y-55059580D01*
X171968640Y-55059580D02*
X171882926Y-54888152D01*
X171882926Y-54888152D02*
X171797212Y-54545295D01*
X171797212Y-54545295D02*
X171797212Y-54116723D01*
X171797212Y-54116723D02*
X171882926Y-53773866D01*
X171882926Y-53773866D02*
X171968640Y-53602437D01*
X171968640Y-53602437D02*
X172054355Y-53516723D01*
X172054355Y-53516723D02*
X172225783Y-53431009D01*
X175911498Y-53516723D02*
X175740070Y-53431009D01*
X175740070Y-53431009D02*
X175482927Y-53431009D01*
X175482927Y-53431009D02*
X175225784Y-53516723D01*
X175225784Y-53516723D02*
X175054355Y-53688152D01*
X175054355Y-53688152D02*
X174968641Y-53859580D01*
X174968641Y-53859580D02*
X174882927Y-54202437D01*
X174882927Y-54202437D02*
X174882927Y-54459580D01*
X174882927Y-54459580D02*
X174968641Y-54802437D01*
X174968641Y-54802437D02*
X175054355Y-54973866D01*
X175054355Y-54973866D02*
X175225784Y-55145295D01*
X175225784Y-55145295D02*
X175482927Y-55231009D01*
X175482927Y-55231009D02*
X175654355Y-55231009D01*
X175654355Y-55231009D02*
X175911498Y-55145295D01*
X175911498Y-55145295D02*
X175997212Y-55059580D01*
X175997212Y-55059580D02*
X175997212Y-54459580D01*
X175997212Y-54459580D02*
X175654355Y-54459580D01*
X177797212Y-55231009D02*
X177197212Y-54373866D01*
X176768641Y-55231009D02*
X176768641Y-53431009D01*
X176768641Y-53431009D02*
X177454355Y-53431009D01*
X177454355Y-53431009D02*
X177625784Y-53516723D01*
X177625784Y-53516723D02*
X177711498Y-53602437D01*
X177711498Y-53602437D02*
X177797212Y-53773866D01*
X177797212Y-53773866D02*
X177797212Y-54031009D01*
X177797212Y-54031009D02*
X177711498Y-54202437D01*
X177711498Y-54202437D02*
X177625784Y-54288152D01*
X177625784Y-54288152D02*
X177454355Y-54373866D01*
X177454355Y-54373866D02*
X176768641Y-54373866D01*
X178568641Y-53431009D02*
X178568641Y-54888152D01*
X178568641Y-54888152D02*
X178654355Y-55059580D01*
X178654355Y-55059580D02*
X178740070Y-55145295D01*
X178740070Y-55145295D02*
X178911498Y-55231009D01*
X178911498Y-55231009D02*
X179254355Y-55231009D01*
X179254355Y-55231009D02*
X179425784Y-55145295D01*
X179425784Y-55145295D02*
X179511498Y-55059580D01*
X179511498Y-55059580D02*
X179597212Y-54888152D01*
X179597212Y-54888152D02*
X179597212Y-53431009D01*
X180454355Y-55231009D02*
X180454355Y-53431009D01*
X180454355Y-53431009D02*
X181140069Y-53431009D01*
X181140069Y-53431009D02*
X181311498Y-53516723D01*
X181311498Y-53516723D02*
X181397212Y-53602437D01*
X181397212Y-53602437D02*
X181482926Y-53773866D01*
X181482926Y-53773866D02*
X181482926Y-54031009D01*
X181482926Y-54031009D02*
X181397212Y-54202437D01*
X181397212Y-54202437D02*
X181311498Y-54288152D01*
X181311498Y-54288152D02*
X181140069Y-54373866D01*
X181140069Y-54373866D02*
X180454355Y-54373866D01*
X182254355Y-55231009D02*
X182254355Y-53431009D01*
X182254355Y-53431009D02*
X182940069Y-53431009D01*
X182940069Y-53431009D02*
X183111498Y-53516723D01*
X183111498Y-53516723D02*
X183197212Y-53602437D01*
X183197212Y-53602437D02*
X183282926Y-53773866D01*
X183282926Y-53773866D02*
X183282926Y-54031009D01*
X183282926Y-54031009D02*
X183197212Y-54202437D01*
X183197212Y-54202437D02*
X183111498Y-54288152D01*
X183111498Y-54288152D02*
X182940069Y-54373866D01*
X182940069Y-54373866D02*
X182254355Y-54373866D01*
X184054355Y-54288152D02*
X184654355Y-54288152D01*
X184911498Y-55231009D02*
X184054355Y-55231009D01*
X184054355Y-55231009D02*
X184054355Y-53431009D01*
X184054355Y-53431009D02*
X184911498Y-53431009D01*
X187054355Y-55231009D02*
X187054355Y-53431009D01*
X187054355Y-53431009D02*
X187482926Y-53431009D01*
X187482926Y-53431009D02*
X187740069Y-53516723D01*
X187740069Y-53516723D02*
X187911498Y-53688152D01*
X187911498Y-53688152D02*
X187997212Y-53859580D01*
X187997212Y-53859580D02*
X188082926Y-54202437D01*
X188082926Y-54202437D02*
X188082926Y-54459580D01*
X188082926Y-54459580D02*
X187997212Y-54802437D01*
X187997212Y-54802437D02*
X187911498Y-54973866D01*
X187911498Y-54973866D02*
X187740069Y-55145295D01*
X187740069Y-55145295D02*
X187482926Y-55231009D01*
X187482926Y-55231009D02*
X187054355Y-55231009D01*
X190140070Y-53602437D02*
X190225784Y-53516723D01*
X190225784Y-53516723D02*
X190397213Y-53431009D01*
X190397213Y-53431009D02*
X190825784Y-53431009D01*
X190825784Y-53431009D02*
X190997213Y-53516723D01*
X190997213Y-53516723D02*
X191082927Y-53602437D01*
X191082927Y-53602437D02*
X191168641Y-53773866D01*
X191168641Y-53773866D02*
X191168641Y-53945295D01*
X191168641Y-53945295D02*
X191082927Y-54202437D01*
X191082927Y-54202437D02*
X190054355Y-55231009D01*
X190054355Y-55231009D02*
X191168641Y-55231009D01*
X192282927Y-53431009D02*
X192454356Y-53431009D01*
X192454356Y-53431009D02*
X192625784Y-53516723D01*
X192625784Y-53516723D02*
X192711499Y-53602437D01*
X192711499Y-53602437D02*
X192797213Y-53773866D01*
X192797213Y-53773866D02*
X192882927Y-54116723D01*
X192882927Y-54116723D02*
X192882927Y-54545295D01*
X192882927Y-54545295D02*
X192797213Y-54888152D01*
X192797213Y-54888152D02*
X192711499Y-55059580D01*
X192711499Y-55059580D02*
X192625784Y-55145295D01*
X192625784Y-55145295D02*
X192454356Y-55231009D01*
X192454356Y-55231009D02*
X192282927Y-55231009D01*
X192282927Y-55231009D02*
X192111499Y-55145295D01*
X192111499Y-55145295D02*
X192025784Y-55059580D01*
X192025784Y-55059580D02*
X191940070Y-54888152D01*
X191940070Y-54888152D02*
X191854356Y-54545295D01*
X191854356Y-54545295D02*
X191854356Y-54116723D01*
X191854356Y-54116723D02*
X191940070Y-53773866D01*
X191940070Y-53773866D02*
X192025784Y-53602437D01*
X192025784Y-53602437D02*
X192111499Y-53516723D01*
X192111499Y-53516723D02*
X192282927Y-53431009D01*
X193568642Y-53602437D02*
X193654356Y-53516723D01*
X193654356Y-53516723D02*
X193825785Y-53431009D01*
X193825785Y-53431009D02*
X194254356Y-53431009D01*
X194254356Y-53431009D02*
X194425785Y-53516723D01*
X194425785Y-53516723D02*
X194511499Y-53602437D01*
X194511499Y-53602437D02*
X194597213Y-53773866D01*
X194597213Y-53773866D02*
X194597213Y-53945295D01*
X194597213Y-53945295D02*
X194511499Y-54202437D01*
X194511499Y-54202437D02*
X193482927Y-55231009D01*
X193482927Y-55231009D02*
X194597213Y-55231009D01*
X196225785Y-53431009D02*
X195368642Y-53431009D01*
X195368642Y-53431009D02*
X195282928Y-54288152D01*
X195282928Y-54288152D02*
X195368642Y-54202437D01*
X195368642Y-54202437D02*
X195540071Y-54116723D01*
X195540071Y-54116723D02*
X195968642Y-54116723D01*
X195968642Y-54116723D02*
X196140071Y-54202437D01*
X196140071Y-54202437D02*
X196225785Y-54288152D01*
X196225785Y-54288152D02*
X196311499Y-54459580D01*
X196311499Y-54459580D02*
X196311499Y-54888152D01*
X196311499Y-54888152D02*
X196225785Y-55059580D01*
X196225785Y-55059580D02*
X196140071Y-55145295D01*
X196140071Y-55145295D02*
X195968642Y-55231009D01*
X195968642Y-55231009D02*
X195540071Y-55231009D01*
X195540071Y-55231009D02*
X195368642Y-55145295D01*
X195368642Y-55145295D02*
X195282928Y-55059580D01*
D13*
X189340225Y-122800828D02*
X188483082Y-122800828D01*
X188911653Y-122800828D02*
X188911653Y-121300828D01*
X188911653Y-121300828D02*
X188768796Y-121515114D01*
X188768796Y-121515114D02*
X188625939Y-121657971D01*
X188625939Y-121657971D02*
X188483082Y-121729400D01*
X189840224Y-121300828D02*
X190840224Y-121300828D01*
X190840224Y-121300828D02*
X190197367Y-122800828D01*
D12*
X131443608Y-100140662D02*
X131443608Y-101112091D01*
X131443608Y-101112091D02*
X131500751Y-101226377D01*
X131500751Y-101226377D02*
X131557894Y-101283520D01*
X131557894Y-101283520D02*
X131672179Y-101340662D01*
X131672179Y-101340662D02*
X131900751Y-101340662D01*
X131900751Y-101340662D02*
X132015036Y-101283520D01*
X132015036Y-101283520D02*
X132072179Y-101226377D01*
X132072179Y-101226377D02*
X132129322Y-101112091D01*
X132129322Y-101112091D02*
X132129322Y-100140662D01*
X133215037Y-100540662D02*
X133215037Y-101340662D01*
X132929322Y-100083520D02*
X132643608Y-100940662D01*
X132643608Y-100940662D02*
X133386465Y-100940662D01*
M02*
