%TF.GenerationSoftware,KiCad,Pcbnew,9.0.4*%
%TF.CreationDate,2025-10-24T10:45:45+02:00*%
%TF.ProjectId,ELE340_GRNS,454c4533-3430-45f4-9752-4e532e6b6963,V3.1*%
%TF.SameCoordinates,Original*%
%TF.FileFunction,Copper,L1,Top*%
%TF.FilePolarity,Positive*%
%FSLAX46Y46*%
G04 Gerber Fmt 4.6, Leading zero omitted, Abs format (unit mm)*
G04 Created by KiCad (PCBNEW 9.0.4) date 2025-10-24 10:45:45*
%MOMM*%
%LPD*%
G01*
G04 APERTURE LIST*
G04 Aperture macros list*
%AMRoundRect*
0 Rectangle with rounded corners*
0 $1 Rounding radius*
0 $2 $3 $4 $5 $6 $7 $8 $9 X,Y pos of 4 corners*
0 Add a 4 corners polygon primitive as box body*
4,1,4,$2,$3,$4,$5,$6,$7,$8,$9,$2,$3,0*
0 Add four circle primitives for the rounded corners*
1,1,$1+$1,$2,$3*
1,1,$1+$1,$4,$5*
1,1,$1+$1,$6,$7*
1,1,$1+$1,$8,$9*
0 Add four rect primitives between the rounded corners*
20,1,$1+$1,$2,$3,$4,$5,0*
20,1,$1+$1,$4,$5,$6,$7,0*
20,1,$1+$1,$6,$7,$8,$9,0*
20,1,$1+$1,$8,$9,$2,$3,0*%
G04 Aperture macros list end*
%TA.AperFunction,SMDPad,CuDef*%
%ADD10RoundRect,0.225000X0.225000X-1.250000X0.225000X1.250000X-0.225000X1.250000X-0.225000X-1.250000X0*%
%TD*%
%TA.AperFunction,SMDPad,CuDef*%
%ADD11RoundRect,0.225000X0.225000X-0.937500X0.225000X0.937500X-0.225000X0.937500X-0.225000X-0.937500X0*%
%TD*%
%TA.AperFunction,HeatsinkPad*%
%ADD12R,3.000000X2.000000*%
%TD*%
%TA.AperFunction,SMDPad,CuDef*%
%ADD13RoundRect,0.200000X0.200000X-1.275000X0.200000X1.275000X-0.200000X1.275000X-0.200000X-1.275000X0*%
%TD*%
%TA.AperFunction,ComponentPad*%
%ADD14C,2.800000*%
%TD*%
%TA.AperFunction,SMDPad,CuDef*%
%ADD15RoundRect,0.250000X-0.650000X0.412500X-0.650000X-0.412500X0.650000X-0.412500X0.650000X0.412500X0*%
%TD*%
%TA.AperFunction,SMDPad,CuDef*%
%ADD16RoundRect,0.250000X-0.625000X0.400000X-0.625000X-0.400000X0.625000X-0.400000X0.625000X0.400000X0*%
%TD*%
%TA.AperFunction,SMDPad,CuDef*%
%ADD17RoundRect,0.162500X0.617500X0.162500X-0.617500X0.162500X-0.617500X-0.162500X0.617500X-0.162500X0*%
%TD*%
%TA.AperFunction,SMDPad,CuDef*%
%ADD18RoundRect,0.200000X0.580000X0.200000X-0.580000X0.200000X-0.580000X-0.200000X0.580000X-0.200000X0*%
%TD*%
%TA.AperFunction,SMDPad,CuDef*%
%ADD19RoundRect,0.250000X-0.400000X-0.625000X0.400000X-0.625000X0.400000X0.625000X-0.400000X0.625000X0*%
%TD*%
%TA.AperFunction,ComponentPad*%
%ADD20R,2.100000X2.100000*%
%TD*%
%TA.AperFunction,ComponentPad*%
%ADD21C,2.200000*%
%TD*%
%TA.AperFunction,SMDPad,CuDef*%
%ADD22RoundRect,0.250000X0.650000X-0.412500X0.650000X0.412500X-0.650000X0.412500X-0.650000X-0.412500X0*%
%TD*%
%TA.AperFunction,SMDPad,CuDef*%
%ADD23RoundRect,0.250000X0.400000X0.625000X-0.400000X0.625000X-0.400000X-0.625000X0.400000X-0.625000X0*%
%TD*%
%TA.AperFunction,ComponentPad*%
%ADD24C,2.000000*%
%TD*%
%TA.AperFunction,SMDPad,CuDef*%
%ADD25RoundRect,0.250000X1.100000X-0.412500X1.100000X0.412500X-1.100000X0.412500X-1.100000X-0.412500X0*%
%TD*%
%TA.AperFunction,ComponentPad*%
%ADD26R,2.200000X2.200000*%
%TD*%
%TA.AperFunction,SMDPad,CuDef*%
%ADD27RoundRect,0.250000X-0.412500X-0.650000X0.412500X-0.650000X0.412500X0.650000X-0.412500X0.650000X0*%
%TD*%
%TA.AperFunction,SMDPad,CuDef*%
%ADD28R,1.100000X1.500000*%
%TD*%
%TA.AperFunction,SMDPad,CuDef*%
%ADD29R,1.500000X1.200000*%
%TD*%
%TA.AperFunction,SMDPad,CuDef*%
%ADD30RoundRect,0.375000X0.375000X-0.625000X0.375000X0.625000X-0.375000X0.625000X-0.375000X-0.625000X0*%
%TD*%
%TA.AperFunction,SMDPad,CuDef*%
%ADD31RoundRect,0.500000X1.400000X-0.500000X1.400000X0.500000X-1.400000X0.500000X-1.400000X-0.500000X0*%
%TD*%
%TA.AperFunction,SMDPad,CuDef*%
%ADD32RoundRect,0.250000X0.625000X-0.400000X0.625000X0.400000X-0.625000X0.400000X-0.625000X-0.400000X0*%
%TD*%
%TA.AperFunction,SMDPad,CuDef*%
%ADD33R,1.300000X3.000000*%
%TD*%
%TA.AperFunction,SMDPad,CuDef*%
%ADD34R,2.000000X3.000000*%
%TD*%
%TA.AperFunction,SMDPad,CuDef*%
%ADD35R,2.550000X1.300000*%
%TD*%
%TA.AperFunction,SMDPad,CuDef*%
%ADD36RoundRect,0.200000X-0.200000X0.750000X-0.200000X-0.750000X0.200000X-0.750000X0.200000X0.750000X0*%
%TD*%
%TA.AperFunction,SMDPad,CuDef*%
%ADD37RoundRect,0.225000X-0.225000X1.250000X-0.225000X-1.250000X0.225000X-1.250000X0.225000X1.250000X0*%
%TD*%
%TA.AperFunction,ComponentPad*%
%ADD38C,1.800000*%
%TD*%
%TA.AperFunction,ComponentPad*%
%ADD39C,1.400000*%
%TD*%
%TA.AperFunction,ComponentPad*%
%ADD40C,2.400000*%
%TD*%
%TA.AperFunction,ComponentPad*%
%ADD41C,2.500000*%
%TD*%
%TA.AperFunction,ComponentPad*%
%ADD42C,4.000000*%
%TD*%
%TA.AperFunction,SMDPad,CuDef*%
%ADD43RoundRect,0.250000X-0.650000X1.250000X-0.650000X-1.250000X0.650000X-1.250000X0.650000X1.250000X0*%
%TD*%
%TA.AperFunction,SMDPad,CuDef*%
%ADD44RoundRect,0.250000X-0.412500X-1.100000X0.412500X-1.100000X0.412500X1.100000X-0.412500X1.100000X0*%
%TD*%
%TA.AperFunction,SMDPad,CuDef*%
%ADD45R,9.000000X4.000000*%
%TD*%
%TA.AperFunction,SMDPad,CuDef*%
%ADD46RoundRect,0.200000X-0.750000X-0.200000X0.750000X-0.200000X0.750000X0.200000X-0.750000X0.200000X0*%
%TD*%
%TA.AperFunction,ComponentPad*%
%ADD47R,2.600000X2.600000*%
%TD*%
%TA.AperFunction,ComponentPad*%
%ADD48C,2.600000*%
%TD*%
%TA.AperFunction,ViaPad*%
%ADD49C,2.000000*%
%TD*%
%TA.AperFunction,Conductor*%
%ADD50C,0.600000*%
%TD*%
%TA.AperFunction,Conductor*%
%ADD51C,1.000000*%
%TD*%
%TA.AperFunction,Conductor*%
%ADD52C,0.800000*%
%TD*%
%TA.AperFunction,Conductor*%
%ADD53C,1.400000*%
%TD*%
G04 APERTURE END LIST*
D10*
%TO.P,U5,8,CLK*%
%TO.N,Net-(U5-CLK)*%
X142595000Y-116025000D03*
%TO.P,U5,1,COM*%
%TO.N,Net-(U5-COM)*%
X142595000Y-120975000D03*
%TO.P,U5,2,IN*%
%TO.N,Net-(U5-IN)*%
X143865000Y-120975000D03*
%TO.P,U5,3,GND*%
%TO.N,AGND*%
X145135000Y-120975000D03*
%TO.P,U5,4,VDD*%
%TO.N,V3.3_A*%
X146405000Y-120975000D03*
%TO.P,U5,5,OUT*%
%TO.N,Net-(U5-OUT)*%
X146405000Y-116025000D03*
%TO.P,U5,6,OS*%
%TO.N,/VBIAS*%
X145135000Y-116025000D03*
%TO.P,U5,7,SHDN*%
%TO.N,V3.3_A*%
X143865000Y-116025000D03*
%TD*%
D11*
%TO.P,U1,1,Boot*%
%TO.N,Net-(U1-Boot)*%
X113745000Y-79337500D03*
%TO.P,U1,2*%
%TO.N,N/C*%
X115015000Y-79337500D03*
%TO.P,U1,3,RT/SYNC*%
%TO.N,unconnected-(U1-RT{slash}SYNC-Pad3)*%
X116285000Y-79337500D03*
%TO.P,U1,4,FB*%
%TO.N,+5V*%
X117555000Y-79337500D03*
%TO.P,U1,5,EN*%
%TO.N,unconnected-(U1-EN-Pad5)*%
X117555000Y-73662500D03*
%TO.P,U1,6,GND*%
%TO.N,AGND*%
X116285000Y-73662500D03*
%TO.P,U1,7,Vin*%
%TO.N,Net-(TVS1-A1)*%
X115015000Y-73662500D03*
%TO.P,U1,8,SW*%
%TO.N,Net-(U1-SW)*%
X113745000Y-73662500D03*
D12*
%TO.P,U1,9,GND_Pad*%
%TO.N,AGND*%
X115650000Y-76500000D03*
%TD*%
D10*
%TO.P,U3,1,VCC*%
%TO.N,V3.3_D*%
X138595000Y-74475000D03*
%TO.P,U3,2,RO*%
%TO.N,/RX*%
X139865000Y-74475000D03*
%TO.P,U3,3,DI*%
%TO.N,/TX*%
X141135000Y-74475000D03*
%TO.P,U3,4,GND*%
%TO.N,AGND*%
X142405000Y-74475000D03*
D13*
%TO.P,U3,5,Y*%
%TO.N,/J2-11*%
X142405000Y-69525000D03*
D10*
%TO.P,U3,6,Z*%
%TO.N,/J2-4*%
X141135000Y-69525000D03*
%TO.P,U3,7,B*%
%TO.N,/J2-5*%
X139865000Y-69525000D03*
%TO.P,U3,0.9,A*%
%TO.N,/J2-13*%
X138595000Y-69525000D03*
%TD*%
D14*
%TO.P,TP12,1,1*%
%TO.N,Net-(JMP2-B)*%
X127000000Y-119000000D03*
%TD*%
D15*
%TO.P,C9,1,1*%
%TO.N,V3.3_D*%
X135500000Y-73937500D03*
%TO.P,C9,2,2*%
%TO.N,AGND*%
X135500000Y-77062500D03*
%TD*%
D16*
%TO.P,R3,1*%
%TO.N,/J2-4*%
X147000000Y-65950000D03*
%TO.P,R3,2*%
%TO.N,/J2-11*%
X147000000Y-69050000D03*
%TD*%
D17*
%TO.P,U4,1,VBIAS*%
%TO.N,Net-(U4-VBIAS)*%
X137700000Y-104500000D03*
%TO.P,U4,2,GND*%
%TO.N,AGND*%
X137700000Y-103550000D03*
%TO.P,U4,3,EN*%
%TO.N,+5V*%
X137700000Y-102600000D03*
D18*
%TO.P,U4,4,VIN*%
X135000000Y-102600000D03*
%TO.P,U4,5,VREF*%
%TO.N,V3.3_A*%
X135000000Y-104500000D03*
%TD*%
D19*
%TO.P,R5,1*%
%TO.N,/MB1*%
X181950000Y-77500000D03*
%TO.P,R5,2*%
%TO.N,Net-(R5-Pad2)*%
X185050000Y-77500000D03*
%TD*%
D20*
%TO.P,JMP2,1,A*%
%TO.N,Net-(J3-Pin_3)*%
X124500000Y-114500000D03*
D21*
%TO.P,JMP2,2,B*%
%TO.N,Net-(JMP2-B)*%
X127040000Y-114500000D03*
%TD*%
D16*
%TO.P,R1,1*%
%TO.N,/J2-5*%
X134000000Y-65950000D03*
%TO.P,R1,2*%
%TO.N,/J2-13*%
X134000000Y-69050000D03*
%TD*%
D14*
%TO.P,TG2,1,1*%
%TO.N,AGND*%
X122500000Y-67000000D03*
%TD*%
%TO.P,TP11,1,1*%
%TO.N,Net-(U4-VBIAS)*%
X144500000Y-104500000D03*
%TD*%
D22*
%TO.P,C15,1*%
%TO.N,V3.3_A*%
X144000000Y-112562500D03*
%TO.P,C15,2*%
%TO.N,AGND*%
X144000000Y-109437500D03*
%TD*%
D23*
%TO.P,R6,1*%
%TO.N,Net-(R5-Pad2)*%
X185050000Y-73000000D03*
%TO.P,R6,2*%
%TO.N,V3.3_D*%
X181950000Y-73000000D03*
%TD*%
D22*
%TO.P,C16,1*%
%TO.N,/VBIAS*%
X147500000Y-112562500D03*
%TO.P,C16,2*%
%TO.N,AGND*%
X147500000Y-109437500D03*
%TD*%
D24*
%TO.P,,1*%
%TO.N,AGND*%
X128000000Y-128000000D03*
%TD*%
D14*
%TO.P,TP13,1,1*%
%TO.N,Net-(U5-CLK)*%
X138500000Y-112500000D03*
%TD*%
D25*
%TO.P,C8,1,1*%
%TO.N,V3.3_D*%
X169531250Y-83350000D03*
%TO.P,C8,2,2*%
%TO.N,AGND*%
X169531250Y-80225000D03*
%TD*%
D22*
%TO.P,C7,1,1*%
%TO.N,V3.3_D*%
X165031250Y-83412500D03*
%TO.P,C7,2,2*%
%TO.N,AGND*%
X165031250Y-80287500D03*
%TD*%
D26*
%TO.P,MB1,1,Pin_1*%
%TO.N,/MB1*%
X180220000Y-86890000D03*
D21*
%TO.P,MB1,2,Pin_2*%
%TO.N,unconnected-(MB1A-Pin_2-Pad2)*%
X182760000Y-86890000D03*
%TO.P,MB1,3,Pin_3*%
%TO.N,unconnected-(MB1A-Pin_3-Pad3)*%
X185300000Y-86890000D03*
%TO.P,MB1,4,Pin_4*%
%TO.N,unconnected-(MB1A-Pin_4-Pad4)*%
X187840000Y-86890000D03*
%TO.P,MB1,5,Pin_5*%
%TO.N,unconnected-(MB1A-Pin_5-Pad5)*%
X190380000Y-86890000D03*
%TO.P,MB1,6,Pin_6*%
%TO.N,unconnected-(MB1A-Pin_6-Pad6)*%
X192920000Y-86890000D03*
%TO.P,MB1,7,Pin_7*%
%TO.N,unconnected-(MB1A-Pin_7-Pad7)*%
X195460000Y-86890000D03*
%TO.P,MB1,8,Pin_8*%
%TO.N,AGND*%
X198000000Y-86890000D03*
%TO.P,MB1,9,Pin_9*%
X198000000Y-64030000D03*
%TO.P,MB1,10,Pin_10*%
%TO.N,+5V*%
X195460000Y-64030000D03*
%TO.P,MB1,11,Pin_11*%
%TO.N,unconnected-(MB1B-Pin_11-Pad11)*%
X192920000Y-64030000D03*
%TO.P,MB1,12,Pin_12*%
%TO.N,unconnected-(MB1B-Pin_12-Pad12)*%
X190380000Y-64030000D03*
%TO.P,MB1,13,Pin_13*%
%TO.N,/MB1-13*%
X187840000Y-64030000D03*
%TO.P,MB1,14,Pin_14*%
%TO.N,/MB1-14*%
X185300000Y-64030000D03*
%TO.P,MB1,15,Pin_15*%
%TO.N,unconnected-(MB1B-Pin_15-Pad15)*%
X182760000Y-64030000D03*
D26*
%TO.P,MB1,16,Pin_16*%
%TO.N,unconnected-(MB1B-Pin_16-Pad16)*%
X180220000Y-64030000D03*
%TD*%
D27*
%TO.P,C10,1,1*%
%TO.N,+5V*%
X137437500Y-100000000D03*
%TO.P,C10,2,2*%
%TO.N,AGND*%
X140562500Y-100000000D03*
%TD*%
D14*
%TO.P,TP5,1,1*%
%TO.N,/RX*%
X155867882Y-74165158D03*
%TD*%
D27*
%TO.P,C14,1*%
%TO.N,Net-(U5-IN)*%
X141937500Y-127500000D03*
%TO.P,C14,2*%
%TO.N,AGND*%
X145062500Y-127500000D03*
%TD*%
D28*
%TO.P,D1,1*%
%TO.N,Net-(U1-SW)*%
X108000000Y-70380000D03*
D29*
%TO.P,D1,2*%
%TO.N,AGND*%
X108000000Y-68480000D03*
%TD*%
D22*
%TO.P,C17,1*%
%TO.N,Net-(U5-COM)*%
X135000000Y-119062500D03*
%TO.P,C17,2*%
%TO.N,AGND*%
X135000000Y-115937500D03*
%TD*%
D24*
%TO.P,,1*%
%TO.N,AGND*%
X145256212Y-124828237D03*
%TD*%
D19*
%TO.P,R2,1*%
%TO.N,/RX*%
X160450000Y-72000000D03*
%TO.P,R2,2*%
%TO.N,/MB1-14*%
X163550000Y-72000000D03*
%TD*%
D20*
%TO.P,JMP1,1,1*%
%TO.N,/Vin_DA15*%
X115000000Y-69500000D03*
D21*
%TO.P,JMP1,2,2*%
%TO.N,Net-(TVS1-A1)*%
X115000000Y-66960000D03*
%TO.P,JMP1,3,3*%
%TO.N,/Vout_DA15*%
X115000000Y-64420000D03*
%TD*%
D14*
%TO.P,TP9,1,1*%
%TO.N,Net-(R5-Pad2)*%
X187500000Y-82500000D03*
%TD*%
D15*
%TO.P,C2,1,1*%
%TO.N,Net-(TVS1-A1)*%
X128000000Y-74437500D03*
%TO.P,C2,2,2*%
%TO.N,AGND*%
X128000000Y-77562500D03*
%TD*%
D21*
%TO.P,,9,Pin_9*%
%TO.N,AGND*%
X148000000Y-107000000D03*
%TD*%
D16*
%TO.P,R12,1*%
%TO.N,Net-(R12-Pad1)*%
X156000000Y-106950000D03*
%TO.P,R12,2*%
%TO.N,AGND*%
X156000000Y-110050000D03*
%TD*%
D30*
%TO.P,U2,1,Vin*%
%TO.N,+5V*%
X154200000Y-85150000D03*
%TO.P,U2,2*%
%TO.N,AGND*%
X156500000Y-85150000D03*
%TO.P,U2,3,Vout*%
%TO.N,V3.3_D*%
X158800000Y-85150000D03*
D31*
%TO.P,U2,4*%
%TO.N,AGND*%
X156500000Y-78850000D03*
%TD*%
D16*
%TO.P,R9,1*%
%TO.N,Net-(R8-Pad2)*%
X138422033Y-123509679D03*
%TO.P,R9,2*%
%TO.N,Net-(U5-IN)*%
X138422033Y-126609679D03*
%TD*%
D32*
%TO.P,R11,1*%
%TO.N,/VBIAS*%
X159500000Y-110050000D03*
%TO.P,R11,2*%
%TO.N,Net-(R11-Pad2)*%
X159500000Y-106950000D03*
%TD*%
%TO.P,R7,1*%
%TO.N,Net-(JMP3-B)*%
X138500000Y-119050000D03*
%TO.P,R7,2*%
%TO.N,Net-(U5-CLK)*%
X138500000Y-115950000D03*
%TD*%
D19*
%TO.P,R4,1*%
%TO.N,/TX*%
X160450000Y-69000000D03*
%TO.P,R4,2*%
%TO.N,/MB1-13*%
X163550000Y-69000000D03*
%TD*%
D14*
%TO.P,TP2,1,1*%
%TO.N,V3.3_D*%
X167000000Y-87000000D03*
%TD*%
%TO.P,TP6,1,1*%
%TO.N,/J2-11*%
X152500000Y-66000000D03*
%TD*%
D21*
%TO.P,,9,Pin_9*%
%TO.N,AGND*%
X145500000Y-100000000D03*
%TD*%
D33*
%TO.P,RP1,A1,A1*%
%TO.N,Net-(R11-Pad2)*%
X164350000Y-105500000D03*
D34*
%TO.P,RP1,B1,B1*%
%TO.N,Net-(U6--IN)*%
X165500000Y-110500000D03*
D33*
%TO.P,RP1,C1,C1*%
%TO.N,Net-(R12-Pad1)*%
X166650000Y-105500000D03*
%TD*%
D35*
%TO.P,SW1,1,A*%
%TO.N,Net-(R5-Pad2)*%
X188525000Y-73250000D03*
%TO.P,SW1,2,A*%
X188525000Y-77750000D03*
%TO.P,SW1,3,B*%
%TO.N,AGND*%
X196475000Y-73250000D03*
%TO.P,SW1,4,B*%
X196475000Y-77750000D03*
%TD*%
D36*
%TO.P,TVS3,1,K*%
%TO.N,Net-(JMP2-B)*%
X128950000Y-123000000D03*
%TO.P,TVS3,2,K*%
X127050000Y-123000000D03*
%TO.P,TVS3,3,A*%
%TO.N,AGND*%
X128000000Y-126000000D03*
%TD*%
D37*
%TO.P,U6,1*%
%TO.N,Net-(R_inf1-Pad2)*%
X166905000Y-116025000D03*
%TO.P,U6,2,-IN*%
%TO.N,Net-(U6--IN)*%
X165635000Y-116025000D03*
%TO.P,U6,3,+IN*%
%TO.N,Net-(U5-OUT)*%
X164365000Y-116025000D03*
%TO.P,U6,4,-Vs*%
%TO.N,AGND*%
X163095000Y-116025000D03*
%TO.P,U6,5,REF*%
X163095000Y-120975000D03*
%TO.P,U6,6,OUT*%
%TO.N,/MB2-1*%
X164365000Y-120975000D03*
%TO.P,U6,7,+Vs*%
%TO.N,V3.3_A*%
X165635000Y-120975000D03*
%TO.P,U6,8*%
%TO.N,Net-(R_inf1-Pad1)*%
X166905000Y-120975000D03*
%TD*%
D14*
%TO.P,TG1,1,1*%
%TO.N,AGND*%
X104500000Y-66000000D03*
%TD*%
%TO.P,TP8,1,1*%
%TO.N,/TX*%
X158000000Y-66000000D03*
%TD*%
D32*
%TO.P,R_inf1,1*%
%TO.N,Net-(R_inf1-Pad1)*%
X170000000Y-120000000D03*
%TO.P,R_inf1,2*%
%TO.N,Net-(R_inf1-Pad2)*%
X170000000Y-116900000D03*
%TD*%
D14*
%TO.P,TP7,1,1*%
%TO.N,/J2-4*%
X142500000Y-65000000D03*
%TD*%
D22*
%TO.P,C6,1,1*%
%TO.N,+5V*%
X148179034Y-83519390D03*
%TO.P,C6,2,2*%
%TO.N,AGND*%
X148179034Y-80394390D03*
%TD*%
D15*
%TO.P,C1,1,1*%
%TO.N,Net-(TVS1-A1)*%
X124000000Y-74437500D03*
%TO.P,C1,2,2*%
%TO.N,AGND*%
X124000000Y-77562500D03*
%TD*%
D14*
%TO.P,TP4,1,1*%
%TO.N,/J2-5*%
X138500000Y-65000000D03*
%TD*%
%TO.P,TP10,1,1*%
%TO.N,V3.3_A*%
X131500000Y-112500000D03*
%TD*%
D38*
%TO.P,J2,1,1*%
%TO.N,/Vout_DA15*%
X150384998Y-60743348D03*
D39*
%TO.P,J2,2,2*%
%TO.N,AGND*%
X147614999Y-60743348D03*
D38*
%TO.P,J2,3,3*%
X144844999Y-60743348D03*
D40*
%TO.P,J2,4,4*%
%TO.N,/J2-4*%
X142074999Y-60743348D03*
%TO.P,J2,5,5*%
%TO.N,/J2-5*%
X139305000Y-60743348D03*
D39*
%TO.P,J2,6,6*%
%TO.N,AGND*%
X136535000Y-60743348D03*
D38*
%TO.P,J2,7,7*%
X133765001Y-60743348D03*
D40*
%TO.P,J2,8,8*%
%TO.N,/Vin_DA15*%
X130995001Y-60743348D03*
D38*
%TO.P,J2,9,9*%
%TO.N,/Vout_DA15*%
X149000000Y-57903349D03*
%TO.P,J2,10,10*%
%TO.N,AGND*%
X146230000Y-57903349D03*
D41*
%TO.P,J2,11,11*%
%TO.N,/J2-11*%
X143460001Y-57903349D03*
D38*
%TO.P,J2,12,12*%
%TO.N,AGND*%
X140690001Y-57903349D03*
D41*
%TO.P,J2,13,13*%
%TO.N,/J2-13*%
X137920001Y-57903349D03*
D38*
%TO.P,J2,14,14*%
%TO.N,AGND*%
X135150002Y-57903349D03*
D40*
%TO.P,J2,15,15*%
%TO.N,/Vin_DA15*%
X132380002Y-57903349D03*
D42*
%TO.P,J2,16,16*%
%TO.N,AGND*%
X124027601Y-59323348D03*
%TO.P,J2,17*%
%TO.N,N/C*%
X157352401Y-59323348D03*
%TD*%
D20*
%TO.P,JMP3,1,A*%
%TO.N,/MB2-16*%
X170460000Y-93000000D03*
D21*
%TO.P,JMP3,2,B*%
%TO.N,Net-(JMP3-B)*%
X167920000Y-93000000D03*
%TD*%
D14*
%TO.P,TP3,1,1*%
%TO.N,/J2-13*%
X128000000Y-67000000D03*
%TD*%
%TO.P,TGA1,1,1*%
%TO.N,AGND*%
X172500000Y-104000000D03*
%TD*%
%TO.P,TP15,1,1*%
%TO.N,Net-(U6--IN)*%
X173000000Y-111500000D03*
%TD*%
D43*
%TO.P,TVS1,1,A1*%
%TO.N,Net-(TVS1-A1)*%
X132000000Y-73500000D03*
%TO.P,TVS1,2,A2*%
%TO.N,AGND*%
X132000000Y-78500000D03*
%TD*%
D27*
%TO.P,C18,1*%
%TO.N,V3.3_A*%
X170937500Y-124500000D03*
%TO.P,C18,2*%
%TO.N,AGND*%
X174062500Y-124500000D03*
%TD*%
D44*
%TO.P,C4,1,1*%
%TO.N,+5V*%
X114437500Y-111000000D03*
%TO.P,C4,2,2*%
%TO.N,AGND*%
X117562500Y-111000000D03*
%TD*%
D32*
%TO.P,R8,1*%
%TO.N,Net-(JMP2-B)*%
X133922033Y-126609679D03*
%TO.P,R8,2*%
%TO.N,Net-(R8-Pad2)*%
X133922033Y-123509679D03*
%TD*%
D25*
%TO.P,C12,1,1*%
%TO.N,V3.3_A*%
X129500000Y-106062500D03*
%TO.P,C12,2,2*%
%TO.N,AGND*%
X129500000Y-102937500D03*
%TD*%
D14*
%TO.P,TP16,1,1*%
%TO.N,AGND*%
X159500000Y-118500000D03*
%TD*%
%TO.P,TP14,1,1*%
%TO.N,Net-(U5-OUT)*%
X153500000Y-116000000D03*
%TD*%
D44*
%TO.P,C13,1*%
%TO.N,+5V*%
X114437500Y-115000000D03*
%TO.P,C13,2*%
%TO.N,AGND*%
X117562500Y-115000000D03*
%TD*%
D22*
%TO.P,C3,1,1*%
%TO.N,Net-(U1-Boot)*%
X108000000Y-77625000D03*
%TO.P,C3,2,2*%
%TO.N,Net-(U1-SW)*%
X108000000Y-74500000D03*
%TD*%
D25*
%TO.P,C5,1,1*%
%TO.N,+5V*%
X143679034Y-83519390D03*
%TO.P,C5,2,2*%
%TO.N,AGND*%
X143679034Y-80394390D03*
%TD*%
D14*
%TO.P,TP1,1,1*%
%TO.N,+5V*%
X137000000Y-90000000D03*
%TD*%
D45*
%TO.P,L1,1,1*%
%TO.N,Net-(U1-SW)*%
X107500000Y-86250000D03*
%TO.P,L1,2,2*%
%TO.N,+5V*%
X107500000Y-103750000D03*
%TD*%
D22*
%TO.P,C11,1,1*%
%TO.N,V3.3_A*%
X125000000Y-106125000D03*
%TO.P,C11,2,2*%
%TO.N,AGND*%
X125000000Y-103000000D03*
%TD*%
D14*
%TO.P,TP17,1,1*%
%TO.N,/MB2-1*%
X185500000Y-122000000D03*
%TD*%
D24*
%TO.P,,1*%
%TO.N,AGND*%
X120356437Y-112874316D03*
%TD*%
D46*
%TO.P,TVS2,1,K*%
%TO.N,Net-(R5-Pad2)*%
X191500000Y-68050000D03*
%TO.P,TVS2,2,K*%
X191500000Y-69950000D03*
%TO.P,TVS2,3,A*%
%TO.N,AGND*%
X194500000Y-69000000D03*
%TD*%
D47*
%TO.P,J1,1,1*%
%TO.N,/Vout_DA15*%
X114750000Y-60112500D03*
D48*
%TO.P,J1,2,2*%
%TO.N,AGND*%
X111250000Y-60112500D03*
%TD*%
D36*
%TO.P,TVS4,1,K*%
%TO.N,Net-(JMP3-B)*%
X161450000Y-93500000D03*
%TO.P,TVS4,2,K*%
X159550000Y-93500000D03*
%TO.P,TVS4,3,A*%
%TO.N,AGND*%
X160500000Y-96500000D03*
%TD*%
D47*
%TO.P,J3,1,Pin_1*%
%TO.N,+5V*%
X111000000Y-119887500D03*
D48*
%TO.P,J3,2,Pin_2*%
%TO.N,AGND*%
X114500000Y-119887500D03*
%TO.P,J3,3,Pin_3*%
%TO.N,Net-(J3-Pin_3)*%
X118000000Y-119887500D03*
%TD*%
D26*
%TO.P,MB2,1,Pin_1*%
%TO.N,/MB2-1*%
X180260000Y-115970000D03*
D21*
%TO.P,MB2,2,Pin_2*%
%TO.N,unconnected-(MB2A-Pin_2-Pad2)*%
X182800000Y-115970000D03*
%TO.P,MB2,3,Pin_3*%
%TO.N,unconnected-(MB2A-Pin_3-Pad3)*%
X185340000Y-115970000D03*
%TO.P,MB2,4,Pin_4*%
%TO.N,unconnected-(MB2A-Pin_4-Pad4)*%
X187880000Y-115970000D03*
%TO.P,MB2,5,Pin_5*%
%TO.N,unconnected-(MB2A-Pin_5-Pad5)*%
X190420000Y-115970000D03*
%TO.P,MB2,6,Pin_6*%
%TO.N,unconnected-(MB2A-Pin_6-Pad6)*%
X192960000Y-115970000D03*
%TO.P,MB2,7,Pin_7*%
%TO.N,unconnected-(MB2A-Pin_7-Pad7)*%
X195500000Y-115970000D03*
%TO.P,MB2,8,Pin_8*%
%TO.N,AGND*%
X198040000Y-115970000D03*
%TO.P,MB2,9,Pin_9*%
X198040000Y-93110000D03*
%TO.P,MB2,10,Pin_10*%
%TO.N,+5V*%
X195500000Y-93110000D03*
%TO.P,MB2,11,Pin_11*%
%TO.N,unconnected-(MB2B-Pin_11-Pad11)*%
X192960000Y-93110000D03*
%TO.P,MB2,12,Pin_12*%
%TO.N,unconnected-(MB2B-Pin_12-Pad12)*%
X190420000Y-93110000D03*
%TO.P,MB2,13,Pin_13*%
%TO.N,unconnected-(MB2B-Pin_13-Pad13)*%
X187880000Y-93110000D03*
%TO.P,MB2,14,Pin_14*%
%TO.N,unconnected-(MB2B-Pin_14-Pad14)*%
X185340000Y-93110000D03*
%TO.P,MB2,15,Pin_15*%
%TO.N,unconnected-(MB2B-Pin_15-Pad15)*%
X182800000Y-93110000D03*
D26*
%TO.P,MB2,16,Pin_16*%
%TO.N,/MB2-16*%
X180260000Y-93110000D03*
%TD*%
D49*
%TO.N,AGND*%
X135000000Y-113250000D03*
X177500000Y-124500000D03*
X145000000Y-72500000D03*
X120500000Y-77000000D03*
X127000000Y-102937500D03*
X160500000Y-99500000D03*
%TO.N,+5V*%
X176250000Y-90000000D03*
X111000000Y-113000000D03*
%TO.N,Net-(TVS1-A1)*%
X111000000Y-71500000D03*
%TO.N,V3.3_A*%
X149000000Y-124000000D03*
X168072477Y-124387476D03*
%TO.N,Net-(JMP3-B)*%
X140875000Y-118625000D03*
X156250000Y-93500000D03*
%TD*%
D50*
%TO.N,/TX*%
X141135000Y-74475000D02*
X141135000Y-72865000D01*
X144567501Y-70500000D02*
X155000000Y-70500000D01*
X141135000Y-72865000D02*
X142000000Y-72000000D01*
X142000000Y-72000000D02*
X143067501Y-72000000D01*
X143067501Y-72000000D02*
X144567501Y-70500000D01*
X155000000Y-70500000D02*
X156500000Y-69000000D01*
X156500000Y-69000000D02*
X157000000Y-69000000D01*
D51*
%TO.N,V3.3_A*%
X149000000Y-124000000D02*
X146500000Y-121500000D01*
X146500000Y-121500000D02*
X146500000Y-121070000D01*
%TO.N,Net-(U5-IN)*%
X141937500Y-127500000D02*
X141937500Y-124562500D01*
X141937500Y-124562500D02*
X143865000Y-122635000D01*
X143865000Y-122635000D02*
X143865000Y-120975000D01*
%TO.N,Net-(JMP2-B)*%
X127050000Y-121500000D02*
X128500000Y-121500000D01*
X127050000Y-119050000D02*
X127050000Y-121500000D01*
X128950000Y-121950000D02*
X128950000Y-123000000D01*
X128500000Y-121500000D02*
X128950000Y-121950000D01*
X133922033Y-126609679D02*
X131500000Y-126609679D01*
X131500000Y-126609679D02*
X131500000Y-123500000D01*
X131000000Y-123000000D02*
X128950000Y-123000000D01*
X131500000Y-123500000D02*
X131000000Y-123000000D01*
D50*
%TO.N,AGND*%
X137700000Y-103550000D02*
X139950000Y-103550000D01*
X140500000Y-100000000D02*
X140562500Y-100000000D01*
X139950000Y-103550000D02*
X140500000Y-103000000D01*
X140500000Y-103000000D02*
X140500000Y-100000000D01*
D51*
X148000000Y-107000000D02*
X148000000Y-108937500D01*
D50*
X148000000Y-108937500D02*
X147500000Y-109437500D01*
D51*
X104500000Y-66000000D02*
X108000000Y-66000000D01*
X108000000Y-66000000D02*
X108000000Y-68480000D01*
D50*
%TO.N,/J2-13*%
X138595000Y-69525000D02*
X138120000Y-70000000D01*
X138120000Y-70000000D02*
X134000000Y-70000000D01*
X134000000Y-70000000D02*
X134000000Y-69050000D01*
%TO.N,/RX*%
X139865000Y-74475000D02*
X139865000Y-76865000D01*
X143312909Y-77187091D02*
X148500000Y-72000000D01*
X139865000Y-76865000D02*
X140187091Y-77187091D01*
X140187091Y-77187091D02*
X143312909Y-77187091D01*
X148500000Y-72000000D02*
X157000000Y-72000000D01*
D51*
%TO.N,AGND*%
X140562500Y-100000000D02*
X145500000Y-100000000D01*
%TO.N,Net-(R5-Pad2)*%
X189550000Y-69950000D02*
X191500000Y-69950000D01*
X188525000Y-70000000D02*
X188525000Y-68025000D01*
X188525000Y-68025000D02*
X188550000Y-68050000D01*
X188550000Y-68050000D02*
X191500000Y-68050000D01*
X188525000Y-70000000D02*
X189500000Y-70000000D01*
X189500000Y-70000000D02*
X189550000Y-69950000D01*
%TO.N,AGND*%
X194500000Y-69000000D02*
X198000000Y-69000000D01*
X196475000Y-77750000D02*
X196475000Y-80475000D01*
X198000000Y-82000000D02*
X198000000Y-86890000D01*
X196475000Y-80475000D02*
X198000000Y-82000000D01*
X196475000Y-73250000D02*
X196500000Y-73225000D01*
X196500000Y-70500000D02*
X198000000Y-69000000D01*
X196500000Y-73225000D02*
X196500000Y-70500000D01*
X198040000Y-93110000D02*
X198040000Y-86930000D01*
X198040000Y-86930000D02*
X198000000Y-86890000D01*
X198040000Y-115970000D02*
X198040000Y-93110000D01*
D50*
%TO.N,V3.3_A*%
X146405000Y-120975000D02*
X146405000Y-119405000D01*
X146405000Y-119405000D02*
X145500000Y-118500000D01*
X144904999Y-118500000D02*
X143865000Y-117460001D01*
X145500000Y-118500000D02*
X144904999Y-118500000D01*
X143865000Y-117460001D02*
X143865000Y-116025000D01*
D51*
%TO.N,AGND*%
X117562500Y-115000000D02*
X120356437Y-115000000D01*
X120356437Y-115000000D02*
X120356437Y-112874316D01*
X117562500Y-111000000D02*
X120356437Y-111000000D01*
X120356437Y-111000000D02*
X120356437Y-112874316D01*
%TO.N,Net-(R5-Pad2)*%
X188525000Y-73250000D02*
X188525000Y-70000000D01*
%TO.N,+5V*%
X135000000Y-102600000D02*
X135000000Y-100000000D01*
X137437500Y-100000000D02*
X135000000Y-100000000D01*
%TO.N,AGND*%
X120500000Y-77000000D02*
X121062500Y-77562500D01*
X121062500Y-77562500D02*
X124000000Y-77562500D01*
X120500000Y-77000000D02*
X116150000Y-77000000D01*
X116150000Y-77000000D02*
X115650000Y-76500000D01*
X128000000Y-77562500D02*
X131062500Y-77562500D01*
X131062500Y-77562500D02*
X132000000Y-78500000D01*
X124000000Y-77562500D02*
X128000000Y-77562500D01*
%TO.N,+5V*%
X135000000Y-99500000D02*
X135000000Y-98562500D01*
%TO.N,AGND*%
X144000000Y-109437500D02*
X144437500Y-109437500D01*
X136000000Y-78500000D02*
X138000000Y-80500000D01*
X143025000Y-74475000D02*
X142405000Y-74475000D01*
X115650000Y-76180000D02*
X115650000Y-76500000D01*
X143679034Y-80394390D02*
X148179034Y-80394390D01*
X145256212Y-127306288D02*
X145062500Y-127500000D01*
X145135000Y-120975000D02*
X145135000Y-124707025D01*
X143573424Y-80500000D02*
X143679034Y-80394390D01*
X156500000Y-85150000D02*
X156500000Y-78850000D01*
X115650000Y-76500000D02*
X116285000Y-75865000D01*
X138000000Y-80500000D02*
X143573424Y-80500000D01*
X177500000Y-124500000D02*
X174062500Y-124500000D01*
X129500000Y-102937500D02*
X127000000Y-102937500D01*
X128000000Y-126000000D02*
X128000000Y-128000000D01*
X152500000Y-79000000D02*
X151105610Y-80394390D01*
X198000000Y-69000000D02*
X198000000Y-64030000D01*
X165031250Y-80287500D02*
X169468750Y-80287500D01*
X160500000Y-96500000D02*
X160500000Y-99500000D01*
X135000000Y-115937500D02*
X135000000Y-113250000D01*
X156000000Y-110050000D02*
X148112500Y-110050000D01*
X198040000Y-93020000D02*
X198000000Y-93060000D01*
X135500000Y-77062500D02*
X135500000Y-78500000D01*
X161975000Y-116025000D02*
X159500000Y-118500000D01*
X125062500Y-102937500D02*
X125000000Y-103000000D01*
X163095000Y-120975000D02*
X161975000Y-120975000D01*
X135500000Y-78500000D02*
X136000000Y-78500000D01*
X169468750Y-80287500D02*
X169531250Y-80225000D01*
X163095000Y-116025000D02*
X161975000Y-116025000D01*
X144437500Y-109437500D02*
X144500000Y-109500000D01*
X198000000Y-116020000D02*
X198040000Y-116060000D01*
X144000000Y-109437500D02*
X147500000Y-109437500D01*
X163593750Y-78850000D02*
X165031250Y-80287500D01*
D52*
X116285000Y-75865000D02*
X116285000Y-73662500D01*
D51*
X145135000Y-124707025D02*
X145256212Y-124828237D01*
X127000000Y-102937500D02*
X125062500Y-102937500D01*
X148112500Y-110050000D02*
X147500000Y-109437500D01*
X151105610Y-80394390D02*
X148179034Y-80394390D01*
X156500000Y-79000000D02*
X152500000Y-79000000D01*
X145256212Y-124828237D02*
X145256212Y-127306288D01*
X161975000Y-120975000D02*
X159500000Y-118500000D01*
X198000000Y-86980000D02*
X198040000Y-87020000D01*
X145000000Y-72500000D02*
X143025000Y-74475000D01*
X148284644Y-80500000D02*
X148179034Y-80394390D01*
X156500000Y-78850000D02*
X163593750Y-78850000D01*
X132000000Y-78500000D02*
X135500000Y-78500000D01*
%TO.N,+5V*%
X117555000Y-83055000D02*
X118000000Y-83500000D01*
D53*
X118000000Y-83500000D02*
X143659644Y-83500000D01*
X111000000Y-111000000D02*
X111000000Y-113000000D01*
D51*
X137000000Y-90000000D02*
X142937500Y-90000000D01*
D53*
X116500000Y-84000000D02*
X116500000Y-83500000D01*
X152150000Y-85150000D02*
X154200000Y-85150000D01*
X111000000Y-107250000D02*
X111000000Y-110000000D01*
X148198424Y-83500000D02*
X150500000Y-83500000D01*
X148179034Y-83519390D02*
X148198424Y-83500000D01*
X120000000Y-98500000D02*
X134937500Y-98500000D01*
X134937500Y-98500000D02*
X141988500Y-91449000D01*
X116500000Y-84000000D02*
X116500000Y-95000000D01*
D51*
X114437500Y-115000000D02*
X111000000Y-115000000D01*
D53*
X111000000Y-110000000D02*
X111000000Y-111000000D01*
D51*
X135000000Y-100000000D02*
X135000000Y-99500000D01*
D53*
X116513750Y-84013750D02*
X117027500Y-83500000D01*
X111000000Y-107250000D02*
X107500000Y-103750000D01*
D51*
X135000000Y-98562500D02*
X134937500Y-98500000D01*
D53*
X116500000Y-95000000D02*
X120000000Y-98500000D01*
X194500000Y-90000000D02*
X195500000Y-91000000D01*
X143679034Y-83519390D02*
X148179034Y-83519390D01*
X150500000Y-83500000D02*
X152150000Y-85150000D01*
X195500000Y-91000000D02*
X195500000Y-93020000D01*
D52*
X117555000Y-78742500D02*
X117555000Y-83055000D01*
D53*
X176250000Y-90000000D02*
X194500000Y-90000000D01*
X117027500Y-83500000D02*
X118000000Y-83500000D01*
X116750000Y-107250000D02*
X116750000Y-101750000D01*
D51*
X116513750Y-84013750D02*
X116500000Y-84000000D01*
D53*
X143659644Y-83500000D02*
X143679034Y-83519390D01*
X143437500Y-90000000D02*
X176250000Y-90000000D01*
X111000000Y-107250000D02*
X116750000Y-107250000D01*
X116750000Y-101750000D02*
X120000000Y-98500000D01*
X116500000Y-83500000D02*
X118000000Y-83500000D01*
D51*
X111000000Y-115000000D02*
X111000000Y-113000000D01*
D50*
X137700000Y-102600000D02*
X135000000Y-102600000D01*
D53*
X141988500Y-91449000D02*
X143437500Y-90000000D01*
D51*
X114437500Y-111000000D02*
X111000000Y-111000000D01*
%TO.N,Net-(TVS1-A1)*%
X121500000Y-74500000D02*
X118500000Y-71500000D01*
X124000000Y-74437500D02*
X128000000Y-74437500D01*
D52*
X115015000Y-72015000D02*
X115015000Y-73662500D01*
D51*
X114479000Y-71479000D02*
X115015000Y-72015000D01*
X115530000Y-71500000D02*
X115015000Y-72015000D01*
X131062500Y-74437500D02*
X132000000Y-73500000D01*
X128000000Y-74437500D02*
X131062500Y-74437500D01*
X112000000Y-71500000D02*
X112021000Y-71479000D01*
X118500000Y-71500000D02*
X115530000Y-71500000D01*
X111000000Y-71500000D02*
X112000000Y-71500000D01*
X124000000Y-74437500D02*
X123937500Y-74500000D01*
X112021000Y-71479000D02*
X114479000Y-71479000D01*
X123937500Y-74500000D02*
X121500000Y-74500000D01*
%TO.N,V3.3_A*%
X143562500Y-112562500D02*
X144000000Y-112562500D01*
X132500000Y-106062500D02*
X133000000Y-106062500D01*
X125000000Y-106125000D02*
X125062500Y-106062500D01*
X168072477Y-124387476D02*
X166867376Y-124387476D01*
X165635000Y-123155100D02*
X165635000Y-120975000D01*
X133000000Y-104500000D02*
X133000000Y-106062500D01*
X138265314Y-107265314D02*
X143562500Y-112562500D01*
X143865000Y-112697500D02*
X144000000Y-112562500D01*
X133702814Y-107265314D02*
X138265314Y-107265314D01*
X168072477Y-124387476D02*
X168185001Y-124500000D01*
X131000000Y-106062500D02*
X131500000Y-106562500D01*
X131500000Y-106562500D02*
X132000000Y-106062500D01*
X132500000Y-106062500D02*
X133702814Y-107265314D01*
X135000000Y-104500000D02*
X133000000Y-104500000D01*
X168185001Y-124500000D02*
X170937500Y-124500000D01*
X132000000Y-106062500D02*
X132500000Y-106062500D01*
X131500000Y-112500000D02*
X131500000Y-106562500D01*
X143865000Y-116025000D02*
X143865000Y-112697500D01*
X125062500Y-106062500D02*
X131000000Y-106062500D01*
X166867376Y-124387476D02*
X165635000Y-123155100D01*
%TO.N,Net-(U1-Boot)*%
X109117500Y-78742500D02*
X113745000Y-78742500D01*
X108000000Y-77625000D02*
X109117500Y-78742500D01*
%TO.N,Net-(U1-SW)*%
X108000000Y-74500000D02*
X108000000Y-72000000D01*
X108882500Y-73617500D02*
X108000000Y-74500000D01*
X106500000Y-72000000D02*
X105000000Y-73500000D01*
X108000000Y-72000000D02*
X106500000Y-72000000D01*
X108000000Y-72000000D02*
X108000000Y-70380000D01*
X113745000Y-73617500D02*
X108882500Y-73617500D01*
X105000000Y-73500000D02*
X105000000Y-82500000D01*
X105000000Y-82500000D02*
X107500000Y-85000000D01*
X107500000Y-85000000D02*
X107500000Y-86250000D01*
%TO.N,/Vout_DA15*%
X114750000Y-64170000D02*
X115000000Y-64420000D01*
%TO.N,Net-(U5-IN)*%
X141047179Y-126609679D02*
X141937500Y-127500000D01*
X138422033Y-126609679D02*
X141047179Y-126609679D01*
%TO.N,Net-(U5-COM)*%
X135000000Y-119062500D02*
X135000000Y-121000000D01*
X135000000Y-121000000D02*
X135500000Y-121500000D01*
X135500000Y-121500000D02*
X142070000Y-121500000D01*
X142070000Y-121500000D02*
X142595000Y-120975000D01*
%TO.N,Net-(R5-Pad2)*%
X187500000Y-82500000D02*
X187500000Y-79950000D01*
X185050000Y-73000000D02*
X186500000Y-73000000D01*
X188275000Y-73000000D02*
X188525000Y-73250000D01*
X185050000Y-77500000D02*
X188275000Y-77500000D01*
X188275000Y-77500000D02*
X188525000Y-77750000D01*
X186500000Y-73000000D02*
X188275000Y-73000000D01*
X188525000Y-77750000D02*
X188525000Y-73250000D01*
X187500000Y-79950000D02*
X185050000Y-77500000D01*
X188550000Y-73225000D02*
X188525000Y-73250000D01*
D50*
%TO.N,/J2-11*%
X142405000Y-69525000D02*
X143475000Y-69525000D01*
X143475000Y-69525000D02*
X143950000Y-69050000D01*
X149500000Y-69000000D02*
X149450000Y-69000000D01*
X149400000Y-69050000D02*
X147000000Y-69050000D01*
X149450000Y-69000000D02*
X149400000Y-69050000D01*
X143950000Y-69050000D02*
X147000000Y-69050000D01*
X152500000Y-66000000D02*
X149500000Y-69000000D01*
%TO.N,/J2-5*%
X134000000Y-65950000D02*
X134000000Y-65450000D01*
X139865000Y-66365000D02*
X138500000Y-65000000D01*
X138000000Y-65000000D02*
X138500000Y-65000000D01*
X134000000Y-65450000D02*
X135500000Y-63950000D01*
X139305000Y-60743348D02*
X139305000Y-61120000D01*
X136950000Y-63950000D02*
X138000000Y-65000000D01*
X139865000Y-69525000D02*
X139865000Y-66365000D01*
X135500000Y-63950000D02*
X136950000Y-63950000D01*
D51*
%TO.N,Net-(JMP2-B)*%
X127050000Y-121500000D02*
X127050000Y-123000000D01*
X127000000Y-119000000D02*
X127050000Y-119050000D01*
%TO.N,Net-(JMP3-B)*%
X140500000Y-119000000D02*
X138550000Y-119000000D01*
X140875000Y-118625000D02*
X140500000Y-119000000D01*
X138550000Y-119000000D02*
X138500000Y-119050000D01*
X167920000Y-93000000D02*
X161950000Y-93000000D01*
X159550000Y-93500000D02*
X156250000Y-93500000D01*
X161450000Y-93500000D02*
X159550000Y-93500000D01*
D50*
%TO.N,/J2-13*%
X134000000Y-69050000D02*
X130050000Y-69050000D01*
X130050000Y-69050000D02*
X128000000Y-67000000D01*
D51*
%TO.N,Net-(U5-CLK)*%
X138500000Y-112500000D02*
X138500000Y-115950000D01*
X142520000Y-115950000D02*
X142595000Y-116025000D01*
X138500000Y-115950000D02*
X142520000Y-115950000D01*
%TO.N,Net-(R8-Pad2)*%
X133922033Y-123509679D02*
X138422033Y-123509679D01*
%TO.N,Net-(R12-Pad1)*%
X166650000Y-103400000D02*
X166650000Y-105500000D01*
X156000000Y-103500000D02*
X157000000Y-102500000D01*
X165750000Y-102500000D02*
X166650000Y-103400000D01*
X156000000Y-106950000D02*
X156000000Y-103500000D01*
X157000000Y-102500000D02*
X165750000Y-102500000D01*
%TO.N,Net-(U4-VBIAS)*%
X144500000Y-104500000D02*
X144424000Y-104576000D01*
D50*
X144424000Y-104576000D02*
X137700000Y-104576000D01*
D51*
%TO.N,Net-(U5-OUT)*%
X160500000Y-114500000D02*
X161500000Y-113500000D01*
X146405000Y-116025000D02*
X152475000Y-116025000D01*
X153500000Y-116000000D02*
X156000000Y-116000000D01*
X152475000Y-116025000D02*
X152500000Y-116000000D01*
X157500000Y-114500000D02*
X160500000Y-114500000D01*
X152500000Y-116000000D02*
X153500000Y-116000000D01*
X163500000Y-113500000D02*
X164365000Y-114365000D01*
X161500000Y-113500000D02*
X163500000Y-113500000D01*
X156000000Y-116000000D02*
X157500000Y-114500000D01*
X164365000Y-114365000D02*
X164365000Y-116025000D01*
%TO.N,Net-(U6--IN)*%
X165635000Y-111135000D02*
X165635000Y-116025000D01*
X173000000Y-111500000D02*
X166000000Y-111500000D01*
X166000000Y-111500000D02*
X165635000Y-111135000D01*
%TO.N,Net-(R11-Pad2)*%
X159500000Y-106950000D02*
X159500000Y-105000000D01*
X159500000Y-105000000D02*
X163850000Y-105000000D01*
X159550000Y-107000000D02*
X159500000Y-106950000D01*
X163850000Y-105000000D02*
X164350000Y-105500000D01*
%TO.N,V3.3_D*%
X181000000Y-73000000D02*
X181950000Y-73000000D01*
X163293750Y-85150000D02*
X165031250Y-83412500D01*
X167000000Y-83412500D02*
X169468750Y-83412500D01*
X173468750Y-83350000D02*
X173531250Y-83412500D01*
X179721875Y-77221875D02*
X179721875Y-74278125D01*
X138595000Y-74475000D02*
X137037500Y-74475000D01*
X165031250Y-83412500D02*
X167000000Y-83412500D01*
X169531250Y-83350000D02*
X173468750Y-83350000D01*
X179721875Y-74278125D02*
X181000000Y-73000000D01*
X173531250Y-83412500D02*
X179721875Y-77221875D01*
X136500000Y-73937500D02*
X135500000Y-73937500D01*
X167000000Y-85381250D02*
X165031250Y-83412500D01*
X158800000Y-85150000D02*
X163293750Y-85150000D01*
X167000000Y-87000000D02*
X167000000Y-85381250D01*
X137037500Y-74475000D02*
X136500000Y-73937500D01*
X169468750Y-83412500D02*
X169531250Y-83350000D01*
%TO.N,/MB1-14*%
X183500000Y-62000000D02*
X185300000Y-63800000D01*
X178000000Y-62000000D02*
X183500000Y-62000000D01*
X163550000Y-72000000D02*
X168000000Y-72000000D01*
X168000000Y-72000000D02*
X178000000Y-62000000D01*
%TO.N,/MB1-13*%
X187840000Y-63840000D02*
X187840000Y-63940000D01*
X163550000Y-69000000D02*
X167500000Y-69000000D01*
X167500000Y-69000000D02*
X176500000Y-60000000D01*
X176500000Y-60000000D02*
X184000000Y-60000000D01*
X184000000Y-60000000D02*
X187840000Y-63840000D01*
D50*
%TO.N,/J2-4*%
X142074999Y-60743348D02*
X142074999Y-61074999D01*
X141135000Y-69525000D02*
X141135000Y-66365000D01*
X147000000Y-65950000D02*
X147000000Y-65450000D01*
X145050000Y-64000000D02*
X147000000Y-65950000D01*
X141135000Y-66365000D02*
X142500000Y-65000000D01*
X142500000Y-65000000D02*
X143500000Y-64000000D01*
X143500000Y-64000000D02*
X145050000Y-64000000D01*
D51*
%TO.N,/VBIAS*%
X159500000Y-110050000D02*
X156987500Y-112562500D01*
X156987500Y-112562500D02*
X147500000Y-112562500D01*
%TO.N,/MB2-16*%
X180260000Y-93000000D02*
X170460000Y-93000000D01*
%TO.N,/MB1*%
X180220000Y-79230000D02*
X181950000Y-77500000D01*
X180220000Y-87040000D02*
X180220000Y-79230000D01*
%TO.N,/MB2-1*%
X180500000Y-122000000D02*
X180500000Y-116280000D01*
X185500000Y-122000000D02*
X180500000Y-122000000D01*
X180500000Y-116280000D02*
X180260000Y-116040000D01*
X166500000Y-127000000D02*
X180500000Y-127000000D01*
X164365000Y-120975000D02*
X164365000Y-124865000D01*
X164365000Y-124865000D02*
X166500000Y-127000000D01*
X180500000Y-127000000D02*
X180500000Y-122000000D01*
%TO.N,Net-(R_inf1-Pad1)*%
X167880000Y-121000000D02*
X166930000Y-121000000D01*
X168880000Y-120000000D02*
X167880000Y-121000000D01*
X170000000Y-120000000D02*
X168880000Y-120000000D01*
X166930000Y-121000000D02*
X166905000Y-120975000D01*
%TO.N,Net-(R_inf1-Pad2)*%
X168000000Y-116000000D02*
X166930000Y-116000000D01*
X166930000Y-116000000D02*
X166905000Y-116025000D01*
X170000000Y-116900000D02*
X168900000Y-116900000D01*
X168900000Y-116900000D02*
X168000000Y-116000000D01*
D50*
%TO.N,/RX*%
X155867882Y-74165158D02*
X156500000Y-73533040D01*
X156500000Y-73533040D02*
X156500000Y-72500000D01*
X157000000Y-72000000D02*
X160450000Y-72000000D01*
X156500000Y-72500000D02*
X157000000Y-72000000D01*
%TO.N,/TX*%
X158000000Y-66000000D02*
X158000000Y-69000000D01*
X158000000Y-69000000D02*
X157000000Y-69000000D01*
X157000000Y-69000000D02*
X160450000Y-69000000D01*
D51*
%TO.N,/VBIAS*%
X147500000Y-112562500D02*
X146937500Y-112562500D01*
X146937500Y-112562500D02*
X145135000Y-114365000D01*
X145135000Y-114365000D02*
X145135000Y-116025000D01*
%TO.N,AGND*%
X196475000Y-73250000D02*
X196475000Y-77750000D01*
%TO.N,V3.3_D*%
X179721875Y-77221875D02*
X178943750Y-78000000D01*
X178943750Y-78000000D02*
X164512932Y-78000000D01*
X138595000Y-77595000D02*
X138595000Y-74475000D01*
X164111928Y-77599000D02*
X163012928Y-76500000D01*
X164512932Y-78000000D02*
X164111931Y-77599000D01*
X163012928Y-76500000D02*
X153230818Y-76500000D01*
X153230818Y-76500000D02*
X151230818Y-78500000D01*
X164111931Y-77599000D02*
X164111928Y-77599000D01*
X151230818Y-78500000D02*
X139500000Y-78500000D01*
X139500000Y-78500000D02*
X138595000Y-77595000D01*
%TD*%
%TA.AperFunction,Conductor*%
%TO.N,+5V*%
G36*
X117560059Y-79353011D02*
G01*
X117565550Y-79358502D01*
X118003651Y-80272187D01*
X118004769Y-80278110D01*
X117955803Y-80939164D01*
X117951774Y-80947162D01*
X117944135Y-80950000D01*
X117165865Y-80950000D01*
X117157592Y-80946573D01*
X117154197Y-80939164D01*
X117105230Y-80278110D01*
X117106347Y-80272189D01*
X117544450Y-79358501D01*
X117551117Y-79352524D01*
X117560059Y-79353011D01*
G37*
%TD.AperFunction*%
%TD*%
M02*
