%TF.GenerationSoftware,KiCad,Pcbnew,9.0.4*%
%TF.CreationDate,2025-10-24T10:45:45+02:00*%
%TF.ProjectId,ELE340_GRNS,454c4533-3430-45f4-9752-4e532e6b6963,V3.1*%
%TF.SameCoordinates,Original*%
%TF.FileFunction,Copper,L2,Bot*%
%TF.FilePolarity,Positive*%
%FSLAX46Y46*%
G04 Gerber Fmt 4.6, Leading zero omitted, Abs format (unit mm)*
G04 Created by KiCad (PCBNEW 9.0.4) date 2025-10-24 10:45:45*
%MOMM*%
%LPD*%
G01*
G04 APERTURE LIST*
%TA.AperFunction,ComponentPad*%
%ADD10C,2.800000*%
%TD*%
%TA.AperFunction,ComponentPad*%
%ADD11R,2.100000X2.100000*%
%TD*%
%TA.AperFunction,ComponentPad*%
%ADD12C,2.200000*%
%TD*%
%TA.AperFunction,ComponentPad*%
%ADD13C,2.000000*%
%TD*%
%TA.AperFunction,ComponentPad*%
%ADD14R,2.200000X2.200000*%
%TD*%
%TA.AperFunction,ComponentPad*%
%ADD15C,1.800000*%
%TD*%
%TA.AperFunction,ComponentPad*%
%ADD16C,1.400000*%
%TD*%
%TA.AperFunction,ComponentPad*%
%ADD17C,2.400000*%
%TD*%
%TA.AperFunction,ComponentPad*%
%ADD18C,2.500000*%
%TD*%
%TA.AperFunction,ComponentPad*%
%ADD19C,4.000000*%
%TD*%
%TA.AperFunction,ComponentPad*%
%ADD20R,2.600000X2.600000*%
%TD*%
%TA.AperFunction,ComponentPad*%
%ADD21C,2.600000*%
%TD*%
%TA.AperFunction,ViaPad*%
%ADD22C,2.000000*%
%TD*%
%TA.AperFunction,Conductor*%
%ADD23C,1.000000*%
%TD*%
%TA.AperFunction,Conductor*%
%ADD24C,0.600000*%
%TD*%
G04 APERTURE END LIST*
D10*
%TO.P,TP12,1,1*%
%TO.N,Net-(JMP2-B)*%
X127000000Y-119000000D03*
%TD*%
D11*
%TO.P,JMP2,1,A*%
%TO.N,Net-(J3-Pin_3)*%
X124500000Y-114500000D03*
D12*
%TO.P,JMP2,2,B*%
%TO.N,Net-(JMP2-B)*%
X127040000Y-114500000D03*
%TD*%
D10*
%TO.P,TG2,1,1*%
%TO.N,AGND*%
X122500000Y-67000000D03*
%TD*%
%TO.P,TP11,1,1*%
%TO.N,Net-(U4-VBIAS)*%
X144500000Y-104500000D03*
%TD*%
D13*
%TO.P,,1*%
%TO.N,AGND*%
X128000000Y-128000000D03*
%TD*%
D10*
%TO.P,TP13,1,1*%
%TO.N,Net-(U5-CLK)*%
X138500000Y-112500000D03*
%TD*%
D14*
%TO.P,MB1,1,Pin_1*%
%TO.N,/MB1*%
X180220000Y-86890000D03*
D12*
%TO.P,MB1,2,Pin_2*%
%TO.N,unconnected-(MB1A-Pin_2-Pad2)*%
X182760000Y-86890000D03*
%TO.P,MB1,3,Pin_3*%
%TO.N,unconnected-(MB1A-Pin_3-Pad3)*%
X185300000Y-86890000D03*
%TO.P,MB1,4,Pin_4*%
%TO.N,unconnected-(MB1A-Pin_4-Pad4)*%
X187840000Y-86890000D03*
%TO.P,MB1,5,Pin_5*%
%TO.N,unconnected-(MB1A-Pin_5-Pad5)*%
X190380000Y-86890000D03*
%TO.P,MB1,6,Pin_6*%
%TO.N,unconnected-(MB1A-Pin_6-Pad6)*%
X192920000Y-86890000D03*
%TO.P,MB1,7,Pin_7*%
%TO.N,unconnected-(MB1A-Pin_7-Pad7)*%
X195460000Y-86890000D03*
%TO.P,MB1,8,Pin_8*%
%TO.N,AGND*%
X198000000Y-86890000D03*
%TO.P,MB1,9,Pin_9*%
X198000000Y-64030000D03*
%TO.P,MB1,10,Pin_10*%
%TO.N,+5V*%
X195460000Y-64030000D03*
%TO.P,MB1,11,Pin_11*%
%TO.N,unconnected-(MB1B-Pin_11-Pad11)*%
X192920000Y-64030000D03*
%TO.P,MB1,12,Pin_12*%
%TO.N,unconnected-(MB1B-Pin_12-Pad12)*%
X190380000Y-64030000D03*
%TO.P,MB1,13,Pin_13*%
%TO.N,/MB1-13*%
X187840000Y-64030000D03*
%TO.P,MB1,14,Pin_14*%
%TO.N,/MB1-14*%
X185300000Y-64030000D03*
%TO.P,MB1,15,Pin_15*%
%TO.N,unconnected-(MB1B-Pin_15-Pad15)*%
X182760000Y-64030000D03*
D14*
%TO.P,MB1,16,Pin_16*%
%TO.N,unconnected-(MB1B-Pin_16-Pad16)*%
X180220000Y-64030000D03*
%TD*%
D10*
%TO.P,TP5,1,1*%
%TO.N,/RX*%
X155867882Y-74165158D03*
%TD*%
D13*
%TO.P,,1*%
%TO.N,AGND*%
X145256212Y-124828237D03*
%TD*%
D11*
%TO.P,JMP1,1,1*%
%TO.N,/Vin_DA15*%
X115000000Y-69500000D03*
D12*
%TO.P,JMP1,2,2*%
%TO.N,Net-(TVS1-A1)*%
X115000000Y-66960000D03*
%TO.P,JMP1,3,3*%
%TO.N,/Vout_DA15*%
X115000000Y-64420000D03*
%TD*%
D10*
%TO.P,TP9,1,1*%
%TO.N,Net-(R5-Pad2)*%
X187500000Y-82500000D03*
%TD*%
D12*
%TO.P,,9,Pin_9*%
%TO.N,AGND*%
X148000000Y-107000000D03*
%TD*%
D10*
%TO.P,TP2,1,1*%
%TO.N,V3.3_D*%
X167000000Y-87000000D03*
%TD*%
%TO.P,TP6,1,1*%
%TO.N,/J2-11*%
X152500000Y-66000000D03*
%TD*%
D12*
%TO.P,,9,Pin_9*%
%TO.N,AGND*%
X145500000Y-100000000D03*
%TD*%
D10*
%TO.P,TG1,1,1*%
%TO.N,AGND*%
X104500000Y-66000000D03*
%TD*%
%TO.P,TP8,1,1*%
%TO.N,/TX*%
X158000000Y-66000000D03*
%TD*%
%TO.P,TP7,1,1*%
%TO.N,/J2-4*%
X142500000Y-65000000D03*
%TD*%
%TO.P,TP4,1,1*%
%TO.N,/J2-5*%
X138500000Y-65000000D03*
%TD*%
%TO.P,TP10,1,1*%
%TO.N,V3.3_A*%
X131500000Y-112500000D03*
%TD*%
D15*
%TO.P,J2,1,1*%
%TO.N,/Vout_DA15*%
X150384998Y-60743348D03*
D16*
%TO.P,J2,2,2*%
%TO.N,AGND*%
X147614999Y-60743348D03*
D15*
%TO.P,J2,3,3*%
X144844999Y-60743348D03*
D17*
%TO.P,J2,4,4*%
%TO.N,/J2-4*%
X142074999Y-60743348D03*
%TO.P,J2,5,5*%
%TO.N,/J2-5*%
X139305000Y-60743348D03*
D16*
%TO.P,J2,6,6*%
%TO.N,AGND*%
X136535000Y-60743348D03*
D15*
%TO.P,J2,7,7*%
X133765001Y-60743348D03*
D17*
%TO.P,J2,8,8*%
%TO.N,/Vin_DA15*%
X130995001Y-60743348D03*
D15*
%TO.P,J2,9,9*%
%TO.N,/Vout_DA15*%
X149000000Y-57903349D03*
%TO.P,J2,10,10*%
%TO.N,AGND*%
X146230000Y-57903349D03*
D18*
%TO.P,J2,11,11*%
%TO.N,/J2-11*%
X143460001Y-57903349D03*
D15*
%TO.P,J2,12,12*%
%TO.N,AGND*%
X140690001Y-57903349D03*
D18*
%TO.P,J2,13,13*%
%TO.N,/J2-13*%
X137920001Y-57903349D03*
D15*
%TO.P,J2,14,14*%
%TO.N,AGND*%
X135150002Y-57903349D03*
D17*
%TO.P,J2,15,15*%
%TO.N,/Vin_DA15*%
X132380002Y-57903349D03*
D19*
%TO.P,J2,16,16*%
%TO.N,AGND*%
X124027601Y-59323348D03*
%TO.P,J2,17*%
%TO.N,N/C*%
X157352401Y-59323348D03*
%TD*%
D11*
%TO.P,JMP3,1,A*%
%TO.N,/MB2-16*%
X170460000Y-93000000D03*
D12*
%TO.P,JMP3,2,B*%
%TO.N,Net-(JMP3-B)*%
X167920000Y-93000000D03*
%TD*%
D10*
%TO.P,TP3,1,1*%
%TO.N,/J2-13*%
X128000000Y-67000000D03*
%TD*%
%TO.P,TGA1,1,1*%
%TO.N,AGND*%
X172500000Y-104000000D03*
%TD*%
%TO.P,TP15,1,1*%
%TO.N,Net-(U6--IN)*%
X173000000Y-111500000D03*
%TD*%
%TO.P,TP16,1,1*%
%TO.N,AGND*%
X159500000Y-118500000D03*
%TD*%
%TO.P,TP14,1,1*%
%TO.N,Net-(U5-OUT)*%
X153500000Y-116000000D03*
%TD*%
%TO.P,TP1,1,1*%
%TO.N,+5V*%
X137000000Y-90000000D03*
%TD*%
%TO.P,TP17,1,1*%
%TO.N,/MB2-1*%
X185500000Y-122000000D03*
%TD*%
D13*
%TO.P,,1*%
%TO.N,AGND*%
X120356437Y-112874316D03*
%TD*%
D20*
%TO.P,J1,1,1*%
%TO.N,/Vout_DA15*%
X114750000Y-60112500D03*
D21*
%TO.P,J1,2,2*%
%TO.N,AGND*%
X111250000Y-60112500D03*
%TD*%
D20*
%TO.P,J3,1,Pin_1*%
%TO.N,+5V*%
X111000000Y-119887500D03*
D21*
%TO.P,J3,2,Pin_2*%
%TO.N,AGND*%
X114500000Y-119887500D03*
%TO.P,J3,3,Pin_3*%
%TO.N,Net-(J3-Pin_3)*%
X118000000Y-119887500D03*
%TD*%
D14*
%TO.P,MB2,1,Pin_1*%
%TO.N,/MB2-1*%
X180260000Y-115970000D03*
D12*
%TO.P,MB2,2,Pin_2*%
%TO.N,unconnected-(MB2A-Pin_2-Pad2)*%
X182800000Y-115970000D03*
%TO.P,MB2,3,Pin_3*%
%TO.N,unconnected-(MB2A-Pin_3-Pad3)*%
X185340000Y-115970000D03*
%TO.P,MB2,4,Pin_4*%
%TO.N,unconnected-(MB2A-Pin_4-Pad4)*%
X187880000Y-115970000D03*
%TO.P,MB2,5,Pin_5*%
%TO.N,unconnected-(MB2A-Pin_5-Pad5)*%
X190420000Y-115970000D03*
%TO.P,MB2,6,Pin_6*%
%TO.N,unconnected-(MB2A-Pin_6-Pad6)*%
X192960000Y-115970000D03*
%TO.P,MB2,7,Pin_7*%
%TO.N,unconnected-(MB2A-Pin_7-Pad7)*%
X195500000Y-115970000D03*
%TO.P,MB2,8,Pin_8*%
%TO.N,AGND*%
X198040000Y-115970000D03*
%TO.P,MB2,9,Pin_9*%
X198040000Y-93110000D03*
%TO.P,MB2,10,Pin_10*%
%TO.N,+5V*%
X195500000Y-93110000D03*
%TO.P,MB2,11,Pin_11*%
%TO.N,unconnected-(MB2B-Pin_11-Pad11)*%
X192960000Y-93110000D03*
%TO.P,MB2,12,Pin_12*%
%TO.N,unconnected-(MB2B-Pin_12-Pad12)*%
X190420000Y-93110000D03*
%TO.P,MB2,13,Pin_13*%
%TO.N,unconnected-(MB2B-Pin_13-Pad13)*%
X187880000Y-93110000D03*
%TO.P,MB2,14,Pin_14*%
%TO.N,unconnected-(MB2B-Pin_14-Pad14)*%
X185340000Y-93110000D03*
%TO.P,MB2,15,Pin_15*%
%TO.N,unconnected-(MB2B-Pin_15-Pad15)*%
X182800000Y-93110000D03*
D14*
%TO.P,MB2,16,Pin_16*%
%TO.N,/MB2-16*%
X180260000Y-93110000D03*
%TD*%
D22*
%TO.N,AGND*%
X135000000Y-113250000D03*
X177500000Y-124500000D03*
X145000000Y-72500000D03*
X120500000Y-77000000D03*
X127000000Y-102937500D03*
X160500000Y-99500000D03*
%TO.N,+5V*%
X176250000Y-90000000D03*
X111000000Y-113000000D03*
%TO.N,Net-(TVS1-A1)*%
X111000000Y-71500000D03*
%TO.N,V3.3_A*%
X149000000Y-124000000D03*
X168072477Y-124387476D03*
%TO.N,Net-(JMP3-B)*%
X140875000Y-118625000D03*
X156250000Y-93500000D03*
%TD*%
D23*
%TO.N,V3.3_A*%
X149000000Y-124000000D02*
X149500000Y-124500000D01*
X149500000Y-124500000D02*
X165000000Y-124500000D01*
X165000000Y-124500000D02*
X165112524Y-124387476D01*
X165112524Y-124387476D02*
X168072477Y-124387476D01*
%TO.N,+5V*%
X176250000Y-85250000D02*
X176250000Y-90000000D01*
X195460000Y-63940000D02*
X195460000Y-66040000D01*
X111000000Y-113000000D02*
X111000000Y-119887500D01*
X195460000Y-66040000D02*
X176250000Y-85250000D01*
%TO.N,Net-(TVS1-A1)*%
X112000000Y-68000000D02*
X113040000Y-66960000D01*
X111000000Y-71500000D02*
X112000000Y-70500000D01*
X113040000Y-66960000D02*
X115000000Y-66960000D01*
X112000000Y-70500000D02*
X112000000Y-68000000D01*
%TO.N,/Vout_DA15*%
X149000000Y-59358350D02*
X150384998Y-60743348D01*
X149000000Y-57903349D02*
X149000000Y-59358350D01*
X114750000Y-60112500D02*
X114750000Y-64170000D01*
X114750000Y-60112500D02*
X120362500Y-54500000D01*
X145596651Y-54500000D02*
X149000000Y-57903349D01*
X120362500Y-54500000D02*
X145596651Y-54500000D01*
X114750000Y-64170000D02*
X115000000Y-64420000D01*
D24*
%TO.N,/J2-11*%
X150314349Y-66000000D02*
X146303506Y-61989157D01*
X146303506Y-60125988D02*
X144080867Y-57903349D01*
X144080867Y-57903349D02*
X143460001Y-57903349D01*
X146303506Y-61989157D02*
X146303506Y-60125988D01*
X152500000Y-66000000D02*
X150314349Y-66000000D01*
D23*
%TO.N,/J2-5*%
X139305000Y-60743348D02*
X139305000Y-64195000D01*
D24*
X138000000Y-64500000D02*
X138000000Y-64000000D01*
X139305000Y-64195000D02*
X138500000Y-65000000D01*
X138500000Y-65000000D02*
X138000000Y-64500000D01*
X139000000Y-61048348D02*
X139305000Y-60743348D01*
D23*
%TO.N,Net-(JMP2-B)*%
X126500000Y-115040000D02*
X126500000Y-115500000D01*
X127000000Y-116000000D02*
X127000000Y-119000000D01*
X126500000Y-115500000D02*
X127000000Y-116000000D01*
X127040000Y-114500000D02*
X126500000Y-115040000D01*
%TO.N,Net-(JMP3-B)*%
X140875000Y-118625000D02*
X156000000Y-103500000D01*
X156000000Y-103500000D02*
X156000000Y-93750000D01*
X156000000Y-93750000D02*
X156250000Y-93500000D01*
%TO.N,/Vin_DA15*%
X130500000Y-63000000D02*
X118500000Y-63000000D01*
X130995001Y-62504999D02*
X130500000Y-63000000D01*
X130995001Y-60743348D02*
X130995001Y-59288350D01*
X116500000Y-69500000D02*
X115000000Y-69500000D01*
X130995001Y-60743348D02*
X130995001Y-62504999D01*
X118500000Y-63000000D02*
X117000000Y-64500000D01*
X117000000Y-69000000D02*
X116500000Y-69500000D01*
X130995001Y-59288350D02*
X132380002Y-57903349D01*
X117000000Y-64500000D02*
X117000000Y-69000000D01*
D24*
%TO.N,/J2-13*%
X135226315Y-62273685D02*
X135226315Y-60044846D01*
X135226315Y-60044846D02*
X137367812Y-57903349D01*
X137367812Y-57903349D02*
X137920001Y-57903349D01*
X128000000Y-67000000D02*
X129000000Y-66000000D01*
X131500000Y-66000000D02*
X135226315Y-62273685D01*
X129000000Y-66000000D02*
X131500000Y-66000000D01*
%TO.N,/J2-4*%
X142500000Y-61168349D02*
X142074999Y-60743348D01*
D23*
X142074999Y-60743348D02*
X142074999Y-64574999D01*
D24*
X142074999Y-64574999D02*
X142500000Y-65000000D01*
D23*
%TO.N,Net-(J3-Pin_3)*%
X119072500Y-119887500D02*
X124460000Y-114500000D01*
X118000000Y-119887500D02*
X119072500Y-119887500D01*
X124460000Y-114500000D02*
X124500000Y-114500000D01*
%TD*%
%TA.AperFunction,Conductor*%
%TO.N,AGND*%
G36*
X197003243Y-50000669D02*
G01*
X197280182Y-50015184D01*
X197287575Y-50015794D01*
X197349875Y-50022813D01*
X197355353Y-50023555D01*
X197597128Y-50061848D01*
X197605289Y-50063423D01*
X197660830Y-50076100D01*
X197665181Y-50077179D01*
X197908157Y-50142284D01*
X197916999Y-50145013D01*
X197959629Y-50159930D01*
X197963079Y-50161195D01*
X198209378Y-50255739D01*
X198218711Y-50259770D01*
X198239307Y-50269689D01*
X198241754Y-50270900D01*
X198493968Y-50399411D01*
X198505203Y-50405898D01*
X198757608Y-50569812D01*
X198768109Y-50577441D01*
X199002010Y-50766850D01*
X199011655Y-50775535D01*
X199224464Y-50988344D01*
X199233149Y-50997989D01*
X199422558Y-51231890D01*
X199430187Y-51242391D01*
X199594101Y-51494796D01*
X199600591Y-51506036D01*
X199729075Y-51758199D01*
X199730309Y-51760691D01*
X199740223Y-51781277D01*
X199744268Y-51790643D01*
X199838791Y-52036887D01*
X199840068Y-52040369D01*
X199854985Y-52082999D01*
X199857719Y-52091860D01*
X199922806Y-52334766D01*
X199923923Y-52339269D01*
X199936569Y-52394679D01*
X199938150Y-52402872D01*
X199976440Y-52644627D01*
X199977187Y-52650142D01*
X199984204Y-52712424D01*
X199984814Y-52719816D01*
X199999330Y-52996755D01*
X199999500Y-53003246D01*
X199999500Y-126996753D01*
X199999330Y-127003244D01*
X199984814Y-127280182D01*
X199984204Y-127287574D01*
X199977187Y-127349856D01*
X199976440Y-127355371D01*
X199938150Y-127597126D01*
X199936569Y-127605319D01*
X199923923Y-127660729D01*
X199922806Y-127665232D01*
X199857719Y-127908138D01*
X199854985Y-127916999D01*
X199840068Y-127959629D01*
X199838791Y-127963111D01*
X199744268Y-128209355D01*
X199740223Y-128218721D01*
X199730309Y-128239307D01*
X199729075Y-128241799D01*
X199600591Y-128493964D01*
X199594105Y-128505197D01*
X199508881Y-128636432D01*
X199430187Y-128757609D01*
X199422558Y-128768109D01*
X199233149Y-129002010D01*
X199224464Y-129011655D01*
X199011655Y-129224464D01*
X199002010Y-129233149D01*
X198768109Y-129422558D01*
X198757609Y-129430187D01*
X198505197Y-129594105D01*
X198493964Y-129600591D01*
X198241799Y-129729075D01*
X198239307Y-129730309D01*
X198218721Y-129740223D01*
X198209355Y-129744268D01*
X197963111Y-129838791D01*
X197959629Y-129840068D01*
X197916999Y-129854985D01*
X197908138Y-129857719D01*
X197665232Y-129922806D01*
X197660729Y-129923923D01*
X197605319Y-129936569D01*
X197597126Y-129938150D01*
X197355371Y-129976440D01*
X197349856Y-129977187D01*
X197287574Y-129984204D01*
X197280182Y-129984814D01*
X197003244Y-129999330D01*
X196996753Y-129999500D01*
X103003246Y-129999500D01*
X102996757Y-129999330D01*
X102986676Y-129998801D01*
X102719816Y-129984814D01*
X102712424Y-129984204D01*
X102650142Y-129977187D01*
X102644627Y-129976440D01*
X102402872Y-129938150D01*
X102394679Y-129936569D01*
X102366044Y-129930033D01*
X102339245Y-129923917D01*
X102334766Y-129922806D01*
X102091860Y-129857719D01*
X102082999Y-129854985D01*
X102040369Y-129840068D01*
X102036887Y-129838791D01*
X101790643Y-129744268D01*
X101781277Y-129740223D01*
X101760691Y-129730309D01*
X101758199Y-129729075D01*
X101506036Y-129600591D01*
X101494796Y-129594101D01*
X101242391Y-129430187D01*
X101231890Y-129422558D01*
X100997989Y-129233149D01*
X100988344Y-129224464D01*
X100775535Y-129011655D01*
X100766850Y-129002010D01*
X100577441Y-128768109D01*
X100569812Y-128757608D01*
X100451746Y-128575802D01*
X100405896Y-128505199D01*
X100399408Y-128493963D01*
X100333223Y-128364068D01*
X100270900Y-128241754D01*
X100269689Y-128239307D01*
X100259775Y-128218721D01*
X100255739Y-128209378D01*
X100161195Y-127963079D01*
X100159930Y-127959629D01*
X100145013Y-127916999D01*
X100142284Y-127908157D01*
X100077179Y-127665181D01*
X100076100Y-127660830D01*
X100063423Y-127605289D01*
X100061848Y-127597126D01*
X100046465Y-127500000D01*
X100023555Y-127355353D01*
X100022811Y-127349856D01*
X100015794Y-127287574D01*
X100015184Y-127280181D01*
X100012173Y-127222738D01*
X100000670Y-127003243D01*
X100000500Y-126996753D01*
X100000500Y-125878711D01*
X102149500Y-125878711D01*
X102149500Y-126121288D01*
X102181161Y-126361785D01*
X102243947Y-126596104D01*
X102294368Y-126717830D01*
X102336776Y-126820212D01*
X102458064Y-127030289D01*
X102458066Y-127030292D01*
X102458067Y-127030293D01*
X102605733Y-127222736D01*
X102605739Y-127222743D01*
X102777256Y-127394260D01*
X102777262Y-127394265D01*
X102969711Y-127541936D01*
X103179788Y-127663224D01*
X103403900Y-127756054D01*
X103638211Y-127818838D01*
X103818586Y-127842584D01*
X103878711Y-127850500D01*
X103878712Y-127850500D01*
X104121289Y-127850500D01*
X104169388Y-127844167D01*
X104361789Y-127818838D01*
X104596100Y-127756054D01*
X104820212Y-127663224D01*
X105030289Y-127541936D01*
X105222738Y-127394265D01*
X105394265Y-127222738D01*
X105541936Y-127030289D01*
X105663224Y-126820212D01*
X105756054Y-126596100D01*
X105818838Y-126361789D01*
X105850500Y-126121288D01*
X105850500Y-125878712D01*
X105818838Y-125638211D01*
X105756054Y-125403900D01*
X105663224Y-125179788D01*
X105541936Y-124969711D01*
X105481018Y-124890321D01*
X105394266Y-124777263D01*
X105394260Y-124777256D01*
X105222743Y-124605739D01*
X105222736Y-124605733D01*
X105030293Y-124458067D01*
X105030292Y-124458066D01*
X105030289Y-124458064D01*
X104820212Y-124336776D01*
X104799597Y-124328237D01*
X104596104Y-124243947D01*
X104361785Y-124181161D01*
X104121289Y-124149500D01*
X104121288Y-124149500D01*
X103878712Y-124149500D01*
X103878711Y-124149500D01*
X103638214Y-124181161D01*
X103403895Y-124243947D01*
X103179794Y-124336773D01*
X103179785Y-124336777D01*
X102969706Y-124458067D01*
X102777263Y-124605733D01*
X102777256Y-124605739D01*
X102605739Y-124777256D01*
X102605733Y-124777263D01*
X102458067Y-124969706D01*
X102336777Y-125179785D01*
X102336773Y-125179794D01*
X102243947Y-125403895D01*
X102181161Y-125638214D01*
X102149500Y-125878711D01*
X100000500Y-125878711D01*
X100000500Y-118539635D01*
X109199500Y-118539635D01*
X109199500Y-121235370D01*
X109199501Y-121235376D01*
X109205908Y-121294983D01*
X109256202Y-121429828D01*
X109256206Y-121429835D01*
X109342452Y-121545044D01*
X109342455Y-121545047D01*
X109457664Y-121631293D01*
X109457671Y-121631297D01*
X109592517Y-121681591D01*
X109592516Y-121681591D01*
X109599444Y-121682335D01*
X109652127Y-121688000D01*
X112347872Y-121687999D01*
X112407483Y-121681591D01*
X112542331Y-121631296D01*
X112657546Y-121545046D01*
X112743796Y-121429831D01*
X112794091Y-121294983D01*
X112800500Y-121235373D01*
X112800499Y-120994787D01*
X112820183Y-120927751D01*
X112872987Y-120881996D01*
X112942146Y-120872052D01*
X112981191Y-120889883D01*
X113001320Y-120891204D01*
X113865098Y-120027426D01*
X113874979Y-120077098D01*
X113923978Y-120195390D01*
X113995112Y-120301851D01*
X114085649Y-120392388D01*
X114192110Y-120463522D01*
X114310402Y-120512521D01*
X114360072Y-120522401D01*
X113496293Y-121386178D01*
X113496293Y-121386179D01*
X113497821Y-121387352D01*
X113497826Y-121387355D01*
X113702164Y-121505331D01*
X113702180Y-121505339D01*
X113920163Y-121595629D01*
X113920161Y-121595629D01*
X114148085Y-121656700D01*
X114382014Y-121687499D01*
X114382029Y-121687500D01*
X114617971Y-121687500D01*
X114617985Y-121687499D01*
X114851914Y-121656700D01*
X115079837Y-121595629D01*
X115297819Y-121505339D01*
X115297828Y-121505334D01*
X115502176Y-121387352D01*
X115502185Y-121387347D01*
X115503704Y-121386180D01*
X115503705Y-121386178D01*
X114639927Y-120522401D01*
X114689598Y-120512521D01*
X114807890Y-120463522D01*
X114914351Y-120392388D01*
X115004888Y-120301851D01*
X115076022Y-120195390D01*
X115125021Y-120077098D01*
X115134900Y-120027427D01*
X115998678Y-120891205D01*
X115998680Y-120891204D01*
X115999847Y-120889685D01*
X115999852Y-120889676D01*
X116117834Y-120685328D01*
X116117835Y-120685327D01*
X116135167Y-120643483D01*
X116179007Y-120589079D01*
X116245301Y-120567013D01*
X116313001Y-120584291D01*
X116360612Y-120635428D01*
X116364290Y-120643480D01*
X116381716Y-120685549D01*
X116381719Y-120685556D01*
X116419841Y-120751584D01*
X116499727Y-120889950D01*
X116499728Y-120889951D01*
X116499730Y-120889954D01*
X116643406Y-121077197D01*
X116643412Y-121077204D01*
X116810295Y-121244087D01*
X116810302Y-121244093D01*
X116876629Y-121294987D01*
X116997550Y-121387773D01*
X117070397Y-121429831D01*
X117201943Y-121505780D01*
X117201948Y-121505782D01*
X117201951Y-121505784D01*
X117420007Y-121596106D01*
X117647986Y-121657193D01*
X117881989Y-121688000D01*
X117881996Y-121688000D01*
X118118004Y-121688000D01*
X118118011Y-121688000D01*
X118352014Y-121657193D01*
X118579993Y-121596106D01*
X118798049Y-121505784D01*
X119002450Y-121387773D01*
X119189699Y-121244092D01*
X119356592Y-121077199D01*
X119500273Y-120889950D01*
X119565703Y-120776620D01*
X119604195Y-120735523D01*
X119710282Y-120664639D01*
X119849639Y-120525282D01*
X119849639Y-120525280D01*
X119859847Y-120515073D01*
X119859848Y-120515070D01*
X121788320Y-118586598D01*
X121849642Y-118553115D01*
X121919334Y-118558099D01*
X121975267Y-118599971D01*
X121999684Y-118665435D01*
X122000000Y-118674281D01*
X122000000Y-129500000D01*
X123000000Y-129500000D01*
X123000000Y-127881947D01*
X126500000Y-127881947D01*
X126500000Y-128118052D01*
X126536934Y-128351247D01*
X126609897Y-128575802D01*
X126717089Y-128786178D01*
X126717827Y-128787195D01*
X126717830Y-128787195D01*
X127500000Y-128005025D01*
X127500000Y-128065826D01*
X127534075Y-128192993D01*
X127599901Y-128307007D01*
X127692993Y-128400099D01*
X127807007Y-128465925D01*
X127934174Y-128500000D01*
X127994974Y-128500000D01*
X127212803Y-129282170D01*
X127213828Y-129282914D01*
X127424197Y-129390102D01*
X127648752Y-129463065D01*
X127648751Y-129463065D01*
X127881948Y-129500000D01*
X128118052Y-129500000D01*
X128351247Y-129463065D01*
X128575802Y-129390102D01*
X128786171Y-129282914D01*
X128786175Y-129282911D01*
X128787195Y-129282170D01*
X128787195Y-129282168D01*
X128005026Y-128500000D01*
X128065826Y-128500000D01*
X128192993Y-128465925D01*
X128307007Y-128400099D01*
X128400099Y-128307007D01*
X128465925Y-128192993D01*
X128500000Y-128065826D01*
X128500000Y-128005027D01*
X129282168Y-128787195D01*
X129282170Y-128787195D01*
X129282911Y-128786175D01*
X129282914Y-128786171D01*
X129390102Y-128575802D01*
X129463065Y-128351247D01*
X129500000Y-128118052D01*
X129500000Y-127881947D01*
X129463065Y-127648752D01*
X129390102Y-127424197D01*
X129282914Y-127213828D01*
X129282170Y-127212803D01*
X128500000Y-127994973D01*
X128500000Y-127934174D01*
X128465925Y-127807007D01*
X128400099Y-127692993D01*
X128307007Y-127599901D01*
X128192993Y-127534075D01*
X128065826Y-127500000D01*
X128005027Y-127500000D01*
X128787195Y-126717830D01*
X128787195Y-126717827D01*
X128786178Y-126717089D01*
X128575802Y-126609897D01*
X128351247Y-126536934D01*
X128351248Y-126536934D01*
X128118052Y-126500000D01*
X127881948Y-126500000D01*
X127648752Y-126536934D01*
X127424197Y-126609897D01*
X127213833Y-126717083D01*
X127213830Y-126717084D01*
X127212803Y-126717829D01*
X127994974Y-127500000D01*
X127934174Y-127500000D01*
X127807007Y-127534075D01*
X127692993Y-127599901D01*
X127599901Y-127692993D01*
X127534075Y-127807007D01*
X127500000Y-127934174D01*
X127500000Y-127994974D01*
X126717829Y-127212803D01*
X126717084Y-127213830D01*
X126717083Y-127213833D01*
X126609897Y-127424197D01*
X126536934Y-127648752D01*
X126500000Y-127881947D01*
X123000000Y-127881947D01*
X123000000Y-124710184D01*
X143756212Y-124710184D01*
X143756212Y-124946289D01*
X143793146Y-125179484D01*
X143866109Y-125404039D01*
X143973301Y-125614415D01*
X143974039Y-125615432D01*
X143974042Y-125615432D01*
X144756212Y-124833262D01*
X144756212Y-124894063D01*
X144790287Y-125021230D01*
X144856113Y-125135244D01*
X144949205Y-125228336D01*
X145063219Y-125294162D01*
X145190386Y-125328237D01*
X145251186Y-125328237D01*
X144469015Y-126110407D01*
X144470040Y-126111151D01*
X144680409Y-126218339D01*
X144904964Y-126291302D01*
X144904963Y-126291302D01*
X145138160Y-126328237D01*
X145374264Y-126328237D01*
X145607459Y-126291302D01*
X145832014Y-126218339D01*
X146042383Y-126111151D01*
X146042387Y-126111148D01*
X146043407Y-126110407D01*
X146043407Y-126110405D01*
X145261238Y-125328237D01*
X145322038Y-125328237D01*
X145449205Y-125294162D01*
X145563219Y-125228336D01*
X145656311Y-125135244D01*
X145722137Y-125021230D01*
X145756212Y-124894063D01*
X145756212Y-124833263D01*
X146538380Y-125615432D01*
X146538382Y-125615432D01*
X146539123Y-125614412D01*
X146539126Y-125614408D01*
X146646314Y-125404039D01*
X146719277Y-125179484D01*
X146756212Y-124946289D01*
X146756212Y-124710184D01*
X146719277Y-124476989D01*
X146646314Y-124252434D01*
X146539126Y-124042065D01*
X146538382Y-124041040D01*
X145756212Y-124823210D01*
X145756212Y-124762411D01*
X145722137Y-124635244D01*
X145656311Y-124521230D01*
X145563219Y-124428138D01*
X145449205Y-124362312D01*
X145322038Y-124328237D01*
X145261239Y-124328237D01*
X145707573Y-123881902D01*
X147499500Y-123881902D01*
X147499500Y-124118097D01*
X147536446Y-124351368D01*
X147609433Y-124575996D01*
X147639622Y-124635244D01*
X147716657Y-124786433D01*
X147855483Y-124977510D01*
X148022490Y-125144517D01*
X148213567Y-125283343D01*
X148312991Y-125334002D01*
X148424003Y-125390566D01*
X148424005Y-125390566D01*
X148424008Y-125390568D01*
X148476615Y-125407661D01*
X148648631Y-125463553D01*
X148881903Y-125500500D01*
X148881908Y-125500500D01*
X149118091Y-125500500D01*
X149118092Y-125500500D01*
X149253976Y-125478978D01*
X149259410Y-125479084D01*
X149262302Y-125477946D01*
X149297482Y-125479828D01*
X149297546Y-125479830D01*
X149297549Y-125479830D01*
X149304812Y-125481275D01*
X149382129Y-125496655D01*
X149401458Y-125500500D01*
X149401459Y-125500500D01*
X165098542Y-125500500D01*
X165129566Y-125494328D01*
X165195188Y-125481275D01*
X165291836Y-125462051D01*
X165345165Y-125439961D01*
X165447884Y-125397413D01*
X165495333Y-125387976D01*
X166899588Y-125387976D01*
X166966627Y-125407661D01*
X166987269Y-125424295D01*
X167094967Y-125531993D01*
X167286044Y-125670819D01*
X167385468Y-125721478D01*
X167496480Y-125778042D01*
X167496482Y-125778042D01*
X167496485Y-125778044D01*
X167616889Y-125817165D01*
X167721108Y-125851029D01*
X167954380Y-125887976D01*
X167954385Y-125887976D01*
X168190574Y-125887976D01*
X168423845Y-125851029D01*
X168648469Y-125778044D01*
X168858910Y-125670819D01*
X169049987Y-125531993D01*
X169216994Y-125364986D01*
X169355820Y-125173909D01*
X169463045Y-124963468D01*
X169536030Y-124738844D01*
X169540569Y-124710184D01*
X169572977Y-124505573D01*
X169572977Y-124269378D01*
X169536030Y-124036107D01*
X169463043Y-123811479D01*
X169355819Y-123601042D01*
X169315877Y-123546067D01*
X169216994Y-123409966D01*
X169049987Y-123242959D01*
X168858910Y-123104133D01*
X168648473Y-122996909D01*
X168423845Y-122923922D01*
X168190574Y-122886976D01*
X168190569Y-122886976D01*
X167954385Y-122886976D01*
X167954380Y-122886976D01*
X167721108Y-122923922D01*
X167496480Y-122996909D01*
X167286043Y-123104133D01*
X167177027Y-123183338D01*
X167094967Y-123242959D01*
X167094965Y-123242961D01*
X167094964Y-123242961D01*
X166987269Y-123350657D01*
X166925946Y-123384142D01*
X166899588Y-123386976D01*
X165013979Y-123386976D01*
X164917336Y-123406200D01*
X164820691Y-123425423D01*
X164820685Y-123425425D01*
X164767358Y-123447513D01*
X164767358Y-123447514D01*
X164664641Y-123490061D01*
X164617190Y-123499500D01*
X150504692Y-123499500D01*
X150437653Y-123479815D01*
X150392972Y-123428250D01*
X150392780Y-123428349D01*
X150392384Y-123427571D01*
X150391898Y-123427011D01*
X150390720Y-123424306D01*
X150304852Y-123255781D01*
X150283343Y-123213567D01*
X150144517Y-123022490D01*
X149977510Y-122855483D01*
X149786433Y-122716657D01*
X149575996Y-122609433D01*
X149351368Y-122536446D01*
X149118097Y-122499500D01*
X149118092Y-122499500D01*
X148881908Y-122499500D01*
X148881903Y-122499500D01*
X148648631Y-122536446D01*
X148424003Y-122609433D01*
X148213566Y-122716657D01*
X148104550Y-122795862D01*
X148022490Y-122855483D01*
X148022488Y-122855485D01*
X148022487Y-122855485D01*
X147855485Y-123022487D01*
X147855485Y-123022488D01*
X147855483Y-123022490D01*
X147829592Y-123058126D01*
X147716657Y-123213566D01*
X147609433Y-123424003D01*
X147536446Y-123648631D01*
X147499500Y-123881902D01*
X145707573Y-123881902D01*
X145800120Y-123789355D01*
X146043407Y-123546067D01*
X146043407Y-123546064D01*
X146042390Y-123545326D01*
X145832014Y-123438134D01*
X145607459Y-123365171D01*
X145607460Y-123365171D01*
X145374264Y-123328237D01*
X145138160Y-123328237D01*
X144904964Y-123365171D01*
X144680409Y-123438134D01*
X144470045Y-123545320D01*
X144470042Y-123545321D01*
X144469015Y-123546066D01*
X145251186Y-124328237D01*
X145190386Y-124328237D01*
X145063219Y-124362312D01*
X144949205Y-124428138D01*
X144856113Y-124521230D01*
X144790287Y-124635244D01*
X144756212Y-124762411D01*
X144756212Y-124823210D01*
X143974041Y-124041040D01*
X143973296Y-124042067D01*
X143973295Y-124042070D01*
X143866109Y-124252434D01*
X143793146Y-124476989D01*
X143756212Y-124710184D01*
X123000000Y-124710184D01*
X123000000Y-121875441D01*
X183599500Y-121875441D01*
X183599500Y-122124558D01*
X183599501Y-122124575D01*
X183632017Y-122371561D01*
X183696498Y-122612207D01*
X183791830Y-122842361D01*
X183791837Y-122842376D01*
X183916400Y-123058126D01*
X184068060Y-123255774D01*
X184068066Y-123255781D01*
X184244218Y-123431933D01*
X184244225Y-123431939D01*
X184441873Y-123583599D01*
X184657623Y-123708162D01*
X184657638Y-123708169D01*
X184756825Y-123749253D01*
X184887793Y-123803502D01*
X185128435Y-123867982D01*
X185375435Y-123900500D01*
X185375442Y-123900500D01*
X185624558Y-123900500D01*
X185624565Y-123900500D01*
X185871565Y-123867982D01*
X186112207Y-123803502D01*
X186342373Y-123708164D01*
X186558127Y-123583599D01*
X186755776Y-123431938D01*
X186931938Y-123255776D01*
X187083599Y-123058127D01*
X187208164Y-122842373D01*
X187303502Y-122612207D01*
X187367982Y-122371565D01*
X187400500Y-122124565D01*
X187400500Y-121875435D01*
X187367982Y-121628435D01*
X187303502Y-121387793D01*
X187240369Y-121235376D01*
X187208169Y-121157638D01*
X187208162Y-121157623D01*
X187083599Y-120941873D01*
X186931939Y-120744225D01*
X186931933Y-120744218D01*
X186755781Y-120568066D01*
X186755774Y-120568060D01*
X186558126Y-120416400D01*
X186342376Y-120291837D01*
X186342361Y-120291830D01*
X186112207Y-120196498D01*
X185871561Y-120132017D01*
X185624575Y-120099501D01*
X185624570Y-120099500D01*
X185624565Y-120099500D01*
X185375435Y-120099500D01*
X185375429Y-120099500D01*
X185375424Y-120099501D01*
X185128438Y-120132017D01*
X184887792Y-120196498D01*
X184657638Y-120291830D01*
X184657623Y-120291837D01*
X184441873Y-120416400D01*
X184244225Y-120568060D01*
X184244218Y-120568066D01*
X184068066Y-120744218D01*
X184068060Y-120744225D01*
X183916400Y-120941873D01*
X183791837Y-121157623D01*
X183791830Y-121157638D01*
X183696498Y-121387792D01*
X183632017Y-121628438D01*
X183599501Y-121875424D01*
X183599500Y-121875441D01*
X123000000Y-121875441D01*
X123000000Y-117426282D01*
X123019685Y-117359243D01*
X123036319Y-117338601D01*
X124288102Y-116086818D01*
X124349425Y-116053333D01*
X124375783Y-116050499D01*
X125598261Y-116050499D01*
X125665300Y-116070184D01*
X125701362Y-116105607D01*
X125714025Y-116124558D01*
X125722862Y-116137784D01*
X125866537Y-116281459D01*
X125866559Y-116281479D01*
X125963181Y-116378101D01*
X125996666Y-116439424D01*
X125999500Y-116465782D01*
X125999500Y-117311617D01*
X125979815Y-117378656D01*
X125944384Y-117414724D01*
X125941865Y-117416406D01*
X125744225Y-117568060D01*
X125744218Y-117568066D01*
X125568066Y-117744218D01*
X125568060Y-117744225D01*
X125416400Y-117941873D01*
X125291837Y-118157623D01*
X125291830Y-118157638D01*
X125196498Y-118387792D01*
X125132017Y-118628438D01*
X125099501Y-118875424D01*
X125099500Y-118875441D01*
X125099500Y-119124558D01*
X125099501Y-119124575D01*
X125128146Y-119342159D01*
X125132018Y-119371565D01*
X125142701Y-119411433D01*
X125196498Y-119612207D01*
X125291830Y-119842361D01*
X125291837Y-119842376D01*
X125416400Y-120058126D01*
X125568060Y-120255774D01*
X125568066Y-120255781D01*
X125744218Y-120431933D01*
X125744225Y-120431939D01*
X125941873Y-120583599D01*
X126157623Y-120708162D01*
X126157638Y-120708169D01*
X126223670Y-120735520D01*
X126387793Y-120803502D01*
X126628435Y-120867982D01*
X126875435Y-120900500D01*
X126875442Y-120900500D01*
X127124558Y-120900500D01*
X127124565Y-120900500D01*
X127371565Y-120867982D01*
X127612207Y-120803502D01*
X127842373Y-120708164D01*
X128058127Y-120583599D01*
X128255776Y-120431938D01*
X128431938Y-120255776D01*
X128583599Y-120058127D01*
X128708164Y-119842373D01*
X128803502Y-119612207D01*
X128867982Y-119371565D01*
X128900500Y-119124565D01*
X128900500Y-118875435D01*
X128867982Y-118628435D01*
X128803502Y-118387793D01*
X128738122Y-118229952D01*
X128708169Y-118157638D01*
X128708162Y-118157623D01*
X128583599Y-117941873D01*
X128431939Y-117744225D01*
X128431933Y-117744218D01*
X128255781Y-117568066D01*
X128255774Y-117568060D01*
X128058134Y-117416406D01*
X128055616Y-117414724D01*
X128055033Y-117414027D01*
X128054907Y-117413930D01*
X128054928Y-117413901D01*
X128010808Y-117361115D01*
X128000500Y-117311617D01*
X128000500Y-115901460D01*
X128000500Y-115901459D01*
X127994960Y-115873610D01*
X128001186Y-115804023D01*
X128043692Y-115749101D01*
X128082656Y-115720793D01*
X128260793Y-115542656D01*
X128408870Y-115338845D01*
X128523241Y-115114379D01*
X128601090Y-114874785D01*
X128640500Y-114625962D01*
X128640500Y-114374038D01*
X128601090Y-114125215D01*
X128523241Y-113885621D01*
X128523239Y-113885618D01*
X128523239Y-113885616D01*
X128457084Y-113755781D01*
X128408870Y-113661155D01*
X128334016Y-113558127D01*
X128260798Y-113457350D01*
X128260794Y-113457345D01*
X128082654Y-113279205D01*
X128082649Y-113279201D01*
X127878848Y-113131132D01*
X127878847Y-113131131D01*
X127878845Y-113131130D01*
X127785560Y-113083599D01*
X127654383Y-113016760D01*
X127414785Y-112938910D01*
X127257144Y-112913942D01*
X127165962Y-112899500D01*
X126914038Y-112899500D01*
X126822856Y-112913942D01*
X126665214Y-112938910D01*
X126425616Y-113016760D01*
X126201156Y-113131129D01*
X126201154Y-113131130D01*
X126128626Y-113183824D01*
X126062819Y-113207303D01*
X125994766Y-113191477D01*
X125956477Y-113157818D01*
X125907546Y-113092454D01*
X125907544Y-113092452D01*
X125907543Y-113092451D01*
X125792335Y-113006206D01*
X125792328Y-113006202D01*
X125657482Y-112955908D01*
X125657483Y-112955908D01*
X125597883Y-112949501D01*
X125597881Y-112949500D01*
X125597873Y-112949500D01*
X125597864Y-112949500D01*
X123402129Y-112949500D01*
X123402123Y-112949501D01*
X123342516Y-112955908D01*
X123207671Y-113006202D01*
X123207665Y-113006205D01*
X123198309Y-113013210D01*
X123132845Y-113037626D01*
X123064572Y-113022773D01*
X123015167Y-112973368D01*
X123000000Y-112913942D01*
X123000000Y-112375441D01*
X129599500Y-112375441D01*
X129599500Y-112624558D01*
X129599501Y-112624575D01*
X129632017Y-112871561D01*
X129696498Y-113112207D01*
X129791830Y-113342361D01*
X129791837Y-113342376D01*
X129916400Y-113558126D01*
X130068060Y-113755774D01*
X130068066Y-113755781D01*
X130244218Y-113931933D01*
X130244225Y-113931939D01*
X130441873Y-114083599D01*
X130657623Y-114208162D01*
X130657638Y-114208169D01*
X130756825Y-114249253D01*
X130887793Y-114303502D01*
X131128435Y-114367982D01*
X131375435Y-114400500D01*
X131375442Y-114400500D01*
X131624558Y-114400500D01*
X131624565Y-114400500D01*
X131871565Y-114367982D01*
X132112207Y-114303502D01*
X132342373Y-114208164D01*
X132558127Y-114083599D01*
X132755776Y-113931938D01*
X132931938Y-113755776D01*
X133083599Y-113558127D01*
X133208164Y-113342373D01*
X133303502Y-113112207D01*
X133367982Y-112871565D01*
X133400500Y-112624565D01*
X133400500Y-112375441D01*
X136599500Y-112375441D01*
X136599500Y-112624558D01*
X136599501Y-112624575D01*
X136632017Y-112871561D01*
X136696498Y-113112207D01*
X136791830Y-113342361D01*
X136791837Y-113342376D01*
X136916400Y-113558126D01*
X137068060Y-113755774D01*
X137068066Y-113755781D01*
X137244218Y-113931933D01*
X137244225Y-113931939D01*
X137441873Y-114083599D01*
X137657623Y-114208162D01*
X137657638Y-114208169D01*
X137756825Y-114249253D01*
X137887793Y-114303502D01*
X138128435Y-114367982D01*
X138375435Y-114400500D01*
X138375442Y-114400500D01*
X138624558Y-114400500D01*
X138624565Y-114400500D01*
X138871565Y-114367982D01*
X139112207Y-114303502D01*
X139342373Y-114208164D01*
X139558127Y-114083599D01*
X139755776Y-113931938D01*
X139931938Y-113755776D01*
X140083599Y-113558127D01*
X140208164Y-113342373D01*
X140303502Y-113112207D01*
X140367982Y-112871565D01*
X140400500Y-112624565D01*
X140400500Y-112375435D01*
X140367982Y-112128435D01*
X140303502Y-111887793D01*
X140208164Y-111657627D01*
X140180339Y-111609433D01*
X140083599Y-111441873D01*
X139931939Y-111244225D01*
X139931933Y-111244218D01*
X139755781Y-111068066D01*
X139755774Y-111068060D01*
X139558126Y-110916400D01*
X139342376Y-110791837D01*
X139342361Y-110791830D01*
X139112207Y-110696498D01*
X138871561Y-110632017D01*
X138624575Y-110599501D01*
X138624570Y-110599500D01*
X138624565Y-110599500D01*
X138375435Y-110599500D01*
X138375429Y-110599500D01*
X138375424Y-110599501D01*
X138128438Y-110632017D01*
X137887792Y-110696498D01*
X137657638Y-110791830D01*
X137657623Y-110791837D01*
X137441873Y-110916400D01*
X137244225Y-111068060D01*
X137244218Y-111068066D01*
X137068066Y-111244218D01*
X137068060Y-111244225D01*
X136916400Y-111441873D01*
X136791837Y-111657623D01*
X136791830Y-111657638D01*
X136696498Y-111887792D01*
X136632017Y-112128438D01*
X136599501Y-112375424D01*
X136599500Y-112375441D01*
X133400500Y-112375441D01*
X133400500Y-112375435D01*
X133367982Y-112128435D01*
X133303502Y-111887793D01*
X133208164Y-111657627D01*
X133180339Y-111609433D01*
X133083599Y-111441873D01*
X132931939Y-111244225D01*
X132931933Y-111244218D01*
X132755781Y-111068066D01*
X132755774Y-111068060D01*
X132558126Y-110916400D01*
X132342376Y-110791837D01*
X132342361Y-110791830D01*
X132112207Y-110696498D01*
X131871561Y-110632017D01*
X131624575Y-110599501D01*
X131624570Y-110599500D01*
X131624565Y-110599500D01*
X131375435Y-110599500D01*
X131375429Y-110599500D01*
X131375424Y-110599501D01*
X131128438Y-110632017D01*
X130887792Y-110696498D01*
X130657638Y-110791830D01*
X130657623Y-110791837D01*
X130441873Y-110916400D01*
X130244225Y-111068060D01*
X130244218Y-111068066D01*
X130068066Y-111244218D01*
X130068060Y-111244225D01*
X129916400Y-111441873D01*
X129791837Y-111657623D01*
X129791830Y-111657638D01*
X129696498Y-111887792D01*
X129632017Y-112128438D01*
X129599501Y-112375424D01*
X129599500Y-112375441D01*
X123000000Y-112375441D01*
X123000000Y-106874071D01*
X146400000Y-106874071D01*
X146400000Y-107125928D01*
X146439397Y-107374669D01*
X146517219Y-107614184D01*
X146631558Y-107838585D01*
X146646236Y-107858787D01*
X146646237Y-107858788D01*
X147500000Y-107005025D01*
X147500000Y-107065826D01*
X147534075Y-107192993D01*
X147599901Y-107307007D01*
X147692993Y-107400099D01*
X147807007Y-107465925D01*
X147934174Y-107500000D01*
X147994974Y-107500000D01*
X147141211Y-108353762D01*
X147141211Y-108353763D01*
X147161410Y-108368439D01*
X147385815Y-108482780D01*
X147625330Y-108560602D01*
X147874072Y-108600000D01*
X148125928Y-108600000D01*
X148374669Y-108560602D01*
X148614184Y-108482780D01*
X148838575Y-108368446D01*
X148838588Y-108368438D01*
X148858787Y-108353763D01*
X148858788Y-108353761D01*
X148005027Y-107500000D01*
X148065826Y-107500000D01*
X148192993Y-107465925D01*
X148307007Y-107400099D01*
X148400099Y-107307007D01*
X148465925Y-107192993D01*
X148500000Y-107065826D01*
X148500000Y-107005026D01*
X149353761Y-107858788D01*
X149353763Y-107858787D01*
X149368438Y-107838588D01*
X149368446Y-107838575D01*
X149482780Y-107614184D01*
X149560602Y-107374669D01*
X149600000Y-107125928D01*
X149600000Y-106874071D01*
X149560602Y-106625330D01*
X149482780Y-106385815D01*
X149368439Y-106161410D01*
X149353763Y-106141211D01*
X149353762Y-106141211D01*
X148500000Y-106994973D01*
X148500000Y-106934174D01*
X148465925Y-106807007D01*
X148400099Y-106692993D01*
X148307007Y-106599901D01*
X148192993Y-106534075D01*
X148065826Y-106500000D01*
X148005026Y-106500000D01*
X148858788Y-105646237D01*
X148858787Y-105646236D01*
X148838585Y-105631558D01*
X148614184Y-105517219D01*
X148374669Y-105439397D01*
X148125928Y-105400000D01*
X147874072Y-105400000D01*
X147625330Y-105439397D01*
X147385815Y-105517219D01*
X147161419Y-105631555D01*
X147141211Y-105646235D01*
X147141211Y-105646236D01*
X147994975Y-106500000D01*
X147934174Y-106500000D01*
X147807007Y-106534075D01*
X147692993Y-106599901D01*
X147599901Y-106692993D01*
X147534075Y-106807007D01*
X147500000Y-106934174D01*
X147500000Y-106994975D01*
X146646236Y-106141211D01*
X146646235Y-106141211D01*
X146631555Y-106161419D01*
X146517219Y-106385815D01*
X146439397Y-106625330D01*
X146400000Y-106874071D01*
X123000000Y-106874071D01*
X123000000Y-104375441D01*
X142599500Y-104375441D01*
X142599500Y-104624558D01*
X142599501Y-104624575D01*
X142632017Y-104871561D01*
X142696498Y-105112207D01*
X142791830Y-105342361D01*
X142791837Y-105342376D01*
X142916400Y-105558126D01*
X143068060Y-105755774D01*
X143068066Y-105755781D01*
X143244218Y-105931933D01*
X143244225Y-105931939D01*
X143441873Y-106083599D01*
X143657623Y-106208162D01*
X143657638Y-106208169D01*
X143756825Y-106249253D01*
X143887793Y-106303502D01*
X144128435Y-106367982D01*
X144375435Y-106400500D01*
X144375442Y-106400500D01*
X144624558Y-106400500D01*
X144624565Y-106400500D01*
X144871565Y-106367982D01*
X145112207Y-106303502D01*
X145342373Y-106208164D01*
X145558127Y-106083599D01*
X145755776Y-105931938D01*
X145931938Y-105755776D01*
X146083599Y-105558127D01*
X146208164Y-105342373D01*
X146303502Y-105112207D01*
X146367982Y-104871565D01*
X146400500Y-104624565D01*
X146400500Y-104375435D01*
X146367982Y-104128435D01*
X146303502Y-103887793D01*
X146208164Y-103657627D01*
X146191368Y-103628536D01*
X146083599Y-103441873D01*
X145931939Y-103244225D01*
X145931933Y-103244218D01*
X145755781Y-103068066D01*
X145755774Y-103068060D01*
X145558126Y-102916400D01*
X145342376Y-102791837D01*
X145342361Y-102791830D01*
X145112207Y-102696498D01*
X144871561Y-102632017D01*
X144624575Y-102599501D01*
X144624570Y-102599500D01*
X144624565Y-102599500D01*
X144375435Y-102599500D01*
X144375429Y-102599500D01*
X144375424Y-102599501D01*
X144128438Y-102632017D01*
X143887792Y-102696498D01*
X143657638Y-102791830D01*
X143657623Y-102791837D01*
X143441873Y-102916400D01*
X143244225Y-103068060D01*
X143244218Y-103068066D01*
X143068066Y-103244218D01*
X143068060Y-103244225D01*
X142916400Y-103441873D01*
X142791837Y-103657623D01*
X142791830Y-103657638D01*
X142696498Y-103887792D01*
X142632017Y-104128438D01*
X142599501Y-104375424D01*
X142599500Y-104375441D01*
X123000000Y-104375441D01*
X123000000Y-101624000D01*
X123019685Y-101556961D01*
X123072489Y-101511206D01*
X123124000Y-101500000D01*
X132999999Y-101500000D01*
X133000000Y-101500000D01*
X135660611Y-99874071D01*
X143900000Y-99874071D01*
X143900000Y-100125928D01*
X143939397Y-100374669D01*
X144017219Y-100614184D01*
X144131558Y-100838585D01*
X144146236Y-100858787D01*
X144146237Y-100858788D01*
X145000000Y-100005025D01*
X145000000Y-100065826D01*
X145034075Y-100192993D01*
X145099901Y-100307007D01*
X145192993Y-100400099D01*
X145307007Y-100465925D01*
X145434174Y-100500000D01*
X145494974Y-100500000D01*
X144641211Y-101353762D01*
X144641211Y-101353763D01*
X144661410Y-101368439D01*
X144885815Y-101482780D01*
X145125330Y-101560602D01*
X145374072Y-101600000D01*
X145625928Y-101600000D01*
X145874669Y-101560602D01*
X146114184Y-101482780D01*
X146338575Y-101368446D01*
X146338588Y-101368438D01*
X146358787Y-101353763D01*
X146358788Y-101353761D01*
X145505027Y-100500000D01*
X145565826Y-100500000D01*
X145692993Y-100465925D01*
X145807007Y-100400099D01*
X145900099Y-100307007D01*
X145965925Y-100192993D01*
X146000000Y-100065826D01*
X146000000Y-100005026D01*
X146853761Y-100858788D01*
X146853763Y-100858787D01*
X146868438Y-100838588D01*
X146868446Y-100838575D01*
X146982780Y-100614184D01*
X147060602Y-100374669D01*
X147100000Y-100125928D01*
X147100000Y-99874071D01*
X147060602Y-99625330D01*
X146982780Y-99385815D01*
X146868439Y-99161410D01*
X146853763Y-99141211D01*
X146853762Y-99141211D01*
X146000000Y-99994973D01*
X146000000Y-99934174D01*
X145965925Y-99807007D01*
X145900099Y-99692993D01*
X145807007Y-99599901D01*
X145692993Y-99534075D01*
X145565826Y-99500000D01*
X145505026Y-99500000D01*
X146358788Y-98646237D01*
X146358787Y-98646236D01*
X146338585Y-98631558D01*
X146114184Y-98517219D01*
X145874669Y-98439397D01*
X145625928Y-98400000D01*
X145374072Y-98400000D01*
X145125330Y-98439397D01*
X144885815Y-98517219D01*
X144661419Y-98631555D01*
X144641211Y-98646235D01*
X144641211Y-98646236D01*
X145494975Y-99500000D01*
X145434174Y-99500000D01*
X145307007Y-99534075D01*
X145192993Y-99599901D01*
X145099901Y-99692993D01*
X145034075Y-99807007D01*
X145000000Y-99934174D01*
X145000000Y-99994975D01*
X144146236Y-99141211D01*
X144146235Y-99141211D01*
X144131555Y-99161419D01*
X144017219Y-99385815D01*
X143939397Y-99625330D01*
X143900000Y-99874071D01*
X135660611Y-99874071D01*
X141906791Y-96056961D01*
X141970230Y-96018193D01*
X142034890Y-96000000D01*
X154875500Y-96000000D01*
X154942539Y-96019685D01*
X154988294Y-96072489D01*
X154999500Y-96124000D01*
X154999500Y-103034218D01*
X154979815Y-103101257D01*
X154963181Y-103121899D01*
X140996899Y-117088181D01*
X140935576Y-117121666D01*
X140909218Y-117124500D01*
X140756903Y-117124500D01*
X140523631Y-117161446D01*
X140299003Y-117234433D01*
X140088566Y-117341657D01*
X139987999Y-117414724D01*
X139897490Y-117480483D01*
X139897488Y-117480485D01*
X139897487Y-117480485D01*
X139730485Y-117647487D01*
X139730485Y-117647488D01*
X139730483Y-117647490D01*
X139686402Y-117708162D01*
X139591657Y-117838566D01*
X139484433Y-118049003D01*
X139411446Y-118273631D01*
X139374500Y-118506902D01*
X139374500Y-118743097D01*
X139411446Y-118976368D01*
X139484433Y-119200996D01*
X139556360Y-119342159D01*
X139591657Y-119411433D01*
X139730483Y-119602510D01*
X139897490Y-119769517D01*
X140088567Y-119908343D01*
X140173305Y-119951519D01*
X140299003Y-120015566D01*
X140299005Y-120015566D01*
X140299008Y-120015568D01*
X140419412Y-120054689D01*
X140523631Y-120088553D01*
X140756903Y-120125500D01*
X140756908Y-120125500D01*
X140993097Y-120125500D01*
X141226368Y-120088553D01*
X141242904Y-120083180D01*
X141450992Y-120015568D01*
X141661433Y-119908343D01*
X141852510Y-119769517D01*
X142019517Y-119602510D01*
X142158343Y-119411433D01*
X142265568Y-119200992D01*
X142338553Y-118976368D01*
X142350483Y-118901047D01*
X142375500Y-118743097D01*
X142375500Y-118590781D01*
X142395185Y-118523742D01*
X142411814Y-118503105D01*
X142539453Y-118375466D01*
X157600000Y-118375466D01*
X157600000Y-118624533D01*
X157632508Y-118871463D01*
X157696973Y-119112049D01*
X157792283Y-119342148D01*
X157792288Y-119342159D01*
X157916812Y-119557841D01*
X157916822Y-119557854D01*
X157929997Y-119575025D01*
X157929998Y-119575026D01*
X158780999Y-118724024D01*
X158835359Y-118855258D01*
X158917437Y-118978097D01*
X159021903Y-119082563D01*
X159144742Y-119164641D01*
X159275974Y-119218999D01*
X158424973Y-120070000D01*
X158424973Y-120070001D01*
X158442151Y-120083182D01*
X158657840Y-120207711D01*
X158657851Y-120207716D01*
X158887950Y-120303026D01*
X159128536Y-120367491D01*
X159375466Y-120400000D01*
X159624534Y-120400000D01*
X159871463Y-120367491D01*
X160112049Y-120303026D01*
X160342148Y-120207716D01*
X160342159Y-120207711D01*
X160557850Y-120083180D01*
X160575025Y-120070001D01*
X160575025Y-120070000D01*
X159724026Y-119218999D01*
X159855258Y-119164641D01*
X159978097Y-119082563D01*
X160082563Y-118978097D01*
X160164641Y-118855258D01*
X160219000Y-118724025D01*
X161070000Y-119575025D01*
X161070001Y-119575025D01*
X161083180Y-119557850D01*
X161207711Y-119342159D01*
X161207716Y-119342148D01*
X161303026Y-119112049D01*
X161367491Y-118871463D01*
X161400000Y-118624533D01*
X161400000Y-118375466D01*
X161367491Y-118128536D01*
X161303026Y-117887950D01*
X161207716Y-117657851D01*
X161207711Y-117657840D01*
X161083182Y-117442151D01*
X161070001Y-117424973D01*
X161070000Y-117424973D01*
X160218999Y-118275973D01*
X160164641Y-118144742D01*
X160082563Y-118021903D01*
X159978097Y-117917437D01*
X159855258Y-117835359D01*
X159724025Y-117781000D01*
X160575026Y-116929998D01*
X160575025Y-116929997D01*
X160557854Y-116916822D01*
X160557841Y-116916812D01*
X160342159Y-116792288D01*
X160342148Y-116792283D01*
X160112049Y-116696973D01*
X159871463Y-116632508D01*
X159624534Y-116600000D01*
X159375466Y-116600000D01*
X159128536Y-116632508D01*
X158887950Y-116696973D01*
X158657851Y-116792283D01*
X158657840Y-116792288D01*
X158442150Y-116916818D01*
X158442145Y-116916821D01*
X158424973Y-116929997D01*
X158424973Y-116929998D01*
X159275974Y-117780999D01*
X159144742Y-117835359D01*
X159021903Y-117917437D01*
X158917437Y-118021903D01*
X158835359Y-118144742D01*
X158781000Y-118275974D01*
X157929998Y-117424973D01*
X157929997Y-117424973D01*
X157916821Y-117442145D01*
X157916818Y-117442150D01*
X157792288Y-117657840D01*
X157792283Y-117657851D01*
X157696973Y-117887950D01*
X157632508Y-118128536D01*
X157600000Y-118375466D01*
X142539453Y-118375466D01*
X145039478Y-115875441D01*
X151599500Y-115875441D01*
X151599500Y-116124558D01*
X151599501Y-116124575D01*
X151632017Y-116371561D01*
X151696498Y-116612207D01*
X151791830Y-116842361D01*
X151791837Y-116842376D01*
X151916400Y-117058126D01*
X152068060Y-117255774D01*
X152068066Y-117255781D01*
X152244218Y-117431933D01*
X152244225Y-117431939D01*
X152441873Y-117583599D01*
X152657623Y-117708162D01*
X152657638Y-117708169D01*
X152744669Y-117744218D01*
X152887793Y-117803502D01*
X153128435Y-117867982D01*
X153375435Y-117900500D01*
X153375442Y-117900500D01*
X153624558Y-117900500D01*
X153624565Y-117900500D01*
X153871565Y-117867982D01*
X154112207Y-117803502D01*
X154342373Y-117708164D01*
X154558127Y-117583599D01*
X154755776Y-117431938D01*
X154931938Y-117255776D01*
X155083599Y-117058127D01*
X155157575Y-116929997D01*
X155165685Y-116915950D01*
X155178266Y-116894157D01*
X155208164Y-116842373D01*
X155303502Y-116612207D01*
X155367982Y-116371565D01*
X155400500Y-116124565D01*
X155400500Y-115875435D01*
X155367982Y-115628435D01*
X155303502Y-115387793D01*
X155208164Y-115157627D01*
X155192880Y-115131155D01*
X155083599Y-114941873D01*
X155047089Y-114894292D01*
X154991721Y-114822135D01*
X178659500Y-114822135D01*
X178659500Y-117117870D01*
X178659501Y-117117876D01*
X178665908Y-117177483D01*
X178716202Y-117312328D01*
X178716206Y-117312335D01*
X178802452Y-117427544D01*
X178802455Y-117427547D01*
X178917664Y-117513793D01*
X178917671Y-117513797D01*
X179052517Y-117564091D01*
X179052516Y-117564091D01*
X179059444Y-117564835D01*
X179112127Y-117570500D01*
X181407872Y-117570499D01*
X181467483Y-117564091D01*
X181602331Y-117513796D01*
X181717546Y-117427546D01*
X181773108Y-117353324D01*
X181829039Y-117311456D01*
X181898730Y-117306472D01*
X181945257Y-117327319D01*
X181961155Y-117338870D01*
X182039240Y-117378656D01*
X182185616Y-117453239D01*
X182185618Y-117453239D01*
X182185621Y-117453241D01*
X182425215Y-117531090D01*
X182674038Y-117570500D01*
X182674039Y-117570500D01*
X182925961Y-117570500D01*
X182925962Y-117570500D01*
X183174785Y-117531090D01*
X183414379Y-117453241D01*
X183638845Y-117338870D01*
X183842656Y-117190793D01*
X183982319Y-117051130D01*
X184043642Y-117017645D01*
X184113334Y-117022629D01*
X184157681Y-117051130D01*
X184297345Y-117190794D01*
X184297350Y-117190798D01*
X184456563Y-117306472D01*
X184501155Y-117338870D01*
X184644184Y-117411747D01*
X184725616Y-117453239D01*
X184725618Y-117453239D01*
X184725621Y-117453241D01*
X184965215Y-117531090D01*
X185214038Y-117570500D01*
X185214039Y-117570500D01*
X185465961Y-117570500D01*
X185465962Y-117570500D01*
X185714785Y-117531090D01*
X185954379Y-117453241D01*
X186178845Y-117338870D01*
X186382656Y-117190793D01*
X186522319Y-117051130D01*
X186583642Y-117017645D01*
X186653334Y-117022629D01*
X186697681Y-117051130D01*
X186837345Y-117190794D01*
X186837350Y-117190798D01*
X186996563Y-117306472D01*
X187041155Y-117338870D01*
X187184184Y-117411747D01*
X187265616Y-117453239D01*
X187265618Y-117453239D01*
X187265621Y-117453241D01*
X187505215Y-117531090D01*
X187754038Y-117570500D01*
X187754039Y-117570500D01*
X188005961Y-117570500D01*
X188005962Y-117570500D01*
X188254785Y-117531090D01*
X188494379Y-117453241D01*
X188718845Y-117338870D01*
X188922656Y-117190793D01*
X189062319Y-117051130D01*
X189123642Y-117017645D01*
X189193334Y-117022629D01*
X189237681Y-117051130D01*
X189377345Y-117190794D01*
X189377350Y-117190798D01*
X189536563Y-117306472D01*
X189581155Y-117338870D01*
X189724184Y-117411747D01*
X189805616Y-117453239D01*
X189805618Y-117453239D01*
X189805621Y-117453241D01*
X190045215Y-117531090D01*
X190294038Y-117570500D01*
X190294039Y-117570500D01*
X190545961Y-117570500D01*
X190545962Y-117570500D01*
X190794785Y-117531090D01*
X191034379Y-117453241D01*
X191258845Y-117338870D01*
X191462656Y-117190793D01*
X191602319Y-117051130D01*
X191663642Y-117017645D01*
X191733334Y-117022629D01*
X191777681Y-117051130D01*
X191917345Y-117190794D01*
X191917350Y-117190798D01*
X192076563Y-117306472D01*
X192121155Y-117338870D01*
X192264184Y-117411747D01*
X192345616Y-117453239D01*
X192345618Y-117453239D01*
X192345621Y-117453241D01*
X192585215Y-117531090D01*
X192834038Y-117570500D01*
X192834039Y-117570500D01*
X193085961Y-117570500D01*
X193085962Y-117570500D01*
X193334785Y-117531090D01*
X193574379Y-117453241D01*
X193798845Y-117338870D01*
X194002656Y-117190793D01*
X194142319Y-117051130D01*
X194203642Y-117017645D01*
X194273334Y-117022629D01*
X194317681Y-117051130D01*
X194457345Y-117190794D01*
X194457350Y-117190798D01*
X194616563Y-117306472D01*
X194661155Y-117338870D01*
X194804184Y-117411747D01*
X194885616Y-117453239D01*
X194885618Y-117453239D01*
X194885621Y-117453241D01*
X195125215Y-117531090D01*
X195374038Y-117570500D01*
X195374039Y-117570500D01*
X195625961Y-117570500D01*
X195625962Y-117570500D01*
X195874785Y-117531090D01*
X196114379Y-117453241D01*
X196338845Y-117338870D01*
X196542656Y-117190793D01*
X196720793Y-117012656D01*
X196868870Y-116808845D01*
X196983241Y-116584379D01*
X196999356Y-116534781D01*
X197029606Y-116485418D01*
X197540000Y-115975024D01*
X197540000Y-116035826D01*
X197574075Y-116162993D01*
X197639901Y-116277007D01*
X197732993Y-116370099D01*
X197847007Y-116435925D01*
X197974174Y-116470000D01*
X198034974Y-116470000D01*
X197181211Y-117323762D01*
X197181211Y-117323763D01*
X197201410Y-117338439D01*
X197425815Y-117452780D01*
X197665330Y-117530602D01*
X197914072Y-117570000D01*
X198165928Y-117570000D01*
X198414669Y-117530602D01*
X198654184Y-117452780D01*
X198878575Y-117338446D01*
X198878588Y-117338438D01*
X198898787Y-117323763D01*
X198898788Y-117323761D01*
X198045027Y-116470000D01*
X198105826Y-116470000D01*
X198232993Y-116435925D01*
X198347007Y-116370099D01*
X198440099Y-116277007D01*
X198505925Y-116162993D01*
X198540000Y-116035826D01*
X198540000Y-115975026D01*
X199393761Y-116828788D01*
X199393763Y-116828787D01*
X199408438Y-116808588D01*
X199408446Y-116808575D01*
X199522780Y-116584184D01*
X199600602Y-116344669D01*
X199640000Y-116095928D01*
X199640000Y-115844071D01*
X199600602Y-115595330D01*
X199522780Y-115355815D01*
X199408439Y-115131410D01*
X199393763Y-115111211D01*
X199393762Y-115111211D01*
X198540000Y-115964973D01*
X198540000Y-115904174D01*
X198505925Y-115777007D01*
X198440099Y-115662993D01*
X198347007Y-115569901D01*
X198232993Y-115504075D01*
X198105826Y-115470000D01*
X198045026Y-115470000D01*
X198898788Y-114616237D01*
X198898787Y-114616236D01*
X198878585Y-114601558D01*
X198654184Y-114487219D01*
X198414669Y-114409397D01*
X198165928Y-114370000D01*
X197914072Y-114370000D01*
X197665330Y-114409397D01*
X197425815Y-114487219D01*
X197201419Y-114601555D01*
X197181211Y-114616235D01*
X197181211Y-114616236D01*
X198034975Y-115470000D01*
X197974174Y-115470000D01*
X197847007Y-115504075D01*
X197732993Y-115569901D01*
X197639901Y-115662993D01*
X197574075Y-115777007D01*
X197540000Y-115904174D01*
X197540000Y-115964974D01*
X197029605Y-115454579D01*
X196999355Y-115405216D01*
X196993694Y-115387793D01*
X196983241Y-115355621D01*
X196868870Y-115131155D01*
X196849952Y-115105117D01*
X196720798Y-114927350D01*
X196720794Y-114927345D01*
X196542654Y-114749205D01*
X196542649Y-114749201D01*
X196338848Y-114601132D01*
X196338847Y-114601131D01*
X196338845Y-114601130D01*
X196268747Y-114565413D01*
X196114383Y-114486760D01*
X195874785Y-114408910D01*
X195821674Y-114400498D01*
X195625962Y-114369500D01*
X195374038Y-114369500D01*
X195249626Y-114389205D01*
X195125214Y-114408910D01*
X194885616Y-114486760D01*
X194661151Y-114601132D01*
X194457350Y-114749201D01*
X194457345Y-114749205D01*
X194317681Y-114888870D01*
X194256358Y-114922355D01*
X194186666Y-114917371D01*
X194142319Y-114888870D01*
X194002654Y-114749205D01*
X194002649Y-114749201D01*
X193798848Y-114601132D01*
X193798847Y-114601131D01*
X193798845Y-114601130D01*
X193728747Y-114565413D01*
X193574383Y-114486760D01*
X193334785Y-114408910D01*
X193281674Y-114400498D01*
X193085962Y-114369500D01*
X192834038Y-114369500D01*
X192709626Y-114389205D01*
X192585214Y-114408910D01*
X192345616Y-114486760D01*
X192121151Y-114601132D01*
X191917350Y-114749201D01*
X191917345Y-114749205D01*
X191777681Y-114888870D01*
X191716358Y-114922355D01*
X191646666Y-114917371D01*
X191602319Y-114888870D01*
X191462654Y-114749205D01*
X191462649Y-114749201D01*
X191258848Y-114601132D01*
X191258847Y-114601131D01*
X191258845Y-114601130D01*
X191188747Y-114565413D01*
X191034383Y-114486760D01*
X190794785Y-114408910D01*
X190741674Y-114400498D01*
X190545962Y-114369500D01*
X190294038Y-114369500D01*
X190169626Y-114389205D01*
X190045214Y-114408910D01*
X189805616Y-114486760D01*
X189581151Y-114601132D01*
X189377350Y-114749201D01*
X189377345Y-114749205D01*
X189237681Y-114888870D01*
X189176358Y-114922355D01*
X189106666Y-114917371D01*
X189062319Y-114888870D01*
X188922654Y-114749205D01*
X188922649Y-114749201D01*
X188718848Y-114601132D01*
X188718847Y-114601131D01*
X188718845Y-114601130D01*
X188648747Y-114565413D01*
X188494383Y-114486760D01*
X188254785Y-114408910D01*
X188201674Y-114400498D01*
X188005962Y-114369500D01*
X187754038Y-114369500D01*
X187629626Y-114389205D01*
X187505214Y-114408910D01*
X187265616Y-114486760D01*
X187041151Y-114601132D01*
X186837350Y-114749201D01*
X186837345Y-114749205D01*
X186697681Y-114888870D01*
X186636358Y-114922355D01*
X186566666Y-114917371D01*
X186522319Y-114888870D01*
X186382654Y-114749205D01*
X186382649Y-114749201D01*
X186178848Y-114601132D01*
X186178847Y-114601131D01*
X186178845Y-114601130D01*
X186108747Y-114565413D01*
X185954383Y-114486760D01*
X185714785Y-114408910D01*
X185661674Y-114400498D01*
X185465962Y-114369500D01*
X185214038Y-114369500D01*
X185089626Y-114389205D01*
X184965214Y-114408910D01*
X184725616Y-114486760D01*
X184501151Y-114601132D01*
X184297350Y-114749201D01*
X184297345Y-114749205D01*
X184157681Y-114888870D01*
X184096358Y-114922355D01*
X184026666Y-114917371D01*
X183982319Y-114888870D01*
X183842654Y-114749205D01*
X183842649Y-114749201D01*
X183638848Y-114601132D01*
X183638847Y-114601131D01*
X183638845Y-114601130D01*
X183568747Y-114565413D01*
X183414383Y-114486760D01*
X183174785Y-114408910D01*
X183121674Y-114400498D01*
X182925962Y-114369500D01*
X182674038Y-114369500D01*
X182549626Y-114389205D01*
X182425214Y-114408910D01*
X182185616Y-114486760D01*
X181961149Y-114601132D01*
X181945254Y-114612681D01*
X181879447Y-114636159D01*
X181811394Y-114620332D01*
X181773106Y-114586673D01*
X181717546Y-114512454D01*
X181694709Y-114495358D01*
X181602335Y-114426206D01*
X181602328Y-114426202D01*
X181467482Y-114375908D01*
X181467483Y-114375908D01*
X181407883Y-114369501D01*
X181407881Y-114369500D01*
X181407873Y-114369500D01*
X181407864Y-114369500D01*
X179112129Y-114369500D01*
X179112123Y-114369501D01*
X179052516Y-114375908D01*
X178917671Y-114426202D01*
X178917664Y-114426206D01*
X178802455Y-114512452D01*
X178802452Y-114512455D01*
X178716206Y-114627664D01*
X178716202Y-114627671D01*
X178665908Y-114762517D01*
X178659501Y-114822116D01*
X178659500Y-114822135D01*
X154991721Y-114822135D01*
X154931939Y-114744225D01*
X154931933Y-114744218D01*
X154755781Y-114568066D01*
X154755774Y-114568060D01*
X154558126Y-114416400D01*
X154342376Y-114291837D01*
X154342361Y-114291830D01*
X154112207Y-114196498D01*
X153965646Y-114157227D01*
X153871565Y-114132018D01*
X153871564Y-114132017D01*
X153871561Y-114132017D01*
X153624575Y-114099501D01*
X153624570Y-114099500D01*
X153624565Y-114099500D01*
X153375435Y-114099500D01*
X153375429Y-114099500D01*
X153375424Y-114099501D01*
X153128438Y-114132017D01*
X152887792Y-114196498D01*
X152657638Y-114291830D01*
X152657623Y-114291837D01*
X152441873Y-114416400D01*
X152244225Y-114568060D01*
X152244218Y-114568066D01*
X152068066Y-114744218D01*
X152068060Y-114744225D01*
X151916400Y-114941873D01*
X151791837Y-115157623D01*
X151791830Y-115157638D01*
X151696498Y-115387792D01*
X151632017Y-115628438D01*
X151599501Y-115875424D01*
X151599500Y-115875441D01*
X145039478Y-115875441D01*
X149539478Y-111375441D01*
X171099500Y-111375441D01*
X171099500Y-111624558D01*
X171099501Y-111624575D01*
X171132017Y-111871561D01*
X171196498Y-112112207D01*
X171291830Y-112342361D01*
X171291837Y-112342376D01*
X171416400Y-112558126D01*
X171568060Y-112755774D01*
X171568066Y-112755781D01*
X171744218Y-112931933D01*
X171744225Y-112931939D01*
X171941873Y-113083599D01*
X172157623Y-113208162D01*
X172157638Y-113208169D01*
X172256825Y-113249253D01*
X172387793Y-113303502D01*
X172628435Y-113367982D01*
X172875435Y-113400500D01*
X172875442Y-113400500D01*
X173124558Y-113400500D01*
X173124565Y-113400500D01*
X173371565Y-113367982D01*
X173612207Y-113303502D01*
X173842373Y-113208164D01*
X174058127Y-113083599D01*
X174255776Y-112931938D01*
X174431938Y-112755776D01*
X174583599Y-112558127D01*
X174708164Y-112342373D01*
X174803502Y-112112207D01*
X174867982Y-111871565D01*
X174900500Y-111624565D01*
X174900500Y-111375435D01*
X174867982Y-111128435D01*
X174803502Y-110887793D01*
X174708164Y-110657627D01*
X174583599Y-110441873D01*
X174431938Y-110244224D01*
X174431933Y-110244218D01*
X174255781Y-110068066D01*
X174255774Y-110068060D01*
X174058126Y-109916400D01*
X173842376Y-109791837D01*
X173842361Y-109791830D01*
X173612207Y-109696498D01*
X173371561Y-109632017D01*
X173124575Y-109599501D01*
X173124570Y-109599500D01*
X173124565Y-109599500D01*
X172875435Y-109599500D01*
X172875429Y-109599500D01*
X172875424Y-109599501D01*
X172628438Y-109632017D01*
X172387792Y-109696498D01*
X172157638Y-109791830D01*
X172157623Y-109791837D01*
X171941873Y-109916400D01*
X171744225Y-110068060D01*
X171744218Y-110068066D01*
X171568066Y-110244218D01*
X171568060Y-110244225D01*
X171416400Y-110441873D01*
X171291837Y-110657623D01*
X171291830Y-110657638D01*
X171196498Y-110887792D01*
X171132017Y-111128438D01*
X171099501Y-111375424D01*
X171099500Y-111375441D01*
X149539478Y-111375441D01*
X156637778Y-104277141D01*
X156637782Y-104277139D01*
X156777139Y-104137782D01*
X156886632Y-103973914D01*
X156927410Y-103875466D01*
X170600000Y-103875466D01*
X170600000Y-104124533D01*
X170632508Y-104371463D01*
X170696973Y-104612049D01*
X170792283Y-104842148D01*
X170792288Y-104842159D01*
X170916812Y-105057841D01*
X170916822Y-105057854D01*
X170929997Y-105075025D01*
X170929998Y-105075026D01*
X171780999Y-104224024D01*
X171835359Y-104355258D01*
X171917437Y-104478097D01*
X172021903Y-104582563D01*
X172144742Y-104664641D01*
X172275974Y-104718999D01*
X171424973Y-105570000D01*
X171424973Y-105570001D01*
X171442151Y-105583182D01*
X171657840Y-105707711D01*
X171657851Y-105707716D01*
X171887950Y-105803026D01*
X172128536Y-105867491D01*
X172375466Y-105900000D01*
X172624534Y-105900000D01*
X172871463Y-105867491D01*
X173112049Y-105803026D01*
X173342148Y-105707716D01*
X173342159Y-105707711D01*
X173557850Y-105583180D01*
X173575025Y-105570001D01*
X173575025Y-105570000D01*
X172724026Y-104718999D01*
X172855258Y-104664641D01*
X172978097Y-104582563D01*
X173082563Y-104478097D01*
X173164641Y-104355258D01*
X173219000Y-104224025D01*
X174070000Y-105075025D01*
X174070001Y-105075025D01*
X174083180Y-105057850D01*
X174207711Y-104842159D01*
X174207716Y-104842148D01*
X174303026Y-104612049D01*
X174367491Y-104371463D01*
X174400000Y-104124533D01*
X174400000Y-103875466D01*
X174367491Y-103628536D01*
X174303026Y-103387950D01*
X174207716Y-103157851D01*
X174207711Y-103157840D01*
X174083182Y-102942151D01*
X174070001Y-102924973D01*
X174070000Y-102924973D01*
X173218999Y-103775973D01*
X173164641Y-103644742D01*
X173082563Y-103521903D01*
X172978097Y-103417437D01*
X172855258Y-103335359D01*
X172724025Y-103281000D01*
X173575026Y-102429998D01*
X173575025Y-102429997D01*
X173557854Y-102416822D01*
X173557841Y-102416812D01*
X173342159Y-102292288D01*
X173342148Y-102292283D01*
X173112049Y-102196973D01*
X172871463Y-102132508D01*
X172624534Y-102100000D01*
X172375466Y-102100000D01*
X172128536Y-102132508D01*
X171887950Y-102196973D01*
X171657851Y-102292283D01*
X171657840Y-102292288D01*
X171442150Y-102416818D01*
X171442145Y-102416821D01*
X171424973Y-102429997D01*
X171424973Y-102429998D01*
X172275974Y-103280999D01*
X172144742Y-103335359D01*
X172021903Y-103417437D01*
X171917437Y-103521903D01*
X171835359Y-103644742D01*
X171781000Y-103775974D01*
X170929998Y-102924973D01*
X170929997Y-102924973D01*
X170916821Y-102942145D01*
X170916818Y-102942150D01*
X170792288Y-103157840D01*
X170792283Y-103157851D01*
X170696973Y-103387950D01*
X170632508Y-103628536D01*
X170600000Y-103875466D01*
X156927410Y-103875466D01*
X156962051Y-103791835D01*
X157000500Y-103598541D01*
X157000500Y-96124000D01*
X157020185Y-96056961D01*
X157072989Y-96011206D01*
X157124500Y-96000000D01*
X187000000Y-96000000D01*
X190000000Y-96000000D01*
X199500000Y-96000000D01*
X199500000Y-95000000D01*
X190000000Y-95000000D01*
X190000000Y-96000000D01*
X187000000Y-96000000D01*
X187000000Y-95000000D01*
X157124500Y-95000000D01*
X157115814Y-94997449D01*
X157106853Y-94998738D01*
X157082812Y-94987759D01*
X157057461Y-94980315D01*
X157051533Y-94973474D01*
X157043297Y-94969713D01*
X157029007Y-94947478D01*
X157011706Y-94927511D01*
X157009418Y-94916996D01*
X157005523Y-94910935D01*
X157000500Y-94876000D01*
X157000500Y-94872631D01*
X157020185Y-94805592D01*
X157051614Y-94772313D01*
X157227510Y-94644517D01*
X157394517Y-94477510D01*
X157533343Y-94286433D01*
X157640568Y-94075992D01*
X157713553Y-93851368D01*
X157733697Y-93724184D01*
X157750500Y-93618097D01*
X157750500Y-93381902D01*
X157713553Y-93148631D01*
X157679612Y-93044174D01*
X157640568Y-92924008D01*
X157615107Y-92874038D01*
X166319500Y-92874038D01*
X166319500Y-93125962D01*
X166347539Y-93302993D01*
X166358910Y-93374785D01*
X166436760Y-93614383D01*
X166551132Y-93838848D01*
X166699201Y-94042649D01*
X166699205Y-94042654D01*
X166877345Y-94220794D01*
X166877350Y-94220798D01*
X167026035Y-94328823D01*
X167081155Y-94368870D01*
X167224184Y-94441747D01*
X167305616Y-94483239D01*
X167305618Y-94483239D01*
X167305621Y-94483241D01*
X167545215Y-94561090D01*
X167794038Y-94600500D01*
X167794039Y-94600500D01*
X168045961Y-94600500D01*
X168045962Y-94600500D01*
X168294785Y-94561090D01*
X168534379Y-94483241D01*
X168542964Y-94478867D01*
X168572611Y-94463761D01*
X168758845Y-94368870D01*
X168831372Y-94316175D01*
X168897175Y-94292696D01*
X168965230Y-94308521D01*
X169003522Y-94342182D01*
X169052455Y-94407547D01*
X169167664Y-94493793D01*
X169167671Y-94493797D01*
X169302517Y-94544091D01*
X169302516Y-94544091D01*
X169309444Y-94544835D01*
X169362127Y-94550500D01*
X171557872Y-94550499D01*
X171617483Y-94544091D01*
X171752331Y-94493796D01*
X171867546Y-94407546D01*
X171953796Y-94292331D01*
X172004091Y-94157483D01*
X172010500Y-94097873D01*
X172010499Y-91962135D01*
X178659500Y-91962135D01*
X178659500Y-94257870D01*
X178659501Y-94257876D01*
X178665908Y-94317483D01*
X178716202Y-94452328D01*
X178716206Y-94452335D01*
X178802452Y-94567544D01*
X178802455Y-94567547D01*
X178917664Y-94653793D01*
X178917671Y-94653797D01*
X179052517Y-94704091D01*
X179052516Y-94704091D01*
X179059444Y-94704835D01*
X179112127Y-94710500D01*
X181407872Y-94710499D01*
X181467483Y-94704091D01*
X181602331Y-94653796D01*
X181717546Y-94567546D01*
X181773108Y-94493324D01*
X181829039Y-94451456D01*
X181898730Y-94446472D01*
X181945257Y-94467319D01*
X181961155Y-94478870D01*
X182067206Y-94532905D01*
X182185616Y-94593239D01*
X182185618Y-94593239D01*
X182185621Y-94593241D01*
X182425215Y-94671090D01*
X182674038Y-94710500D01*
X182674039Y-94710500D01*
X182925961Y-94710500D01*
X182925962Y-94710500D01*
X183174785Y-94671090D01*
X183414379Y-94593241D01*
X183638845Y-94478870D01*
X183842656Y-94330793D01*
X183982319Y-94191130D01*
X184043642Y-94157645D01*
X184113334Y-94162629D01*
X184157681Y-94191130D01*
X184297345Y-94330794D01*
X184297350Y-94330798D01*
X184402987Y-94407547D01*
X184501155Y-94478870D01*
X184629159Y-94544091D01*
X184725616Y-94593239D01*
X184725618Y-94593239D01*
X184725621Y-94593241D01*
X184965215Y-94671090D01*
X185214038Y-94710500D01*
X185214039Y-94710500D01*
X185465961Y-94710500D01*
X185465962Y-94710500D01*
X185714785Y-94671090D01*
X185954379Y-94593241D01*
X186178845Y-94478870D01*
X186382656Y-94330793D01*
X186522319Y-94191130D01*
X186583642Y-94157645D01*
X186653334Y-94162629D01*
X186697681Y-94191130D01*
X186837345Y-94330794D01*
X186837350Y-94330798D01*
X186942987Y-94407547D01*
X187041155Y-94478870D01*
X187169159Y-94544091D01*
X187265616Y-94593239D01*
X187265618Y-94593239D01*
X187265621Y-94593241D01*
X187505215Y-94671090D01*
X187754038Y-94710500D01*
X187754039Y-94710500D01*
X188005961Y-94710500D01*
X188005962Y-94710500D01*
X188254785Y-94671090D01*
X188494379Y-94593241D01*
X188718845Y-94478870D01*
X188922656Y-94330793D01*
X189062319Y-94191130D01*
X189123642Y-94157645D01*
X189193334Y-94162629D01*
X189237681Y-94191130D01*
X189377345Y-94330794D01*
X189377350Y-94330798D01*
X189482987Y-94407547D01*
X189581155Y-94478870D01*
X189709159Y-94544091D01*
X189805616Y-94593239D01*
X189805618Y-94593239D01*
X189805621Y-94593241D01*
X190045215Y-94671090D01*
X190294038Y-94710500D01*
X190294039Y-94710500D01*
X190545961Y-94710500D01*
X190545962Y-94710500D01*
X190794785Y-94671090D01*
X191034379Y-94593241D01*
X191258845Y-94478870D01*
X191462656Y-94330793D01*
X191602319Y-94191130D01*
X191663642Y-94157645D01*
X191733334Y-94162629D01*
X191777681Y-94191130D01*
X191917345Y-94330794D01*
X191917350Y-94330798D01*
X192022987Y-94407547D01*
X192121155Y-94478870D01*
X192249159Y-94544091D01*
X192345616Y-94593239D01*
X192345618Y-94593239D01*
X192345621Y-94593241D01*
X192585215Y-94671090D01*
X192834038Y-94710500D01*
X192834039Y-94710500D01*
X193085961Y-94710500D01*
X193085962Y-94710500D01*
X193334785Y-94671090D01*
X193574379Y-94593241D01*
X193798845Y-94478870D01*
X194002656Y-94330793D01*
X194142319Y-94191130D01*
X194203642Y-94157645D01*
X194273334Y-94162629D01*
X194317681Y-94191130D01*
X194457345Y-94330794D01*
X194457350Y-94330798D01*
X194562987Y-94407547D01*
X194661155Y-94478870D01*
X194789159Y-94544091D01*
X194885616Y-94593239D01*
X194885618Y-94593239D01*
X194885621Y-94593241D01*
X195125215Y-94671090D01*
X195374038Y-94710500D01*
X195374039Y-94710500D01*
X195625961Y-94710500D01*
X195625962Y-94710500D01*
X195874785Y-94671090D01*
X196114379Y-94593241D01*
X196338845Y-94478870D01*
X196542656Y-94330793D01*
X196720793Y-94152656D01*
X196868870Y-93948845D01*
X196983241Y-93724379D01*
X196999356Y-93674781D01*
X197029606Y-93625418D01*
X197540000Y-93115024D01*
X197540000Y-93175826D01*
X197574075Y-93302993D01*
X197639901Y-93417007D01*
X197732993Y-93510099D01*
X197847007Y-93575925D01*
X197974174Y-93610000D01*
X198034974Y-93610000D01*
X197181211Y-94463762D01*
X197181211Y-94463763D01*
X197201410Y-94478439D01*
X197425815Y-94592780D01*
X197665330Y-94670602D01*
X197914072Y-94710000D01*
X198165928Y-94710000D01*
X198414669Y-94670602D01*
X198654184Y-94592780D01*
X198878575Y-94478446D01*
X198878588Y-94478438D01*
X198898787Y-94463763D01*
X198898788Y-94463761D01*
X198045027Y-93610000D01*
X198105826Y-93610000D01*
X198232993Y-93575925D01*
X198347007Y-93510099D01*
X198440099Y-93417007D01*
X198505925Y-93302993D01*
X198540000Y-93175826D01*
X198540000Y-93115026D01*
X199393761Y-93968788D01*
X199393763Y-93968787D01*
X199408438Y-93948588D01*
X199408446Y-93948575D01*
X199522780Y-93724184D01*
X199600602Y-93484669D01*
X199640000Y-93235928D01*
X199640000Y-92984071D01*
X199600602Y-92735330D01*
X199522780Y-92495815D01*
X199408439Y-92271410D01*
X199393763Y-92251211D01*
X199393762Y-92251211D01*
X198540000Y-93104973D01*
X198540000Y-93044174D01*
X198505925Y-92917007D01*
X198440099Y-92802993D01*
X198347007Y-92709901D01*
X198232993Y-92644075D01*
X198105826Y-92610000D01*
X198045026Y-92610000D01*
X198898788Y-91756237D01*
X198898787Y-91756236D01*
X198878585Y-91741558D01*
X198654184Y-91627219D01*
X198414669Y-91549397D01*
X198165928Y-91510000D01*
X197914072Y-91510000D01*
X197665330Y-91549397D01*
X197425815Y-91627219D01*
X197201419Y-91741555D01*
X197181211Y-91756235D01*
X197181211Y-91756236D01*
X198034975Y-92610000D01*
X197974174Y-92610000D01*
X197847007Y-92644075D01*
X197732993Y-92709901D01*
X197639901Y-92802993D01*
X197574075Y-92917007D01*
X197540000Y-93044174D01*
X197540000Y-93104974D01*
X197029605Y-92594579D01*
X196999355Y-92545216D01*
X196991971Y-92522490D01*
X196983241Y-92495621D01*
X196868870Y-92271155D01*
X196788948Y-92161151D01*
X196720798Y-92067350D01*
X196720794Y-92067345D01*
X196542654Y-91889205D01*
X196542649Y-91889201D01*
X196338848Y-91741132D01*
X196338847Y-91741131D01*
X196338845Y-91741130D01*
X196267290Y-91704671D01*
X196114383Y-91626760D01*
X195874785Y-91548910D01*
X195671799Y-91516760D01*
X195625962Y-91509500D01*
X195374038Y-91509500D01*
X195328207Y-91516759D01*
X195125214Y-91548910D01*
X194885616Y-91626760D01*
X194661151Y-91741132D01*
X194457350Y-91889201D01*
X194457345Y-91889205D01*
X194317681Y-92028870D01*
X194256358Y-92062355D01*
X194186666Y-92057371D01*
X194142319Y-92028870D01*
X194002654Y-91889205D01*
X194002649Y-91889201D01*
X193798848Y-91741132D01*
X193798847Y-91741131D01*
X193798845Y-91741130D01*
X193727290Y-91704671D01*
X193574383Y-91626760D01*
X193334785Y-91548910D01*
X193131799Y-91516760D01*
X193085962Y-91509500D01*
X192834038Y-91509500D01*
X192788207Y-91516759D01*
X192585214Y-91548910D01*
X192345616Y-91626760D01*
X192121151Y-91741132D01*
X191917350Y-91889201D01*
X191917345Y-91889205D01*
X191777681Y-92028870D01*
X191716358Y-92062355D01*
X191646666Y-92057371D01*
X191602319Y-92028870D01*
X191462654Y-91889205D01*
X191462649Y-91889201D01*
X191258848Y-91741132D01*
X191258847Y-91741131D01*
X191258845Y-91741130D01*
X191187290Y-91704671D01*
X191034383Y-91626760D01*
X190794785Y-91548910D01*
X190591799Y-91516760D01*
X190545962Y-91509500D01*
X190294038Y-91509500D01*
X190248207Y-91516759D01*
X190045214Y-91548910D01*
X189805616Y-91626760D01*
X189581151Y-91741132D01*
X189377350Y-91889201D01*
X189377345Y-91889205D01*
X189237681Y-92028870D01*
X189176358Y-92062355D01*
X189106666Y-92057371D01*
X189062319Y-92028870D01*
X188922654Y-91889205D01*
X188922649Y-91889201D01*
X188718848Y-91741132D01*
X188718847Y-91741131D01*
X188718845Y-91741130D01*
X188647290Y-91704671D01*
X188494383Y-91626760D01*
X188254785Y-91548910D01*
X188051799Y-91516760D01*
X188005962Y-91509500D01*
X187754038Y-91509500D01*
X187708207Y-91516759D01*
X187505214Y-91548910D01*
X187265616Y-91626760D01*
X187041151Y-91741132D01*
X186837350Y-91889201D01*
X186837345Y-91889205D01*
X186697681Y-92028870D01*
X186636358Y-92062355D01*
X186566666Y-92057371D01*
X186522319Y-92028870D01*
X186382654Y-91889205D01*
X186382649Y-91889201D01*
X186178848Y-91741132D01*
X186178847Y-91741131D01*
X186178845Y-91741130D01*
X186107290Y-91704671D01*
X185954383Y-91626760D01*
X185714785Y-91548910D01*
X185511799Y-91516760D01*
X185465962Y-91509500D01*
X185214038Y-91509500D01*
X185168207Y-91516759D01*
X184965214Y-91548910D01*
X184725616Y-91626760D01*
X184501151Y-91741132D01*
X184297350Y-91889201D01*
X184297345Y-91889205D01*
X184157681Y-92028870D01*
X184096358Y-92062355D01*
X184026666Y-92057371D01*
X183982319Y-92028870D01*
X183842654Y-91889205D01*
X183842649Y-91889201D01*
X183638848Y-91741132D01*
X183638847Y-91741131D01*
X183638845Y-91741130D01*
X183567290Y-91704671D01*
X183414383Y-91626760D01*
X183174785Y-91548910D01*
X182971799Y-91516760D01*
X182925962Y-91509500D01*
X182674038Y-91509500D01*
X182628207Y-91516759D01*
X182425214Y-91548910D01*
X182185616Y-91626760D01*
X181961149Y-91741132D01*
X181945254Y-91752681D01*
X181879447Y-91776159D01*
X181811394Y-91760332D01*
X181773106Y-91726673D01*
X181717546Y-91652454D01*
X181689061Y-91631130D01*
X181602335Y-91566206D01*
X181602328Y-91566202D01*
X181467482Y-91515908D01*
X181467483Y-91515908D01*
X181407883Y-91509501D01*
X181407881Y-91509500D01*
X181407873Y-91509500D01*
X181407864Y-91509500D01*
X179112129Y-91509500D01*
X179112123Y-91509501D01*
X179052516Y-91515908D01*
X178917671Y-91566202D01*
X178917664Y-91566206D01*
X178802455Y-91652452D01*
X178802452Y-91652455D01*
X178716206Y-91767664D01*
X178716202Y-91767671D01*
X178665908Y-91902517D01*
X178659501Y-91962116D01*
X178659500Y-91962135D01*
X172010499Y-91962135D01*
X172010499Y-91902128D01*
X172004091Y-91842517D01*
X172001936Y-91836740D01*
X171953797Y-91707671D01*
X171953793Y-91707664D01*
X171867547Y-91592455D01*
X171867544Y-91592452D01*
X171752335Y-91506206D01*
X171752328Y-91506202D01*
X171617482Y-91455908D01*
X171617483Y-91455908D01*
X171557883Y-91449501D01*
X171557881Y-91449500D01*
X171557873Y-91449500D01*
X171557864Y-91449500D01*
X169362129Y-91449500D01*
X169362123Y-91449501D01*
X169302516Y-91455908D01*
X169167671Y-91506202D01*
X169167664Y-91506206D01*
X169052455Y-91592452D01*
X169003523Y-91657817D01*
X168947589Y-91699687D01*
X168877897Y-91704671D01*
X168831372Y-91683823D01*
X168758848Y-91631132D01*
X168758847Y-91631131D01*
X168758845Y-91631130D01*
X168665560Y-91583599D01*
X168534383Y-91516760D01*
X168294785Y-91438910D01*
X168250734Y-91431933D01*
X168045962Y-91399500D01*
X167794038Y-91399500D01*
X167669626Y-91419205D01*
X167545214Y-91438910D01*
X167305616Y-91516760D01*
X167081151Y-91631132D01*
X166877350Y-91779201D01*
X166877345Y-91779205D01*
X166699205Y-91957345D01*
X166699201Y-91957350D01*
X166551132Y-92161151D01*
X166436760Y-92385616D01*
X166358910Y-92625214D01*
X166319500Y-92874038D01*
X157615107Y-92874038D01*
X157533343Y-92713567D01*
X157394517Y-92522490D01*
X157227510Y-92355483D01*
X157036433Y-92216657D01*
X156825996Y-92109433D01*
X156601368Y-92036446D01*
X156368097Y-91999500D01*
X156368092Y-91999500D01*
X156131908Y-91999500D01*
X156131903Y-91999500D01*
X155898631Y-92036446D01*
X155674003Y-92109433D01*
X155463566Y-92216657D01*
X155388557Y-92271155D01*
X155272490Y-92355483D01*
X155272488Y-92355485D01*
X155272487Y-92355485D01*
X155105485Y-92522487D01*
X155105485Y-92522488D01*
X155105483Y-92522490D01*
X155088972Y-92545216D01*
X154966657Y-92713566D01*
X154859433Y-92924003D01*
X154786446Y-93148631D01*
X154749500Y-93381902D01*
X154749500Y-93618097D01*
X154786446Y-93851368D01*
X154859433Y-94075996D01*
X154966658Y-94286435D01*
X154975816Y-94299039D01*
X154999298Y-94364844D01*
X154999500Y-94371927D01*
X154999500Y-94876000D01*
X154979815Y-94943039D01*
X154927011Y-94988794D01*
X154875500Y-95000000D01*
X142000000Y-95000000D01*
X136057451Y-98631558D01*
X133029770Y-100481807D01*
X132965110Y-100500000D01*
X122000000Y-100500000D01*
X122000000Y-112295678D01*
X121980315Y-112362717D01*
X121927511Y-112408472D01*
X121858353Y-112418416D01*
X121794797Y-112389391D01*
X121758069Y-112333997D01*
X121746539Y-112298511D01*
X121639351Y-112088144D01*
X121638607Y-112087119D01*
X120856437Y-112869289D01*
X120856437Y-112808490D01*
X120822362Y-112681323D01*
X120756536Y-112567309D01*
X120663444Y-112474217D01*
X120549430Y-112408391D01*
X120422263Y-112374316D01*
X120361464Y-112374316D01*
X121143632Y-111592146D01*
X121143632Y-111592143D01*
X121142615Y-111591405D01*
X120932239Y-111484213D01*
X120707684Y-111411250D01*
X120707685Y-111411250D01*
X120474489Y-111374316D01*
X120238385Y-111374316D01*
X120005189Y-111411250D01*
X119780634Y-111484213D01*
X119570270Y-111591399D01*
X119570267Y-111591400D01*
X119569240Y-111592145D01*
X120351411Y-112374316D01*
X120290611Y-112374316D01*
X120163444Y-112408391D01*
X120049430Y-112474217D01*
X119956338Y-112567309D01*
X119890512Y-112681323D01*
X119856437Y-112808490D01*
X119856437Y-112869290D01*
X119074266Y-112087119D01*
X119073521Y-112088146D01*
X119073520Y-112088149D01*
X118966334Y-112298513D01*
X118893371Y-112523068D01*
X118856437Y-112756263D01*
X118856437Y-112992368D01*
X118893371Y-113225563D01*
X118966334Y-113450118D01*
X119073526Y-113660494D01*
X119074264Y-113661511D01*
X119074267Y-113661511D01*
X119856437Y-112879341D01*
X119856437Y-112940142D01*
X119890512Y-113067309D01*
X119956338Y-113181323D01*
X120049430Y-113274415D01*
X120163444Y-113340241D01*
X120290611Y-113374316D01*
X120351411Y-113374316D01*
X119569240Y-114156486D01*
X119570265Y-114157230D01*
X119780634Y-114264418D01*
X120005189Y-114337381D01*
X120005188Y-114337381D01*
X120238385Y-114374316D01*
X120474489Y-114374316D01*
X120707684Y-114337381D01*
X120932239Y-114264418D01*
X121142608Y-114157230D01*
X121142612Y-114157227D01*
X121143632Y-114156486D01*
X121143632Y-114156484D01*
X120361463Y-113374316D01*
X120422263Y-113374316D01*
X120549430Y-113340241D01*
X120663444Y-113274415D01*
X120756536Y-113181323D01*
X120822362Y-113067309D01*
X120856437Y-112940142D01*
X120856437Y-112879342D01*
X121638605Y-113661511D01*
X121638607Y-113661511D01*
X121639348Y-113660491D01*
X121639351Y-113660487D01*
X121746539Y-113450118D01*
X121758069Y-113414635D01*
X121797506Y-113356960D01*
X121861865Y-113329761D01*
X121930711Y-113341675D01*
X121982187Y-113388919D01*
X122000000Y-113452953D01*
X122000000Y-115493717D01*
X121980315Y-115560756D01*
X121963681Y-115581398D01*
X119167274Y-118377804D01*
X119105951Y-118411289D01*
X119036259Y-118406305D01*
X119005831Y-118389453D01*
X119005816Y-118389477D01*
X119005540Y-118389292D01*
X119004109Y-118388500D01*
X119002450Y-118387227D01*
X119002446Y-118387224D01*
X119002440Y-118387220D01*
X118798056Y-118269219D01*
X118798045Y-118269214D01*
X118579993Y-118178894D01*
X118448670Y-118143706D01*
X118352014Y-118117807D01*
X118352013Y-118117806D01*
X118352010Y-118117806D01*
X118118020Y-118087001D01*
X118118017Y-118087000D01*
X118118011Y-118087000D01*
X117881989Y-118087000D01*
X117881983Y-118087000D01*
X117881979Y-118087001D01*
X117647989Y-118117806D01*
X117420006Y-118178894D01*
X117201954Y-118269214D01*
X117201943Y-118269219D01*
X116997545Y-118387230D01*
X116810302Y-118530906D01*
X116810295Y-118530912D01*
X116643412Y-118697795D01*
X116643406Y-118697802D01*
X116499730Y-118885045D01*
X116381719Y-119089443D01*
X116381712Y-119089458D01*
X116364289Y-119131520D01*
X116320447Y-119185922D01*
X116254153Y-119207986D01*
X116186454Y-119190706D01*
X116138844Y-119139568D01*
X116135168Y-119131517D01*
X116117839Y-119089680D01*
X116117831Y-119089664D01*
X115999855Y-118885326D01*
X115999852Y-118885321D01*
X115998679Y-118883793D01*
X115998678Y-118883793D01*
X115134900Y-119747571D01*
X115125021Y-119697902D01*
X115076022Y-119579610D01*
X115004888Y-119473149D01*
X114914351Y-119382612D01*
X114807890Y-119311478D01*
X114689598Y-119262479D01*
X114639927Y-119252599D01*
X115503704Y-118388820D01*
X115503704Y-118388819D01*
X115502180Y-118387650D01*
X115502176Y-118387647D01*
X115297828Y-118269665D01*
X115297819Y-118269660D01*
X115079836Y-118179370D01*
X115079838Y-118179370D01*
X114851914Y-118118299D01*
X114617985Y-118087500D01*
X114382014Y-118087500D01*
X114148085Y-118118299D01*
X113920162Y-118179370D01*
X113702180Y-118269660D01*
X113702171Y-118269665D01*
X113497823Y-118387647D01*
X113496294Y-118388819D01*
X113496293Y-118388820D01*
X114360072Y-119252598D01*
X114310402Y-119262479D01*
X114192110Y-119311478D01*
X114085649Y-119382612D01*
X113995112Y-119473149D01*
X113923978Y-119579610D01*
X113874979Y-119697902D01*
X113865099Y-119747572D01*
X113001320Y-118883793D01*
X112982703Y-118885018D01*
X112966498Y-118896862D01*
X112896754Y-118901047D01*
X112835818Y-118866861D01*
X112803039Y-118805158D01*
X112800499Y-118780191D01*
X112800499Y-118539629D01*
X112800498Y-118539623D01*
X112800497Y-118539616D01*
X112794091Y-118480017D01*
X112760077Y-118388820D01*
X112743797Y-118345171D01*
X112743793Y-118345164D01*
X112657547Y-118229955D01*
X112657544Y-118229952D01*
X112542335Y-118143706D01*
X112542328Y-118143702D01*
X112407482Y-118093408D01*
X112407483Y-118093408D01*
X112347883Y-118087001D01*
X112347881Y-118087000D01*
X112347873Y-118087000D01*
X112347865Y-118087000D01*
X112124500Y-118087000D01*
X112057461Y-118067315D01*
X112011706Y-118014511D01*
X112000500Y-117963000D01*
X112000500Y-114172889D01*
X112009144Y-114143448D01*
X112015668Y-114113462D01*
X112019422Y-114108446D01*
X112020185Y-114105850D01*
X112036819Y-114085208D01*
X112100474Y-114021553D01*
X112144517Y-113977510D01*
X112283343Y-113786433D01*
X112390568Y-113575992D01*
X112463553Y-113351368D01*
X112474982Y-113279207D01*
X112500500Y-113118097D01*
X112500500Y-112881902D01*
X112482901Y-112770789D01*
X112463553Y-112648631D01*
X112390566Y-112424003D01*
X112283342Y-112213566D01*
X112144517Y-112022490D01*
X111977510Y-111855483D01*
X111786433Y-111716657D01*
X111575996Y-111609433D01*
X111351368Y-111536446D01*
X111118097Y-111499500D01*
X111118092Y-111499500D01*
X110881908Y-111499500D01*
X110881903Y-111499500D01*
X110648631Y-111536446D01*
X110424003Y-111609433D01*
X110213566Y-111716657D01*
X110104550Y-111795862D01*
X110022490Y-111855483D01*
X110022488Y-111855485D01*
X110022487Y-111855485D01*
X109855485Y-112022487D01*
X109855485Y-112022488D01*
X109855483Y-112022490D01*
X109807781Y-112088146D01*
X109716657Y-112213566D01*
X109609433Y-112424003D01*
X109536446Y-112648631D01*
X109499500Y-112881902D01*
X109499500Y-113118097D01*
X109536446Y-113351368D01*
X109609433Y-113575996D01*
X109701035Y-113755774D01*
X109716657Y-113786433D01*
X109855483Y-113977510D01*
X109855485Y-113977512D01*
X109963181Y-114085208D01*
X109996666Y-114146531D01*
X109999500Y-114172889D01*
X109999500Y-117963000D01*
X109979815Y-118030039D01*
X109927011Y-118075794D01*
X109875501Y-118087000D01*
X109652130Y-118087000D01*
X109652123Y-118087001D01*
X109592516Y-118093408D01*
X109457671Y-118143702D01*
X109457664Y-118143706D01*
X109342455Y-118229952D01*
X109342452Y-118229955D01*
X109256206Y-118345164D01*
X109256202Y-118345171D01*
X109205908Y-118480017D01*
X109200437Y-118530908D01*
X109199501Y-118539623D01*
X109199500Y-118539635D01*
X100000500Y-118539635D01*
X100000500Y-89875441D01*
X135099500Y-89875441D01*
X135099500Y-90124558D01*
X135099501Y-90124575D01*
X135132017Y-90371561D01*
X135196498Y-90612207D01*
X135291830Y-90842361D01*
X135291837Y-90842376D01*
X135416400Y-91058126D01*
X135568060Y-91255774D01*
X135568066Y-91255781D01*
X135744218Y-91431933D01*
X135744225Y-91431939D01*
X135941873Y-91583599D01*
X136157623Y-91708162D01*
X136157638Y-91708169D01*
X136238240Y-91741555D01*
X136387793Y-91803502D01*
X136628435Y-91867982D01*
X136875435Y-91900500D01*
X136875442Y-91900500D01*
X137124558Y-91900500D01*
X137124565Y-91900500D01*
X137371565Y-91867982D01*
X137612207Y-91803502D01*
X137842373Y-91708164D01*
X138058127Y-91583599D01*
X138255776Y-91431938D01*
X138431938Y-91255776D01*
X138583599Y-91058127D01*
X138708164Y-90842373D01*
X138803502Y-90612207D01*
X138867982Y-90371565D01*
X138900500Y-90124565D01*
X138900500Y-89881902D01*
X174749500Y-89881902D01*
X174749500Y-90118097D01*
X174786446Y-90351368D01*
X174859433Y-90575996D01*
X174877884Y-90612207D01*
X174966657Y-90786433D01*
X175105483Y-90977510D01*
X175272490Y-91144517D01*
X175463567Y-91283343D01*
X175562991Y-91334002D01*
X175674003Y-91390566D01*
X175674005Y-91390566D01*
X175674008Y-91390568D01*
X175794412Y-91429689D01*
X175898631Y-91463553D01*
X176131903Y-91500500D01*
X176131908Y-91500500D01*
X176368097Y-91500500D01*
X176601368Y-91463553D01*
X176644615Y-91449501D01*
X176825992Y-91390568D01*
X177036433Y-91283343D01*
X177227510Y-91144517D01*
X177394517Y-90977510D01*
X177533343Y-90786433D01*
X177640568Y-90575992D01*
X177713553Y-90351368D01*
X177750500Y-90118097D01*
X177750500Y-89881902D01*
X177713553Y-89648631D01*
X177640566Y-89424003D01*
X177533342Y-89213566D01*
X177394517Y-89022490D01*
X177286819Y-88914792D01*
X177253334Y-88853469D01*
X177250500Y-88827111D01*
X177250500Y-85742135D01*
X178619500Y-85742135D01*
X178619500Y-88037870D01*
X178619501Y-88037876D01*
X178625908Y-88097483D01*
X178676202Y-88232328D01*
X178676206Y-88232335D01*
X178762452Y-88347544D01*
X178762455Y-88347547D01*
X178877664Y-88433793D01*
X178877671Y-88433797D01*
X179012517Y-88484091D01*
X179012516Y-88484091D01*
X179019444Y-88484835D01*
X179072127Y-88490500D01*
X181367872Y-88490499D01*
X181427483Y-88484091D01*
X181562331Y-88433796D01*
X181677546Y-88347546D01*
X181733108Y-88273324D01*
X181789039Y-88231456D01*
X181858730Y-88226472D01*
X181905257Y-88247319D01*
X181921155Y-88258870D01*
X182027206Y-88312905D01*
X182145616Y-88373239D01*
X182145618Y-88373239D01*
X182145621Y-88373241D01*
X182385215Y-88451090D01*
X182634038Y-88490500D01*
X182634039Y-88490500D01*
X182885961Y-88490500D01*
X182885962Y-88490500D01*
X183134785Y-88451090D01*
X183374379Y-88373241D01*
X183598845Y-88258870D01*
X183802656Y-88110793D01*
X183942319Y-87971130D01*
X184003642Y-87937645D01*
X184073334Y-87942629D01*
X184117681Y-87971130D01*
X184257345Y-88110794D01*
X184257350Y-88110798D01*
X184329557Y-88163259D01*
X184461155Y-88258870D01*
X184604184Y-88331747D01*
X184685616Y-88373239D01*
X184685618Y-88373239D01*
X184685621Y-88373241D01*
X184925215Y-88451090D01*
X185174038Y-88490500D01*
X185174039Y-88490500D01*
X185425961Y-88490500D01*
X185425962Y-88490500D01*
X185674785Y-88451090D01*
X185914379Y-88373241D01*
X186138845Y-88258870D01*
X186342656Y-88110793D01*
X186482319Y-87971130D01*
X186543642Y-87937645D01*
X186613334Y-87942629D01*
X186657681Y-87971130D01*
X186797345Y-88110794D01*
X186797350Y-88110798D01*
X186869557Y-88163259D01*
X187001155Y-88258870D01*
X187144184Y-88331747D01*
X187225616Y-88373239D01*
X187225618Y-88373239D01*
X187225621Y-88373241D01*
X187465215Y-88451090D01*
X187714038Y-88490500D01*
X187714039Y-88490500D01*
X187965961Y-88490500D01*
X187965962Y-88490500D01*
X188214785Y-88451090D01*
X188454379Y-88373241D01*
X188678845Y-88258870D01*
X188882656Y-88110793D01*
X189022319Y-87971130D01*
X189083642Y-87937645D01*
X189153334Y-87942629D01*
X189197681Y-87971130D01*
X189337345Y-88110794D01*
X189337350Y-88110798D01*
X189409557Y-88163259D01*
X189541155Y-88258870D01*
X189684184Y-88331747D01*
X189765616Y-88373239D01*
X189765618Y-88373239D01*
X189765621Y-88373241D01*
X190005215Y-88451090D01*
X190254038Y-88490500D01*
X190254039Y-88490500D01*
X190505961Y-88490500D01*
X190505962Y-88490500D01*
X190754785Y-88451090D01*
X190994379Y-88373241D01*
X191218845Y-88258870D01*
X191422656Y-88110793D01*
X191562319Y-87971130D01*
X191623642Y-87937645D01*
X191693334Y-87942629D01*
X191737681Y-87971130D01*
X191877345Y-88110794D01*
X191877350Y-88110798D01*
X191949557Y-88163259D01*
X192081155Y-88258870D01*
X192224184Y-88331747D01*
X192305616Y-88373239D01*
X192305618Y-88373239D01*
X192305621Y-88373241D01*
X192545215Y-88451090D01*
X192794038Y-88490500D01*
X192794039Y-88490500D01*
X193045961Y-88490500D01*
X193045962Y-88490500D01*
X193294785Y-88451090D01*
X193534379Y-88373241D01*
X193758845Y-88258870D01*
X193962656Y-88110793D01*
X194102319Y-87971130D01*
X194163642Y-87937645D01*
X194233334Y-87942629D01*
X194277681Y-87971130D01*
X194417345Y-88110794D01*
X194417350Y-88110798D01*
X194489557Y-88163259D01*
X194621155Y-88258870D01*
X194764184Y-88331747D01*
X194845616Y-88373239D01*
X194845618Y-88373239D01*
X194845621Y-88373241D01*
X195085215Y-88451090D01*
X195334038Y-88490500D01*
X195334039Y-88490500D01*
X195585961Y-88490500D01*
X195585962Y-88490500D01*
X195834785Y-88451090D01*
X196074379Y-88373241D01*
X196298845Y-88258870D01*
X196502656Y-88110793D01*
X196680793Y-87932656D01*
X196828870Y-87728845D01*
X196943241Y-87504379D01*
X196959356Y-87454781D01*
X196989606Y-87405418D01*
X197500000Y-86895024D01*
X197500000Y-86955826D01*
X197534075Y-87082993D01*
X197599901Y-87197007D01*
X197692993Y-87290099D01*
X197807007Y-87355925D01*
X197934174Y-87390000D01*
X197994974Y-87390000D01*
X197141211Y-88243762D01*
X197141211Y-88243763D01*
X197161410Y-88258439D01*
X197385815Y-88372780D01*
X197625330Y-88450602D01*
X197874072Y-88490000D01*
X198125928Y-88490000D01*
X198374669Y-88450602D01*
X198614184Y-88372780D01*
X198838575Y-88258446D01*
X198838588Y-88258438D01*
X198858787Y-88243763D01*
X198858788Y-88243761D01*
X198005027Y-87390000D01*
X198065826Y-87390000D01*
X198192993Y-87355925D01*
X198307007Y-87290099D01*
X198400099Y-87197007D01*
X198465925Y-87082993D01*
X198500000Y-86955826D01*
X198500000Y-86895026D01*
X199353761Y-87748788D01*
X199353763Y-87748787D01*
X199368438Y-87728588D01*
X199368446Y-87728575D01*
X199482780Y-87504184D01*
X199560602Y-87264669D01*
X199600000Y-87015928D01*
X199600000Y-86764071D01*
X199560602Y-86515330D01*
X199482780Y-86275815D01*
X199368439Y-86051410D01*
X199353763Y-86031211D01*
X199353762Y-86031211D01*
X198500000Y-86884973D01*
X198500000Y-86824174D01*
X198465925Y-86697007D01*
X198400099Y-86582993D01*
X198307007Y-86489901D01*
X198192993Y-86424075D01*
X198065826Y-86390000D01*
X198005026Y-86390000D01*
X198858788Y-85536237D01*
X198858787Y-85536236D01*
X198838585Y-85521558D01*
X198614184Y-85407219D01*
X198374669Y-85329397D01*
X198125928Y-85290000D01*
X197874072Y-85290000D01*
X197625330Y-85329397D01*
X197385815Y-85407219D01*
X197161419Y-85521555D01*
X197141211Y-85536235D01*
X197141211Y-85536236D01*
X197994975Y-86390000D01*
X197934174Y-86390000D01*
X197807007Y-86424075D01*
X197692993Y-86489901D01*
X197599901Y-86582993D01*
X197534075Y-86697007D01*
X197500000Y-86824174D01*
X197500000Y-86884974D01*
X196989605Y-86374579D01*
X196959355Y-86325216D01*
X196943241Y-86275621D01*
X196828870Y-86051155D01*
X196749472Y-85941873D01*
X196680798Y-85847350D01*
X196680794Y-85847345D01*
X196502654Y-85669205D01*
X196502649Y-85669201D01*
X196298848Y-85521132D01*
X196298847Y-85521131D01*
X196298845Y-85521130D01*
X196228747Y-85485413D01*
X196074383Y-85406760D01*
X195834785Y-85328910D01*
X195585962Y-85289500D01*
X195334038Y-85289500D01*
X195209626Y-85309205D01*
X195085214Y-85328910D01*
X194845616Y-85406760D01*
X194621151Y-85521132D01*
X194417350Y-85669201D01*
X194417345Y-85669205D01*
X194277681Y-85808870D01*
X194216358Y-85842355D01*
X194146666Y-85837371D01*
X194102319Y-85808870D01*
X193962654Y-85669205D01*
X193962649Y-85669201D01*
X193758848Y-85521132D01*
X193758847Y-85521131D01*
X193758845Y-85521130D01*
X193688747Y-85485413D01*
X193534383Y-85406760D01*
X193294785Y-85328910D01*
X193045962Y-85289500D01*
X192794038Y-85289500D01*
X192669626Y-85309205D01*
X192545214Y-85328910D01*
X192305616Y-85406760D01*
X192081151Y-85521132D01*
X191877350Y-85669201D01*
X191877345Y-85669205D01*
X191737681Y-85808870D01*
X191676358Y-85842355D01*
X191606666Y-85837371D01*
X191562319Y-85808870D01*
X191422654Y-85669205D01*
X191422649Y-85669201D01*
X191218848Y-85521132D01*
X191218847Y-85521131D01*
X191218845Y-85521130D01*
X191148747Y-85485413D01*
X190994383Y-85406760D01*
X190754785Y-85328910D01*
X190505962Y-85289500D01*
X190254038Y-85289500D01*
X190129626Y-85309205D01*
X190005214Y-85328910D01*
X189765616Y-85406760D01*
X189541151Y-85521132D01*
X189337350Y-85669201D01*
X189337345Y-85669205D01*
X189197681Y-85808870D01*
X189136358Y-85842355D01*
X189066666Y-85837371D01*
X189022319Y-85808870D01*
X188882654Y-85669205D01*
X188882649Y-85669201D01*
X188678848Y-85521132D01*
X188678847Y-85521131D01*
X188678845Y-85521130D01*
X188608747Y-85485413D01*
X188454383Y-85406760D01*
X188214785Y-85328910D01*
X187965962Y-85289500D01*
X187714038Y-85289500D01*
X187589626Y-85309205D01*
X187465214Y-85328910D01*
X187225616Y-85406760D01*
X187001151Y-85521132D01*
X186797350Y-85669201D01*
X186797345Y-85669205D01*
X186657681Y-85808870D01*
X186596358Y-85842355D01*
X186526666Y-85837371D01*
X186482319Y-85808870D01*
X186342654Y-85669205D01*
X186342649Y-85669201D01*
X186138848Y-85521132D01*
X186138847Y-85521131D01*
X186138845Y-85521130D01*
X186068747Y-85485413D01*
X185914383Y-85406760D01*
X185674785Y-85328910D01*
X185425962Y-85289500D01*
X185174038Y-85289500D01*
X185049626Y-85309205D01*
X184925214Y-85328910D01*
X184685616Y-85406760D01*
X184461151Y-85521132D01*
X184257350Y-85669201D01*
X184257345Y-85669205D01*
X184117681Y-85808870D01*
X184056358Y-85842355D01*
X183986666Y-85837371D01*
X183942319Y-85808870D01*
X183802654Y-85669205D01*
X183802649Y-85669201D01*
X183598848Y-85521132D01*
X183598847Y-85521131D01*
X183598845Y-85521130D01*
X183528747Y-85485413D01*
X183374383Y-85406760D01*
X183134785Y-85328910D01*
X182885962Y-85289500D01*
X182634038Y-85289500D01*
X182509626Y-85309205D01*
X182385214Y-85328910D01*
X182145616Y-85406760D01*
X181921149Y-85521132D01*
X181905254Y-85532681D01*
X181839447Y-85556159D01*
X181771394Y-85540332D01*
X181733106Y-85506673D01*
X181677546Y-85432454D01*
X181654709Y-85415358D01*
X181562335Y-85346206D01*
X181562328Y-85346202D01*
X181427482Y-85295908D01*
X181427483Y-85295908D01*
X181367883Y-85289501D01*
X181367881Y-85289500D01*
X181367873Y-85289500D01*
X181367864Y-85289500D01*
X179072129Y-85289500D01*
X179072123Y-85289501D01*
X179012516Y-85295908D01*
X178877671Y-85346202D01*
X178877664Y-85346206D01*
X178762455Y-85432452D01*
X178762452Y-85432455D01*
X178676206Y-85547664D01*
X178676202Y-85547671D01*
X178625908Y-85682517D01*
X178619501Y-85742116D01*
X178619500Y-85742135D01*
X177250500Y-85742135D01*
X177250500Y-85715782D01*
X177270185Y-85648743D01*
X177286819Y-85628101D01*
X180539479Y-82375441D01*
X185599500Y-82375441D01*
X185599500Y-82624558D01*
X185599501Y-82624575D01*
X185632017Y-82871561D01*
X185696498Y-83112207D01*
X185791830Y-83342361D01*
X185791837Y-83342376D01*
X185916400Y-83558126D01*
X186068060Y-83755774D01*
X186068066Y-83755781D01*
X186244218Y-83931933D01*
X186244225Y-83931939D01*
X186441873Y-84083599D01*
X186657623Y-84208162D01*
X186657638Y-84208169D01*
X186756825Y-84249253D01*
X186887793Y-84303502D01*
X187128435Y-84367982D01*
X187375435Y-84400500D01*
X187375442Y-84400500D01*
X187624558Y-84400500D01*
X187624565Y-84400500D01*
X187871565Y-84367982D01*
X188112207Y-84303502D01*
X188342373Y-84208164D01*
X188558127Y-84083599D01*
X188755776Y-83931938D01*
X188931938Y-83755776D01*
X189083599Y-83558127D01*
X189208164Y-83342373D01*
X189303502Y-83112207D01*
X189367982Y-82871565D01*
X189400500Y-82624565D01*
X189400500Y-82375435D01*
X189367982Y-82128435D01*
X189303502Y-81887793D01*
X189208164Y-81657627D01*
X189083599Y-81441873D01*
X188931938Y-81244224D01*
X188931933Y-81244218D01*
X188755781Y-81068066D01*
X188755774Y-81068060D01*
X188558126Y-80916400D01*
X188342376Y-80791837D01*
X188342361Y-80791830D01*
X188112207Y-80696498D01*
X187871561Y-80632017D01*
X187624575Y-80599501D01*
X187624570Y-80599500D01*
X187624565Y-80599500D01*
X187375435Y-80599500D01*
X187375429Y-80599500D01*
X187375424Y-80599501D01*
X187128438Y-80632017D01*
X186887792Y-80696498D01*
X186657638Y-80791830D01*
X186657623Y-80791837D01*
X186441873Y-80916400D01*
X186244225Y-81068060D01*
X186244218Y-81068066D01*
X186068066Y-81244218D01*
X186068060Y-81244225D01*
X185916400Y-81441873D01*
X185791837Y-81657623D01*
X185791830Y-81657638D01*
X185696498Y-81887792D01*
X185632017Y-82128438D01*
X185599501Y-82375424D01*
X185599500Y-82375441D01*
X180539479Y-82375441D01*
X180631225Y-82283695D01*
X186849263Y-76065658D01*
X196237140Y-66677781D01*
X196346632Y-66513914D01*
X196422052Y-66331835D01*
X196460501Y-66138540D01*
X196460501Y-65941459D01*
X196460501Y-65936349D01*
X196460500Y-65936323D01*
X196460500Y-65343962D01*
X196469528Y-65313213D01*
X196477055Y-65282063D01*
X196479561Y-65279046D01*
X196480185Y-65276923D01*
X196498846Y-65254300D01*
X196502074Y-65251215D01*
X196502656Y-65250793D01*
X196680793Y-65072656D01*
X196828870Y-64868845D01*
X196943241Y-64644379D01*
X196959356Y-64594781D01*
X196989606Y-64545418D01*
X197500000Y-64035024D01*
X197500000Y-64095826D01*
X197534075Y-64222993D01*
X197599901Y-64337007D01*
X197692993Y-64430099D01*
X197807007Y-64495925D01*
X197934174Y-64530000D01*
X197994974Y-64530000D01*
X197141211Y-65383762D01*
X197141211Y-65383763D01*
X197161410Y-65398439D01*
X197385815Y-65512780D01*
X197625330Y-65590602D01*
X197874072Y-65630000D01*
X198125928Y-65630000D01*
X198374669Y-65590602D01*
X198614184Y-65512780D01*
X198838575Y-65398446D01*
X198838588Y-65398438D01*
X198858787Y-65383763D01*
X198858788Y-65383761D01*
X198005027Y-64530000D01*
X198065826Y-64530000D01*
X198192993Y-64495925D01*
X198307007Y-64430099D01*
X198400099Y-64337007D01*
X198465925Y-64222993D01*
X198500000Y-64095826D01*
X198500000Y-64035026D01*
X199353761Y-64888788D01*
X199353763Y-64888787D01*
X199368438Y-64868588D01*
X199368446Y-64868575D01*
X199482780Y-64644184D01*
X199560602Y-64404669D01*
X199600000Y-64155928D01*
X199600000Y-63904071D01*
X199560602Y-63655330D01*
X199482780Y-63415815D01*
X199368439Y-63191410D01*
X199353763Y-63171211D01*
X199353762Y-63171211D01*
X198500000Y-64024973D01*
X198500000Y-63964174D01*
X198465925Y-63837007D01*
X198400099Y-63722993D01*
X198307007Y-63629901D01*
X198192993Y-63564075D01*
X198065826Y-63530000D01*
X198005026Y-63530000D01*
X198858788Y-62676237D01*
X198858787Y-62676236D01*
X198838585Y-62661558D01*
X198614184Y-62547219D01*
X198374669Y-62469397D01*
X198125928Y-62430000D01*
X197874072Y-62430000D01*
X197625330Y-62469397D01*
X197385815Y-62547219D01*
X197161419Y-62661555D01*
X197141211Y-62676235D01*
X197141211Y-62676236D01*
X197994975Y-63530000D01*
X197934174Y-63530000D01*
X197807007Y-63564075D01*
X197692993Y-63629901D01*
X197599901Y-63722993D01*
X197534075Y-63837007D01*
X197500000Y-63964174D01*
X197500000Y-64024974D01*
X196989605Y-63514579D01*
X196959355Y-63465216D01*
X196954680Y-63450827D01*
X196943241Y-63415621D01*
X196828870Y-63191155D01*
X196772005Y-63112887D01*
X196680798Y-62987350D01*
X196680794Y-62987345D01*
X196502654Y-62809205D01*
X196502649Y-62809201D01*
X196298848Y-62661132D01*
X196298847Y-62661131D01*
X196298845Y-62661130D01*
X196228747Y-62625413D01*
X196074383Y-62546760D01*
X195834785Y-62468910D01*
X195585962Y-62429500D01*
X195334038Y-62429500D01*
X195209626Y-62449205D01*
X195085214Y-62468910D01*
X194845616Y-62546760D01*
X194621151Y-62661132D01*
X194417350Y-62809201D01*
X194417345Y-62809205D01*
X194277681Y-62948870D01*
X194216358Y-62982355D01*
X194146666Y-62977371D01*
X194102319Y-62948870D01*
X193962654Y-62809205D01*
X193962649Y-62809201D01*
X193758848Y-62661132D01*
X193758847Y-62661131D01*
X193758845Y-62661130D01*
X193688747Y-62625413D01*
X193534383Y-62546760D01*
X193294785Y-62468910D01*
X193045962Y-62429500D01*
X192794038Y-62429500D01*
X192669626Y-62449205D01*
X192545214Y-62468910D01*
X192305616Y-62546760D01*
X192081151Y-62661132D01*
X191877350Y-62809201D01*
X191877345Y-62809205D01*
X191737681Y-62948870D01*
X191676358Y-62982355D01*
X191606666Y-62977371D01*
X191562319Y-62948870D01*
X191422654Y-62809205D01*
X191422649Y-62809201D01*
X191218848Y-62661132D01*
X191218847Y-62661131D01*
X191218845Y-62661130D01*
X191148747Y-62625413D01*
X190994383Y-62546760D01*
X190754785Y-62468910D01*
X190505962Y-62429500D01*
X190254038Y-62429500D01*
X190129626Y-62449205D01*
X190005214Y-62468910D01*
X189765616Y-62546760D01*
X189541151Y-62661132D01*
X189337350Y-62809201D01*
X189337345Y-62809205D01*
X189197681Y-62948870D01*
X189136358Y-62982355D01*
X189066666Y-62977371D01*
X189022319Y-62948870D01*
X188882654Y-62809205D01*
X188882649Y-62809201D01*
X188678848Y-62661132D01*
X188678847Y-62661131D01*
X188678845Y-62661130D01*
X188608747Y-62625413D01*
X188454383Y-62546760D01*
X188214785Y-62468910D01*
X187965962Y-62429500D01*
X187714038Y-62429500D01*
X187589626Y-62449205D01*
X187465214Y-62468910D01*
X187225616Y-62546760D01*
X187001151Y-62661132D01*
X186797350Y-62809201D01*
X186797345Y-62809205D01*
X186657681Y-62948870D01*
X186596358Y-62982355D01*
X186526666Y-62977371D01*
X186482319Y-62948870D01*
X186342654Y-62809205D01*
X186342649Y-62809201D01*
X186138848Y-62661132D01*
X186138847Y-62661131D01*
X186138845Y-62661130D01*
X186068747Y-62625413D01*
X185914383Y-62546760D01*
X185674785Y-62468910D01*
X185425962Y-62429500D01*
X185174038Y-62429500D01*
X185049626Y-62449205D01*
X184925214Y-62468910D01*
X184685616Y-62546760D01*
X184461151Y-62661132D01*
X184257350Y-62809201D01*
X184257345Y-62809205D01*
X184117681Y-62948870D01*
X184056358Y-62982355D01*
X183986666Y-62977371D01*
X183942319Y-62948870D01*
X183802654Y-62809205D01*
X183802649Y-62809201D01*
X183598848Y-62661132D01*
X183598847Y-62661131D01*
X183598845Y-62661130D01*
X183528747Y-62625413D01*
X183374383Y-62546760D01*
X183134785Y-62468910D01*
X182885962Y-62429500D01*
X182634038Y-62429500D01*
X182509626Y-62449205D01*
X182385214Y-62468910D01*
X182145616Y-62546760D01*
X181921149Y-62661132D01*
X181905254Y-62672681D01*
X181839447Y-62696159D01*
X181771394Y-62680332D01*
X181733106Y-62646673D01*
X181677546Y-62572454D01*
X181654709Y-62555358D01*
X181562335Y-62486206D01*
X181562328Y-62486202D01*
X181427482Y-62435908D01*
X181427483Y-62435908D01*
X181367883Y-62429501D01*
X181367881Y-62429500D01*
X181367873Y-62429500D01*
X181367864Y-62429500D01*
X179072129Y-62429500D01*
X179072123Y-62429501D01*
X179012516Y-62435908D01*
X178877671Y-62486202D01*
X178877664Y-62486206D01*
X178762455Y-62572452D01*
X178762452Y-62572455D01*
X178676206Y-62687664D01*
X178676202Y-62687671D01*
X178625908Y-62822517D01*
X178619501Y-62882116D01*
X178619500Y-62882135D01*
X178619500Y-65177870D01*
X178619501Y-65177876D01*
X178625908Y-65237483D01*
X178676202Y-65372328D01*
X178676206Y-65372335D01*
X178762452Y-65487544D01*
X178762455Y-65487547D01*
X178877664Y-65573793D01*
X178877671Y-65573797D01*
X179012517Y-65624091D01*
X179012516Y-65624091D01*
X179019444Y-65624835D01*
X179072127Y-65630500D01*
X181367872Y-65630499D01*
X181427483Y-65624091D01*
X181562331Y-65573796D01*
X181677546Y-65487546D01*
X181733108Y-65413324D01*
X181789039Y-65371456D01*
X181858730Y-65366472D01*
X181905257Y-65387319D01*
X181921155Y-65398870D01*
X182027206Y-65452905D01*
X182145616Y-65513239D01*
X182145618Y-65513239D01*
X182145621Y-65513241D01*
X182385215Y-65591090D01*
X182634038Y-65630500D01*
X182634039Y-65630500D01*
X182885961Y-65630500D01*
X182885962Y-65630500D01*
X183134785Y-65591090D01*
X183374379Y-65513241D01*
X183598845Y-65398870D01*
X183802656Y-65250793D01*
X183942319Y-65111130D01*
X184003642Y-65077645D01*
X184073334Y-65082629D01*
X184117681Y-65111130D01*
X184257345Y-65250794D01*
X184257350Y-65250798D01*
X184373739Y-65335359D01*
X184461155Y-65398870D01*
X184586342Y-65462656D01*
X184685616Y-65513239D01*
X184685618Y-65513239D01*
X184685621Y-65513241D01*
X184925215Y-65591090D01*
X185174038Y-65630500D01*
X185174039Y-65630500D01*
X185425961Y-65630500D01*
X185425962Y-65630500D01*
X185674785Y-65591090D01*
X185914379Y-65513241D01*
X186138845Y-65398870D01*
X186342656Y-65250793D01*
X186482319Y-65111130D01*
X186543642Y-65077645D01*
X186613334Y-65082629D01*
X186657681Y-65111130D01*
X186797345Y-65250794D01*
X186797350Y-65250798D01*
X186913739Y-65335359D01*
X187001155Y-65398870D01*
X187126342Y-65462656D01*
X187225616Y-65513239D01*
X187225618Y-65513239D01*
X187225621Y-65513241D01*
X187465215Y-65591090D01*
X187714038Y-65630500D01*
X187714039Y-65630500D01*
X187965961Y-65630500D01*
X187965962Y-65630500D01*
X188214785Y-65591090D01*
X188454379Y-65513241D01*
X188678845Y-65398870D01*
X188882656Y-65250793D01*
X189022319Y-65111130D01*
X189083642Y-65077645D01*
X189153334Y-65082629D01*
X189197681Y-65111130D01*
X189337345Y-65250794D01*
X189337350Y-65250798D01*
X189453739Y-65335359D01*
X189541155Y-65398870D01*
X189666342Y-65462656D01*
X189765616Y-65513239D01*
X189765618Y-65513239D01*
X189765621Y-65513241D01*
X190005215Y-65591090D01*
X190254038Y-65630500D01*
X190254039Y-65630500D01*
X190505961Y-65630500D01*
X190505962Y-65630500D01*
X190754785Y-65591090D01*
X190994379Y-65513241D01*
X191218845Y-65398870D01*
X191422656Y-65250793D01*
X191562319Y-65111130D01*
X191623642Y-65077645D01*
X191693334Y-65082629D01*
X191737681Y-65111130D01*
X191877345Y-65250794D01*
X191877350Y-65250798D01*
X191993739Y-65335359D01*
X192081155Y-65398870D01*
X192206342Y-65462656D01*
X192305616Y-65513239D01*
X192305618Y-65513239D01*
X192305621Y-65513241D01*
X192545215Y-65591090D01*
X192794038Y-65630500D01*
X192794039Y-65630500D01*
X193045961Y-65630500D01*
X193045962Y-65630500D01*
X193294785Y-65591090D01*
X193534379Y-65513241D01*
X193758845Y-65398870D01*
X193962656Y-65250793D01*
X194102319Y-65111130D01*
X194110197Y-65106828D01*
X194115570Y-65099633D01*
X194140388Y-65090342D01*
X194163642Y-65077645D01*
X194172597Y-65078285D01*
X194181005Y-65075138D01*
X194206900Y-65080738D01*
X194233334Y-65082629D01*
X194242326Y-65088400D01*
X194249296Y-65089908D01*
X194277325Y-65110864D01*
X194277576Y-65111025D01*
X194417344Y-65250793D01*
X194418580Y-65251691D01*
X194423076Y-65256176D01*
X194437644Y-65282780D01*
X194454225Y-65308180D01*
X194455209Y-65314856D01*
X194456634Y-65317458D01*
X194456297Y-65322240D01*
X194459500Y-65343962D01*
X194459500Y-65574217D01*
X194439815Y-65641256D01*
X194423181Y-65661898D01*
X175612220Y-84472859D01*
X175612218Y-84472861D01*
X175542538Y-84542540D01*
X175472859Y-84612219D01*
X175363371Y-84776079D01*
X175363364Y-84776092D01*
X175287950Y-84958160D01*
X175287947Y-84958170D01*
X175249500Y-85151456D01*
X175249500Y-88827111D01*
X175229815Y-88894150D01*
X175213181Y-88914792D01*
X175105485Y-89022487D01*
X175105485Y-89022488D01*
X175105483Y-89022490D01*
X175045862Y-89104550D01*
X174966657Y-89213566D01*
X174859433Y-89424003D01*
X174786446Y-89648631D01*
X174749500Y-89881902D01*
X138900500Y-89881902D01*
X138900500Y-89875435D01*
X138867982Y-89628435D01*
X138803502Y-89387793D01*
X138708164Y-89157627D01*
X138583599Y-88941873D01*
X138562819Y-88914792D01*
X138431939Y-88744225D01*
X138431933Y-88744218D01*
X138255781Y-88568066D01*
X138255774Y-88568060D01*
X138058126Y-88416400D01*
X137842376Y-88291837D01*
X137842361Y-88291830D01*
X137612207Y-88196498D01*
X137371561Y-88132017D01*
X137124575Y-88099501D01*
X137124570Y-88099500D01*
X137124565Y-88099500D01*
X136875435Y-88099500D01*
X136875429Y-88099500D01*
X136875424Y-88099501D01*
X136628438Y-88132017D01*
X136387792Y-88196498D01*
X136157638Y-88291830D01*
X136157623Y-88291837D01*
X135941873Y-88416400D01*
X135744225Y-88568060D01*
X135744218Y-88568066D01*
X135568066Y-88744218D01*
X135568060Y-88744225D01*
X135416400Y-88941873D01*
X135291837Y-89157623D01*
X135291830Y-89157638D01*
X135196498Y-89387792D01*
X135132017Y-89628438D01*
X135099501Y-89875424D01*
X135099500Y-89875441D01*
X100000500Y-89875441D01*
X100000500Y-86875441D01*
X165099500Y-86875441D01*
X165099500Y-87124558D01*
X165099501Y-87124575D01*
X165121292Y-87290099D01*
X165132018Y-87371565D01*
X165196498Y-87612207D01*
X165291830Y-87842361D01*
X165291837Y-87842376D01*
X165416400Y-88058126D01*
X165568060Y-88255774D01*
X165568066Y-88255781D01*
X165744218Y-88431933D01*
X165744225Y-88431939D01*
X165941873Y-88583599D01*
X166157623Y-88708162D01*
X166157638Y-88708169D01*
X166244669Y-88744218D01*
X166387793Y-88803502D01*
X166628435Y-88867982D01*
X166875435Y-88900500D01*
X166875442Y-88900500D01*
X167124558Y-88900500D01*
X167124565Y-88900500D01*
X167371565Y-88867982D01*
X167612207Y-88803502D01*
X167842373Y-88708164D01*
X168058127Y-88583599D01*
X168255776Y-88431938D01*
X168431938Y-88255776D01*
X168583599Y-88058127D01*
X168708164Y-87842373D01*
X168803502Y-87612207D01*
X168867982Y-87371565D01*
X168900500Y-87124565D01*
X168900500Y-86875435D01*
X168867982Y-86628435D01*
X168803502Y-86387793D01*
X168708164Y-86157627D01*
X168646690Y-86051151D01*
X168583599Y-85941873D01*
X168431939Y-85744225D01*
X168431933Y-85744218D01*
X168255781Y-85568066D01*
X168255774Y-85568060D01*
X168058126Y-85416400D01*
X167842376Y-85291837D01*
X167842361Y-85291830D01*
X167612207Y-85196498D01*
X167371565Y-85132018D01*
X167371564Y-85132017D01*
X167371561Y-85132017D01*
X167124575Y-85099501D01*
X167124570Y-85099500D01*
X167124565Y-85099500D01*
X166875435Y-85099500D01*
X166875429Y-85099500D01*
X166875424Y-85099501D01*
X166628438Y-85132017D01*
X166387792Y-85196498D01*
X166157638Y-85291830D01*
X166157623Y-85291837D01*
X165941873Y-85416400D01*
X165744225Y-85568060D01*
X165744218Y-85568066D01*
X165568066Y-85744218D01*
X165568060Y-85744225D01*
X165416400Y-85941873D01*
X165291837Y-86157623D01*
X165291830Y-86157638D01*
X165196498Y-86387792D01*
X165132017Y-86628438D01*
X165099501Y-86875424D01*
X165099500Y-86875441D01*
X100000500Y-86875441D01*
X100000500Y-74040599D01*
X153967382Y-74040599D01*
X153967382Y-74289716D01*
X153967383Y-74289733D01*
X153999899Y-74536719D01*
X154064380Y-74777365D01*
X154159712Y-75007519D01*
X154159719Y-75007534D01*
X154284282Y-75223284D01*
X154435942Y-75420932D01*
X154435948Y-75420939D01*
X154612100Y-75597091D01*
X154612107Y-75597097D01*
X154809755Y-75748757D01*
X155025505Y-75873320D01*
X155025520Y-75873327D01*
X155124707Y-75914411D01*
X155255675Y-75968660D01*
X155496317Y-76033140D01*
X155743317Y-76065658D01*
X155743324Y-76065658D01*
X155992440Y-76065658D01*
X155992447Y-76065658D01*
X156239447Y-76033140D01*
X156480089Y-75968660D01*
X156710255Y-75873322D01*
X156926009Y-75748757D01*
X157123658Y-75597096D01*
X157299820Y-75420934D01*
X157451481Y-75223285D01*
X157576046Y-75007531D01*
X157671384Y-74777365D01*
X157735864Y-74536723D01*
X157768382Y-74289723D01*
X157768382Y-74040593D01*
X157735864Y-73793593D01*
X157671384Y-73552951D01*
X157576046Y-73322785D01*
X157451481Y-73107031D01*
X157299820Y-72909382D01*
X157299815Y-72909376D01*
X157123663Y-72733224D01*
X157123656Y-72733218D01*
X156926008Y-72581558D01*
X156710258Y-72456995D01*
X156710243Y-72456988D01*
X156480089Y-72361656D01*
X156239443Y-72297175D01*
X155992457Y-72264659D01*
X155992452Y-72264658D01*
X155992447Y-72264658D01*
X155743317Y-72264658D01*
X155743311Y-72264658D01*
X155743306Y-72264659D01*
X155496320Y-72297175D01*
X155255674Y-72361656D01*
X155025520Y-72456988D01*
X155025505Y-72456995D01*
X154809755Y-72581558D01*
X154612107Y-72733218D01*
X154612100Y-72733224D01*
X154435948Y-72909376D01*
X154435942Y-72909383D01*
X154284282Y-73107031D01*
X154159719Y-73322781D01*
X154159712Y-73322796D01*
X154064380Y-73552950D01*
X153999899Y-73793596D01*
X153967383Y-74040582D01*
X153967382Y-74040599D01*
X100000500Y-74040599D01*
X100000500Y-65875466D01*
X102600000Y-65875466D01*
X102600000Y-66124533D01*
X102632508Y-66371463D01*
X102696973Y-66612049D01*
X102792283Y-66842148D01*
X102792288Y-66842159D01*
X102916812Y-67057841D01*
X102916822Y-67057854D01*
X102929997Y-67075025D01*
X102929998Y-67075026D01*
X103780999Y-66224024D01*
X103835359Y-66355258D01*
X103917437Y-66478097D01*
X104021903Y-66582563D01*
X104144742Y-66664641D01*
X104275974Y-66718999D01*
X103424973Y-67570000D01*
X103424973Y-67570001D01*
X103442151Y-67583182D01*
X103657840Y-67707711D01*
X103657851Y-67707716D01*
X103887950Y-67803026D01*
X104128536Y-67867491D01*
X104375466Y-67900000D01*
X104624534Y-67900000D01*
X104871463Y-67867491D01*
X105112049Y-67803026D01*
X105342148Y-67707716D01*
X105342159Y-67707711D01*
X105557850Y-67583180D01*
X105575025Y-67570001D01*
X105575025Y-67570000D01*
X104724026Y-66718999D01*
X104855258Y-66664641D01*
X104978097Y-66582563D01*
X105082563Y-66478097D01*
X105164641Y-66355258D01*
X105218999Y-66224025D01*
X106070000Y-67075025D01*
X106070001Y-67075025D01*
X106083180Y-67057850D01*
X106207711Y-66842159D01*
X106207716Y-66842148D01*
X106303026Y-66612049D01*
X106367491Y-66371463D01*
X106400000Y-66124533D01*
X106400000Y-65875466D01*
X106367491Y-65628536D01*
X106303026Y-65387950D01*
X106207716Y-65157851D01*
X106207711Y-65157840D01*
X106083182Y-64942151D01*
X106070001Y-64924973D01*
X106070000Y-64924973D01*
X105218999Y-65775974D01*
X105164641Y-65644742D01*
X105082563Y-65521903D01*
X104978097Y-65417437D01*
X104855258Y-65335359D01*
X104724025Y-65281000D01*
X105575026Y-64429998D01*
X105575025Y-64429997D01*
X105557854Y-64416822D01*
X105557841Y-64416812D01*
X105342159Y-64292288D01*
X105342148Y-64292283D01*
X105112049Y-64196973D01*
X104871463Y-64132508D01*
X104624534Y-64100000D01*
X104375466Y-64100000D01*
X104128536Y-64132508D01*
X103887950Y-64196973D01*
X103657851Y-64292283D01*
X103657840Y-64292288D01*
X103442150Y-64416818D01*
X103442145Y-64416821D01*
X103424973Y-64429997D01*
X103424973Y-64429998D01*
X104275974Y-65280999D01*
X104144742Y-65335359D01*
X104021903Y-65417437D01*
X103917437Y-65521903D01*
X103835359Y-65644742D01*
X103780999Y-65775974D01*
X102929998Y-64924973D01*
X102929997Y-64924973D01*
X102916821Y-64942145D01*
X102916818Y-64942150D01*
X102792288Y-65157840D01*
X102792283Y-65157851D01*
X102696973Y-65387950D01*
X102632508Y-65628536D01*
X102600000Y-65875466D01*
X100000500Y-65875466D01*
X100000500Y-59994514D01*
X109450000Y-59994514D01*
X109450000Y-60230485D01*
X109480799Y-60464414D01*
X109541870Y-60692337D01*
X109632160Y-60910319D01*
X109632165Y-60910328D01*
X109750147Y-61114676D01*
X109750150Y-61114680D01*
X109751319Y-61116204D01*
X109751320Y-61116204D01*
X110615098Y-60252426D01*
X110624979Y-60302098D01*
X110673978Y-60420390D01*
X110745112Y-60526851D01*
X110835649Y-60617388D01*
X110942110Y-60688522D01*
X111060402Y-60737521D01*
X111110072Y-60747401D01*
X110246293Y-61611178D01*
X110246293Y-61611179D01*
X110247821Y-61612352D01*
X110247826Y-61612355D01*
X110452164Y-61730331D01*
X110452180Y-61730339D01*
X110670163Y-61820629D01*
X110670161Y-61820629D01*
X110898085Y-61881700D01*
X111132014Y-61912499D01*
X111132029Y-61912500D01*
X111367971Y-61912500D01*
X111367985Y-61912499D01*
X111601914Y-61881700D01*
X111829837Y-61820629D01*
X112047819Y-61730339D01*
X112047828Y-61730334D01*
X112252176Y-61612352D01*
X112252185Y-61612347D01*
X112253704Y-61611180D01*
X112253705Y-61611178D01*
X111389927Y-60747401D01*
X111439598Y-60737521D01*
X111557890Y-60688522D01*
X111664351Y-60617388D01*
X111754888Y-60526851D01*
X111826022Y-60420390D01*
X111875021Y-60302098D01*
X111884900Y-60252427D01*
X112748678Y-61116205D01*
X112767240Y-61114990D01*
X112783581Y-61103066D01*
X112853328Y-61098928D01*
X112914240Y-61133155D01*
X112946977Y-61194880D01*
X112949500Y-61219764D01*
X112949500Y-61460369D01*
X112949501Y-61460376D01*
X112955908Y-61519983D01*
X113006202Y-61654828D01*
X113006206Y-61654835D01*
X113092452Y-61770044D01*
X113092455Y-61770047D01*
X113207664Y-61856293D01*
X113207671Y-61856297D01*
X113252618Y-61873061D01*
X113342517Y-61906591D01*
X113402127Y-61913000D01*
X113625500Y-61912999D01*
X113692539Y-61932683D01*
X113738294Y-61985487D01*
X113749500Y-62036999D01*
X113749500Y-63377942D01*
X113729815Y-63444981D01*
X113725818Y-63450827D01*
X113631132Y-63581151D01*
X113516760Y-63805616D01*
X113438910Y-64045214D01*
X113399850Y-64291830D01*
X113399500Y-64294038D01*
X113399500Y-64545962D01*
X113412563Y-64628435D01*
X113438910Y-64794785D01*
X113516760Y-65034383D01*
X113579665Y-65157840D01*
X113629770Y-65256176D01*
X113631132Y-65258848D01*
X113779201Y-65462649D01*
X113779205Y-65462654D01*
X113918870Y-65602319D01*
X113923171Y-65610197D01*
X113930367Y-65615570D01*
X113939657Y-65640388D01*
X113952355Y-65663642D01*
X113951714Y-65672597D01*
X113954862Y-65681005D01*
X113949261Y-65706900D01*
X113947371Y-65733334D01*
X113941599Y-65742326D01*
X113940092Y-65749296D01*
X113919135Y-65777325D01*
X113918975Y-65777576D01*
X113779207Y-65917344D01*
X113778308Y-65918580D01*
X113773824Y-65923076D01*
X113747219Y-65937644D01*
X113721820Y-65954225D01*
X113715143Y-65955209D01*
X113712542Y-65956634D01*
X113707759Y-65956297D01*
X113686038Y-65959500D01*
X112941455Y-65959500D01*
X112844812Y-65978724D01*
X112748167Y-65997947D01*
X112748161Y-65997949D01*
X112694834Y-66020037D01*
X112694834Y-66020038D01*
X112649315Y-66038892D01*
X112566089Y-66073366D01*
X112566079Y-66073371D01*
X112402219Y-66182859D01*
X112366312Y-66218767D01*
X112262861Y-66322218D01*
X112262858Y-66322221D01*
X111362221Y-67222858D01*
X111362218Y-67222861D01*
X111292538Y-67292540D01*
X111222859Y-67362219D01*
X111113371Y-67526080D01*
X111113364Y-67526093D01*
X111084788Y-67595082D01*
X111084778Y-67595107D01*
X111083671Y-67597782D01*
X111037949Y-67708164D01*
X111032186Y-67737139D01*
X111030378Y-67746223D01*
X111030378Y-67746226D01*
X110999500Y-67901456D01*
X110999500Y-69875620D01*
X110979815Y-69942659D01*
X110927011Y-69988414D01*
X110885235Y-69999237D01*
X110881910Y-69999498D01*
X110648631Y-70036446D01*
X110424003Y-70109433D01*
X110213566Y-70216657D01*
X110130321Y-70277139D01*
X110022490Y-70355483D01*
X110022488Y-70355485D01*
X110022487Y-70355485D01*
X109855485Y-70522487D01*
X109855485Y-70522488D01*
X109855483Y-70522490D01*
X109840173Y-70543563D01*
X109716657Y-70713566D01*
X109609433Y-70924003D01*
X109536446Y-71148631D01*
X109499500Y-71381902D01*
X109499500Y-71618097D01*
X109536446Y-71851368D01*
X109609433Y-72075996D01*
X109716657Y-72286433D01*
X109855483Y-72477510D01*
X110022490Y-72644517D01*
X110213567Y-72783343D01*
X110312991Y-72834002D01*
X110424003Y-72890566D01*
X110424005Y-72890566D01*
X110424008Y-72890568D01*
X110544412Y-72929689D01*
X110648631Y-72963553D01*
X110881903Y-73000500D01*
X110881908Y-73000500D01*
X111118097Y-73000500D01*
X111351368Y-72963553D01*
X111575992Y-72890568D01*
X111786433Y-72783343D01*
X111977510Y-72644517D01*
X112144517Y-72477510D01*
X112283343Y-72286433D01*
X112390568Y-72075992D01*
X112463553Y-71851368D01*
X112500500Y-71618097D01*
X112500500Y-71465782D01*
X112520185Y-71398743D01*
X112536814Y-71378105D01*
X112777140Y-71137781D01*
X112886632Y-70973914D01*
X112962052Y-70791835D01*
X113000501Y-70598540D01*
X113000501Y-70401459D01*
X113000501Y-70396349D01*
X113000500Y-70396323D01*
X113000500Y-68465782D01*
X113020185Y-68398743D01*
X113036819Y-68378101D01*
X113149959Y-68264961D01*
X113280973Y-68133946D01*
X113342294Y-68100463D01*
X113411985Y-68105447D01*
X113467919Y-68147318D01*
X113492336Y-68212783D01*
X113484834Y-68264961D01*
X113455909Y-68342514D01*
X113455908Y-68342516D01*
X113449501Y-68402116D01*
X113449500Y-68402135D01*
X113449500Y-70597870D01*
X113449501Y-70597876D01*
X113455908Y-70657483D01*
X113506202Y-70792328D01*
X113506206Y-70792335D01*
X113592452Y-70907544D01*
X113592455Y-70907547D01*
X113707664Y-70993793D01*
X113707671Y-70993797D01*
X113842517Y-71044091D01*
X113842516Y-71044091D01*
X113849444Y-71044835D01*
X113902127Y-71050500D01*
X116097872Y-71050499D01*
X116157483Y-71044091D01*
X116292331Y-70993796D01*
X116407546Y-70907546D01*
X116493796Y-70792331D01*
X116544091Y-70657483D01*
X116550408Y-70598720D01*
X116560110Y-70575298D01*
X116565941Y-70550622D01*
X116573255Y-70543563D01*
X116577145Y-70534174D01*
X116597970Y-70519713D01*
X116616219Y-70502105D01*
X116630678Y-70497003D01*
X116634537Y-70494325D01*
X116649493Y-70490364D01*
X116695188Y-70481275D01*
X116791836Y-70462051D01*
X116845165Y-70439961D01*
X116973914Y-70386632D01*
X117137782Y-70277139D01*
X117277139Y-70137782D01*
X117277140Y-70137779D01*
X117284206Y-70130714D01*
X117284209Y-70130710D01*
X117637778Y-69777141D01*
X117637782Y-69777139D01*
X117777139Y-69637782D01*
X117886632Y-69473914D01*
X117962051Y-69291835D01*
X118000500Y-69098541D01*
X118000500Y-66875466D01*
X120600000Y-66875466D01*
X120600000Y-67124533D01*
X120632508Y-67371463D01*
X120696973Y-67612049D01*
X120792283Y-67842148D01*
X120792288Y-67842159D01*
X120916812Y-68057841D01*
X120916822Y-68057854D01*
X120929997Y-68075025D01*
X120929998Y-68075026D01*
X121780999Y-67224024D01*
X121835359Y-67355258D01*
X121917437Y-67478097D01*
X122021903Y-67582563D01*
X122144742Y-67664641D01*
X122275974Y-67718999D01*
X121424973Y-68570000D01*
X121424973Y-68570001D01*
X121442151Y-68583182D01*
X121657840Y-68707711D01*
X121657851Y-68707716D01*
X121887950Y-68803026D01*
X122128536Y-68867491D01*
X122375466Y-68900000D01*
X122624534Y-68900000D01*
X122871463Y-68867491D01*
X123112049Y-68803026D01*
X123342148Y-68707716D01*
X123342159Y-68707711D01*
X123557850Y-68583180D01*
X123575025Y-68570001D01*
X123575025Y-68570000D01*
X122724026Y-67718999D01*
X122855258Y-67664641D01*
X122978097Y-67582563D01*
X123082563Y-67478097D01*
X123164641Y-67355258D01*
X123218999Y-67224025D01*
X124070000Y-68075025D01*
X124070001Y-68075025D01*
X124083180Y-68057850D01*
X124207711Y-67842159D01*
X124207716Y-67842148D01*
X124303026Y-67612049D01*
X124367491Y-67371463D01*
X124400000Y-67124533D01*
X124400000Y-66875466D01*
X124399997Y-66875441D01*
X126099500Y-66875441D01*
X126099500Y-67124558D01*
X126099501Y-67124575D01*
X126132017Y-67371561D01*
X126196498Y-67612207D01*
X126291830Y-67842361D01*
X126291837Y-67842376D01*
X126416400Y-68058126D01*
X126568060Y-68255774D01*
X126568066Y-68255781D01*
X126744218Y-68431933D01*
X126744225Y-68431939D01*
X126941873Y-68583599D01*
X127157623Y-68708162D01*
X127157638Y-68708169D01*
X127256825Y-68749253D01*
X127387793Y-68803502D01*
X127628435Y-68867982D01*
X127875435Y-68900500D01*
X127875442Y-68900500D01*
X128124558Y-68900500D01*
X128124565Y-68900500D01*
X128371565Y-68867982D01*
X128612207Y-68803502D01*
X128842373Y-68708164D01*
X129058127Y-68583599D01*
X129255776Y-68431938D01*
X129431938Y-68255776D01*
X129583599Y-68058127D01*
X129708164Y-67842373D01*
X129803502Y-67612207D01*
X129867982Y-67371565D01*
X129900500Y-67124565D01*
X129900500Y-66924500D01*
X129920185Y-66857461D01*
X129972989Y-66811706D01*
X130024500Y-66800500D01*
X131578844Y-66800500D01*
X131578845Y-66800499D01*
X131733497Y-66769737D01*
X131879179Y-66709394D01*
X132010289Y-66621789D01*
X135848104Y-62783974D01*
X135864862Y-62758894D01*
X135929902Y-62661555D01*
X135935705Y-62652870D01*
X135935705Y-62652869D01*
X135935709Y-62652864D01*
X135996052Y-62507182D01*
X135997591Y-62499449D01*
X136016087Y-62406460D01*
X136016087Y-62406458D01*
X136026815Y-62352529D01*
X136026815Y-60427785D01*
X136046500Y-60360746D01*
X136063130Y-60340108D01*
X136938902Y-59464335D01*
X137000223Y-59430852D01*
X137069914Y-59435836D01*
X137088568Y-59444624D01*
X137144113Y-59476693D01*
X137144121Y-59476696D01*
X137144124Y-59476698D01*
X137235481Y-59514539D01*
X137356114Y-59564507D01*
X137577763Y-59623897D01*
X137774794Y-59649837D01*
X137838690Y-59678104D01*
X137877161Y-59736428D01*
X137877992Y-59806293D01*
X137865995Y-59834776D01*
X137776598Y-59989614D01*
X137776593Y-59989625D01*
X137691293Y-60195557D01*
X137691290Y-60195567D01*
X137633597Y-60410882D01*
X137633594Y-60410895D01*
X137604501Y-60631881D01*
X137604500Y-60631897D01*
X137604500Y-60854798D01*
X137604501Y-60854814D01*
X137633594Y-61075800D01*
X137633595Y-61075805D01*
X137633596Y-61075811D01*
X137672168Y-61219764D01*
X137691290Y-61291128D01*
X137691293Y-61291138D01*
X137776593Y-61497070D01*
X137776595Y-61497074D01*
X137888052Y-61690122D01*
X137888057Y-61690128D01*
X137888058Y-61690130D01*
X138023751Y-61866970D01*
X138023757Y-61866977D01*
X138181368Y-62024588D01*
X138181373Y-62024592D01*
X138181376Y-62024595D01*
X138255986Y-62081844D01*
X138297189Y-62138271D01*
X138304500Y-62180220D01*
X138304500Y-63000093D01*
X138284815Y-63067132D01*
X138232011Y-63112887D01*
X138196687Y-63123032D01*
X138165621Y-63127122D01*
X138128435Y-63132018D01*
X137887793Y-63196498D01*
X137887791Y-63196498D01*
X137887790Y-63196499D01*
X137854303Y-63210369D01*
X137831047Y-63217423D01*
X137766506Y-63230261D01*
X137766500Y-63230263D01*
X137620827Y-63290602D01*
X137620815Y-63290609D01*
X137489712Y-63378210D01*
X137489705Y-63378216D01*
X137476238Y-63391682D01*
X137450570Y-63411378D01*
X137441877Y-63416397D01*
X137441875Y-63416398D01*
X137244225Y-63568060D01*
X137244218Y-63568066D01*
X137068066Y-63744218D01*
X137068060Y-63744225D01*
X136916400Y-63941873D01*
X136791837Y-64157623D01*
X136791830Y-64157638D01*
X136696498Y-64387792D01*
X136632017Y-64628438D01*
X136599501Y-64875424D01*
X136599500Y-64875441D01*
X136599500Y-65124558D01*
X136599501Y-65124575D01*
X136632003Y-65371456D01*
X136632018Y-65371565D01*
X136636240Y-65387320D01*
X136696498Y-65612207D01*
X136791830Y-65842361D01*
X136791837Y-65842376D01*
X136916400Y-66058126D01*
X137068060Y-66255774D01*
X137068066Y-66255781D01*
X137244218Y-66431933D01*
X137244225Y-66431939D01*
X137441873Y-66583599D01*
X137657623Y-66708162D01*
X137657638Y-66708169D01*
X137756825Y-66749253D01*
X137887793Y-66803502D01*
X138128435Y-66867982D01*
X138375435Y-66900500D01*
X138375442Y-66900500D01*
X138624558Y-66900500D01*
X138624565Y-66900500D01*
X138871565Y-66867982D01*
X139112207Y-66803502D01*
X139342373Y-66708164D01*
X139558127Y-66583599D01*
X139755776Y-66431938D01*
X139931938Y-66255776D01*
X140083599Y-66058127D01*
X140208164Y-65842373D01*
X140303502Y-65612207D01*
X140367982Y-65371565D01*
X140377061Y-65302601D01*
X140405327Y-65238705D01*
X140463652Y-65200234D01*
X140533516Y-65199403D01*
X140592740Y-65236475D01*
X140622519Y-65299681D01*
X140622939Y-65302602D01*
X140632003Y-65371456D01*
X140632018Y-65371565D01*
X140636240Y-65387320D01*
X140696498Y-65612207D01*
X140791830Y-65842361D01*
X140791837Y-65842376D01*
X140916400Y-66058126D01*
X141068060Y-66255774D01*
X141068066Y-66255781D01*
X141244218Y-66431933D01*
X141244225Y-66431939D01*
X141441873Y-66583599D01*
X141657623Y-66708162D01*
X141657638Y-66708169D01*
X141756825Y-66749253D01*
X141887793Y-66803502D01*
X142128435Y-66867982D01*
X142375435Y-66900500D01*
X142375442Y-66900500D01*
X142624558Y-66900500D01*
X142624565Y-66900500D01*
X142871565Y-66867982D01*
X143112207Y-66803502D01*
X143342373Y-66708164D01*
X143558127Y-66583599D01*
X143755776Y-66431938D01*
X143931938Y-66255776D01*
X144083599Y-66058127D01*
X144208164Y-65842373D01*
X144303502Y-65612207D01*
X144367982Y-65371565D01*
X144400500Y-65124565D01*
X144400500Y-64875435D01*
X144367982Y-64628435D01*
X144303502Y-64387793D01*
X144208164Y-64157627D01*
X144172483Y-64095826D01*
X144083599Y-63941873D01*
X143931939Y-63744225D01*
X143931933Y-63744218D01*
X143755781Y-63568066D01*
X143755774Y-63568060D01*
X143558126Y-63416400D01*
X143342376Y-63291837D01*
X143342366Y-63291833D01*
X143162724Y-63217423D01*
X143152045Y-63212999D01*
X143097643Y-63169159D01*
X143075578Y-63102865D01*
X143075499Y-63098439D01*
X143075499Y-62180220D01*
X143095184Y-62113181D01*
X143124011Y-62081845D01*
X143198623Y-62024595D01*
X143356246Y-61866972D01*
X143491947Y-61690122D01*
X143603404Y-61497074D01*
X143688709Y-61291129D01*
X143746403Y-61075811D01*
X143775499Y-60854805D01*
X143775499Y-60631891D01*
X143746403Y-60410885D01*
X143688709Y-60195567D01*
X143603404Y-59989622D01*
X143514002Y-59834775D01*
X143497530Y-59766877D01*
X143520382Y-59700850D01*
X143575303Y-59657659D01*
X143605201Y-59649837D01*
X143802239Y-59623897D01*
X144023888Y-59564507D01*
X144190539Y-59495477D01*
X144235880Y-59476697D01*
X144235883Y-59476695D01*
X144235889Y-59476693D01*
X144235895Y-59476689D01*
X144235900Y-59476687D01*
X144334958Y-59419495D01*
X144402858Y-59403021D01*
X144468885Y-59425873D01*
X144484640Y-59439200D01*
X145466687Y-60421247D01*
X145500172Y-60482570D01*
X145503006Y-60508928D01*
X145503006Y-62068003D01*
X145533767Y-62222646D01*
X145533770Y-62222658D01*
X145594108Y-62368329D01*
X145594115Y-62368342D01*
X145681716Y-62499445D01*
X145681719Y-62499449D01*
X149804056Y-66621786D01*
X149804060Y-66621789D01*
X149935163Y-66709390D01*
X149935167Y-66709392D01*
X149935170Y-66709394D01*
X150080852Y-66769738D01*
X150235502Y-66800499D01*
X150235506Y-66800500D01*
X150235507Y-66800500D01*
X150696069Y-66800500D01*
X150763108Y-66820185D01*
X150803456Y-66862500D01*
X150916400Y-67058126D01*
X151068060Y-67255774D01*
X151068066Y-67255781D01*
X151244218Y-67431933D01*
X151244225Y-67431939D01*
X151441873Y-67583599D01*
X151657623Y-67708162D01*
X151657638Y-67708169D01*
X151749517Y-67746226D01*
X151887793Y-67803502D01*
X152128435Y-67867982D01*
X152375435Y-67900500D01*
X152375442Y-67900500D01*
X152624558Y-67900500D01*
X152624565Y-67900500D01*
X152871565Y-67867982D01*
X153112207Y-67803502D01*
X153342373Y-67708164D01*
X153558127Y-67583599D01*
X153755776Y-67431938D01*
X153931938Y-67255776D01*
X154083599Y-67058127D01*
X154208164Y-66842373D01*
X154303502Y-66612207D01*
X154367982Y-66371565D01*
X154400500Y-66124565D01*
X154400500Y-65875441D01*
X156099500Y-65875441D01*
X156099500Y-66124558D01*
X156099501Y-66124575D01*
X156132017Y-66371561D01*
X156196498Y-66612207D01*
X156291830Y-66842361D01*
X156291837Y-66842376D01*
X156416400Y-67058126D01*
X156568060Y-67255774D01*
X156568066Y-67255781D01*
X156744218Y-67431933D01*
X156744225Y-67431939D01*
X156941873Y-67583599D01*
X157157623Y-67708162D01*
X157157638Y-67708169D01*
X157249517Y-67746226D01*
X157387793Y-67803502D01*
X157628435Y-67867982D01*
X157875435Y-67900500D01*
X157875442Y-67900500D01*
X158124558Y-67900500D01*
X158124565Y-67900500D01*
X158371565Y-67867982D01*
X158612207Y-67803502D01*
X158842373Y-67708164D01*
X159058127Y-67583599D01*
X159255776Y-67431938D01*
X159431938Y-67255776D01*
X159583599Y-67058127D01*
X159708164Y-66842373D01*
X159803502Y-66612207D01*
X159867982Y-66371565D01*
X159900500Y-66124565D01*
X159900500Y-65875435D01*
X159867982Y-65628435D01*
X159803502Y-65387793D01*
X159741748Y-65238705D01*
X159708169Y-65157638D01*
X159708162Y-65157623D01*
X159583599Y-64941873D01*
X159431939Y-64744225D01*
X159431933Y-64744218D01*
X159255781Y-64568066D01*
X159255774Y-64568060D01*
X159058126Y-64416400D01*
X158842376Y-64291837D01*
X158842361Y-64291830D01*
X158612207Y-64196498D01*
X158460798Y-64155928D01*
X158371565Y-64132018D01*
X158371564Y-64132017D01*
X158371561Y-64132017D01*
X158124575Y-64099501D01*
X158124570Y-64099500D01*
X158124565Y-64099500D01*
X157875435Y-64099500D01*
X157875429Y-64099500D01*
X157875424Y-64099501D01*
X157628438Y-64132017D01*
X157387792Y-64196498D01*
X157157638Y-64291830D01*
X157157623Y-64291837D01*
X156941873Y-64416400D01*
X156744225Y-64568060D01*
X156744218Y-64568066D01*
X156568066Y-64744218D01*
X156568060Y-64744225D01*
X156416400Y-64941873D01*
X156291837Y-65157623D01*
X156291830Y-65157638D01*
X156196498Y-65387792D01*
X156132017Y-65628438D01*
X156099501Y-65875424D01*
X156099500Y-65875441D01*
X154400500Y-65875441D01*
X154400500Y-65875435D01*
X154367982Y-65628435D01*
X154303502Y-65387793D01*
X154241748Y-65238705D01*
X154208169Y-65157638D01*
X154208162Y-65157623D01*
X154083599Y-64941873D01*
X153931939Y-64744225D01*
X153931933Y-64744218D01*
X153755781Y-64568066D01*
X153755774Y-64568060D01*
X153558126Y-64416400D01*
X153342376Y-64291837D01*
X153342361Y-64291830D01*
X153112207Y-64196498D01*
X152960798Y-64155928D01*
X152871565Y-64132018D01*
X152871564Y-64132017D01*
X152871561Y-64132017D01*
X152624575Y-64099501D01*
X152624570Y-64099500D01*
X152624565Y-64099500D01*
X152375435Y-64099500D01*
X152375429Y-64099500D01*
X152375424Y-64099501D01*
X152128438Y-64132017D01*
X151887792Y-64196498D01*
X151657638Y-64291830D01*
X151657623Y-64291837D01*
X151441873Y-64416400D01*
X151244225Y-64568060D01*
X151244218Y-64568066D01*
X151068066Y-64744218D01*
X151068060Y-64744225D01*
X150916400Y-64941873D01*
X150803902Y-65136726D01*
X150753335Y-65184942D01*
X150684728Y-65198165D01*
X150619863Y-65172197D01*
X150608834Y-65162407D01*
X147140325Y-61693898D01*
X147106840Y-61632575D01*
X147104006Y-61606217D01*
X147104006Y-60047145D01*
X147093858Y-59996132D01*
X147093858Y-59996130D01*
X147073244Y-59892498D01*
X147073243Y-59892491D01*
X147033513Y-59796574D01*
X147012903Y-59746815D01*
X147012896Y-59746802D01*
X146925296Y-59615700D01*
X146874102Y-59564506D01*
X146813795Y-59504199D01*
X145246820Y-57937224D01*
X145213335Y-57875901D01*
X145210501Y-57849543D01*
X145210501Y-57788621D01*
X145210500Y-57788607D01*
X145192847Y-57654523D01*
X145180549Y-57561111D01*
X145121159Y-57339462D01*
X145042525Y-57149623D01*
X145033350Y-57127472D01*
X145033347Y-57127466D01*
X145033345Y-57127461D01*
X144918612Y-56928737D01*
X144918609Y-56928734D01*
X144918608Y-56928731D01*
X144778919Y-56746687D01*
X144778912Y-56746679D01*
X144616671Y-56584438D01*
X144616662Y-56584430D01*
X144434618Y-56444741D01*
X144235891Y-56330006D01*
X144235877Y-56329999D01*
X144023888Y-56242191D01*
X143802239Y-56182801D01*
X143764216Y-56177795D01*
X143574742Y-56152849D01*
X143574735Y-56152849D01*
X143345267Y-56152849D01*
X143345259Y-56152849D01*
X143128716Y-56181358D01*
X143117763Y-56182801D01*
X143042942Y-56202849D01*
X142896113Y-56242191D01*
X142684124Y-56329999D01*
X142684110Y-56330006D01*
X142485383Y-56444741D01*
X142303339Y-56584430D01*
X142141082Y-56746687D01*
X142001393Y-56928731D01*
X141886658Y-57127458D01*
X141886651Y-57127472D01*
X141798843Y-57339461D01*
X141739454Y-57561108D01*
X141739452Y-57561119D01*
X141709501Y-57788607D01*
X141709501Y-58018090D01*
X141721853Y-58111905D01*
X141739453Y-58245587D01*
X141765635Y-58343299D01*
X141798843Y-58467236D01*
X141886651Y-58679225D01*
X141886658Y-58679240D01*
X141994399Y-58865853D01*
X142010872Y-58933754D01*
X141988019Y-58999780D01*
X141933098Y-59042971D01*
X141903198Y-59050792D01*
X141759860Y-59069663D01*
X141742536Y-59071944D01*
X141600094Y-59110111D01*
X141527218Y-59129638D01*
X141527208Y-59129641D01*
X141321276Y-59214941D01*
X141321272Y-59214943D01*
X141128225Y-59326400D01*
X141128216Y-59326406D01*
X140951376Y-59462099D01*
X140951369Y-59462105D01*
X140793756Y-59619718D01*
X140793749Y-59619726D01*
X140788372Y-59626734D01*
X140731943Y-59667935D01*
X140662197Y-59672087D01*
X140601278Y-59637873D01*
X140591621Y-59626728D01*
X140586247Y-59619724D01*
X140586243Y-59619720D01*
X140586242Y-59619718D01*
X140428629Y-59462105D01*
X140428622Y-59462099D01*
X140251782Y-59326406D01*
X140251780Y-59326405D01*
X140251774Y-59326400D01*
X140058726Y-59214943D01*
X140058722Y-59214941D01*
X139852790Y-59129641D01*
X139852783Y-59129639D01*
X139852781Y-59129638D01*
X139637463Y-59071944D01*
X139604034Y-59067543D01*
X139476803Y-59050792D01*
X139412907Y-59022525D01*
X139374436Y-58964200D01*
X139373605Y-58894336D01*
X139385600Y-58865856D01*
X139493345Y-58679237D01*
X139581159Y-58467236D01*
X139640549Y-58245587D01*
X139670501Y-58018083D01*
X139670501Y-57788615D01*
X139640549Y-57561111D01*
X139581159Y-57339462D01*
X139502525Y-57149623D01*
X139493350Y-57127472D01*
X139493347Y-57127466D01*
X139493345Y-57127461D01*
X139378612Y-56928737D01*
X139378609Y-56928734D01*
X139378608Y-56928731D01*
X139238919Y-56746687D01*
X139238912Y-56746679D01*
X139076671Y-56584438D01*
X139076662Y-56584430D01*
X138894618Y-56444741D01*
X138695891Y-56330006D01*
X138695877Y-56329999D01*
X138483888Y-56242191D01*
X138262239Y-56182801D01*
X138224216Y-56177795D01*
X138034742Y-56152849D01*
X138034735Y-56152849D01*
X137805267Y-56152849D01*
X137805259Y-56152849D01*
X137588716Y-56181358D01*
X137577763Y-56182801D01*
X137502942Y-56202849D01*
X137356113Y-56242191D01*
X137144124Y-56329999D01*
X137144110Y-56330006D01*
X136945383Y-56444741D01*
X136763339Y-56584430D01*
X136601082Y-56746687D01*
X136461393Y-56928731D01*
X136346658Y-57127458D01*
X136346651Y-57127472D01*
X136258843Y-57339461D01*
X136199454Y-57561108D01*
X136199452Y-57561119D01*
X136169501Y-57788607D01*
X136169501Y-57918220D01*
X136149816Y-57985259D01*
X136133182Y-58005901D01*
X134716026Y-59423057D01*
X134682192Y-59456891D01*
X134604524Y-59534558D01*
X134516924Y-59665660D01*
X134516917Y-59665673D01*
X134456579Y-59811344D01*
X134456576Y-59811356D01*
X134425815Y-59965999D01*
X134425815Y-61890745D01*
X134406130Y-61957784D01*
X134389496Y-61978426D01*
X131204741Y-65163181D01*
X131143418Y-65196666D01*
X131117060Y-65199500D01*
X128921153Y-65199500D01*
X128760529Y-65231450D01*
X128760278Y-65230192D01*
X128697057Y-65230744D01*
X128683499Y-65226027D01*
X128612214Y-65196500D01*
X128569079Y-65184942D01*
X128371565Y-65132018D01*
X128371564Y-65132017D01*
X128371561Y-65132017D01*
X128124575Y-65099501D01*
X128124570Y-65099500D01*
X128124565Y-65099500D01*
X127875435Y-65099500D01*
X127875429Y-65099500D01*
X127875424Y-65099501D01*
X127628438Y-65132017D01*
X127387792Y-65196498D01*
X127157638Y-65291830D01*
X127157623Y-65291837D01*
X126941873Y-65416400D01*
X126744225Y-65568060D01*
X126744218Y-65568066D01*
X126568066Y-65744218D01*
X126568060Y-65744225D01*
X126416400Y-65941873D01*
X126291837Y-66157623D01*
X126291830Y-66157638D01*
X126196498Y-66387792D01*
X126132017Y-66628438D01*
X126099501Y-66875424D01*
X126099500Y-66875441D01*
X124399997Y-66875441D01*
X124367491Y-66628536D01*
X124303026Y-66387950D01*
X124207716Y-66157851D01*
X124207711Y-66157840D01*
X124083182Y-65942151D01*
X124070001Y-65924973D01*
X124070000Y-65924973D01*
X123218999Y-66775974D01*
X123164641Y-66644742D01*
X123082563Y-66521903D01*
X122978097Y-66417437D01*
X122855258Y-66335359D01*
X122724025Y-66281000D01*
X123575026Y-65429998D01*
X123575025Y-65429997D01*
X123557854Y-65416822D01*
X123557841Y-65416812D01*
X123342159Y-65292288D01*
X123342148Y-65292283D01*
X123112049Y-65196973D01*
X122871463Y-65132508D01*
X122624534Y-65100000D01*
X122375466Y-65100000D01*
X122128536Y-65132508D01*
X121887950Y-65196973D01*
X121657851Y-65292283D01*
X121657840Y-65292288D01*
X121442150Y-65416818D01*
X121442145Y-65416821D01*
X121424973Y-65429997D01*
X121424973Y-65429998D01*
X122275974Y-66280999D01*
X122144742Y-66335359D01*
X122021903Y-66417437D01*
X121917437Y-66521903D01*
X121835359Y-66644742D01*
X121781000Y-66775974D01*
X120929998Y-65924973D01*
X120929997Y-65924973D01*
X120916821Y-65942145D01*
X120916818Y-65942150D01*
X120792288Y-66157840D01*
X120792283Y-66157851D01*
X120696973Y-66387950D01*
X120632508Y-66628536D01*
X120600000Y-66875466D01*
X118000500Y-66875466D01*
X118000500Y-64965782D01*
X118020185Y-64898743D01*
X118036819Y-64878101D01*
X118878102Y-64036819D01*
X118939425Y-64003334D01*
X118965783Y-64000500D01*
X130598542Y-64000500D01*
X130627134Y-63994812D01*
X130695188Y-63981275D01*
X130791836Y-63962051D01*
X130868064Y-63930476D01*
X130973914Y-63886632D01*
X131137782Y-63777139D01*
X131277139Y-63637782D01*
X131277140Y-63637779D01*
X131284206Y-63630714D01*
X131284209Y-63630710D01*
X131632779Y-63282140D01*
X131632783Y-63282138D01*
X131772140Y-63142781D01*
X131881633Y-62978913D01*
X131957052Y-62796834D01*
X131981748Y-62672681D01*
X131995501Y-62603542D01*
X131995501Y-62180220D01*
X132015186Y-62113181D01*
X132044013Y-62081845D01*
X132118625Y-62024595D01*
X132276248Y-61866972D01*
X132411949Y-61690122D01*
X132523406Y-61497074D01*
X132608711Y-61291129D01*
X132666405Y-61075811D01*
X132695501Y-60854805D01*
X132695501Y-60631891D01*
X132666405Y-60410885D01*
X132608711Y-60195567D01*
X132523406Y-59989622D01*
X132411949Y-59796574D01*
X132411944Y-59796567D01*
X132410803Y-59794859D01*
X132410618Y-59794271D01*
X132409919Y-59793059D01*
X132410190Y-59792902D01*
X132389922Y-59728182D01*
X132408404Y-59660801D01*
X132460381Y-59614109D01*
X132497716Y-59603025D01*
X132712465Y-59574753D01*
X132927783Y-59517059D01*
X133133728Y-59431754D01*
X133326776Y-59320297D01*
X133503626Y-59184596D01*
X133661249Y-59026973D01*
X133796950Y-58850123D01*
X133908407Y-58657075D01*
X133993712Y-58451130D01*
X134051406Y-58235812D01*
X134080502Y-58014806D01*
X134080502Y-57791892D01*
X134051406Y-57570886D01*
X133993712Y-57355568D01*
X133908407Y-57149623D01*
X133796950Y-56956575D01*
X133718467Y-56854293D01*
X133661250Y-56779726D01*
X133661244Y-56779719D01*
X133503631Y-56622106D01*
X133503624Y-56622100D01*
X133326784Y-56486407D01*
X133326782Y-56486406D01*
X133326776Y-56486401D01*
X133133728Y-56374944D01*
X133133724Y-56374942D01*
X132927792Y-56289642D01*
X132927785Y-56289640D01*
X132927783Y-56289639D01*
X132712465Y-56231945D01*
X132712459Y-56231944D01*
X132712454Y-56231943D01*
X132491468Y-56202850D01*
X132491465Y-56202849D01*
X132491459Y-56202849D01*
X132268545Y-56202849D01*
X132268539Y-56202849D01*
X132268535Y-56202850D01*
X132047549Y-56231943D01*
X132047542Y-56231944D01*
X132047539Y-56231945D01*
X131957570Y-56256052D01*
X131832221Y-56289639D01*
X131832211Y-56289642D01*
X131626279Y-56374942D01*
X131626275Y-56374944D01*
X131433228Y-56486401D01*
X131433219Y-56486407D01*
X131256379Y-56622100D01*
X131256372Y-56622106D01*
X131098759Y-56779719D01*
X131098753Y-56779726D01*
X130963060Y-56956566D01*
X130963054Y-56956575D01*
X130851597Y-57149622D01*
X130851595Y-57149626D01*
X130766295Y-57355558D01*
X130766292Y-57355568D01*
X130708599Y-57570883D01*
X130708596Y-57570896D01*
X130679503Y-57791882D01*
X130679502Y-57791898D01*
X130679502Y-58014808D01*
X130691776Y-58108046D01*
X130681010Y-58177081D01*
X130656518Y-58211911D01*
X130503494Y-58364936D01*
X130357222Y-58511208D01*
X130357219Y-58511211D01*
X130298266Y-58570164D01*
X130217860Y-58650569D01*
X130108372Y-58814429D01*
X130108365Y-58814442D01*
X130032951Y-58996510D01*
X130032948Y-58996520D01*
X129994501Y-59189806D01*
X129994501Y-59306474D01*
X129974816Y-59373513D01*
X129945988Y-59404850D01*
X129871371Y-59462105D01*
X129713758Y-59619718D01*
X129713752Y-59619725D01*
X129578059Y-59796565D01*
X129578053Y-59796574D01*
X129466596Y-59989621D01*
X129466594Y-59989625D01*
X129381294Y-60195557D01*
X129381291Y-60195567D01*
X129323598Y-60410882D01*
X129323595Y-60410895D01*
X129294502Y-60631881D01*
X129294501Y-60631897D01*
X129294501Y-60854798D01*
X129294502Y-60854814D01*
X129323595Y-61075800D01*
X129323596Y-61075805D01*
X129323597Y-61075811D01*
X129362169Y-61219764D01*
X129381291Y-61291128D01*
X129381294Y-61291138D01*
X129466594Y-61497070D01*
X129466596Y-61497074D01*
X129578053Y-61690122D01*
X129578055Y-61690125D01*
X129578059Y-61690131D01*
X129662375Y-61800014D01*
X129687569Y-61865183D01*
X129673530Y-61933628D01*
X129624716Y-61983618D01*
X129563999Y-61999500D01*
X118401456Y-61999500D01*
X118208171Y-62037947D01*
X118208163Y-62037949D01*
X118135617Y-62067999D01*
X118135616Y-62067999D01*
X118026092Y-62113364D01*
X118026079Y-62113371D01*
X117904150Y-62194843D01*
X117904149Y-62194844D01*
X117862215Y-62222862D01*
X117862214Y-62222863D01*
X116528363Y-63556715D01*
X116467040Y-63590200D01*
X116397348Y-63585216D01*
X116341415Y-63543344D01*
X116340364Y-63541919D01*
X116220798Y-63377350D01*
X116220794Y-63377345D01*
X116042654Y-63199205D01*
X116042649Y-63199201D01*
X115838848Y-63051131D01*
X115818203Y-63040612D01*
X115767408Y-62992637D01*
X115750500Y-62930128D01*
X115750500Y-62036999D01*
X115770185Y-61969960D01*
X115822989Y-61924205D01*
X115874500Y-61912999D01*
X116097871Y-61912999D01*
X116097872Y-61912999D01*
X116157483Y-61906591D01*
X116292331Y-61856296D01*
X116407546Y-61770046D01*
X116493796Y-61654831D01*
X116544091Y-61519983D01*
X116550500Y-61460373D01*
X116550499Y-59778280D01*
X116570184Y-59711242D01*
X116586813Y-59690605D01*
X120740602Y-55536819D01*
X120801925Y-55503334D01*
X120828283Y-55500500D01*
X145130869Y-55500500D01*
X145197908Y-55520185D01*
X145218550Y-55536819D01*
X147563181Y-57881450D01*
X147596666Y-57942773D01*
X147599500Y-57969131D01*
X147599500Y-58013571D01*
X147599696Y-58014806D01*
X147633985Y-58231301D01*
X147702103Y-58440952D01*
X147702104Y-58440955D01*
X147770122Y-58574445D01*
X147798438Y-58630018D01*
X147802187Y-58637374D01*
X147931752Y-58815707D01*
X147931756Y-58815712D01*
X147963181Y-58847137D01*
X147996666Y-58908460D01*
X147999500Y-58934818D01*
X147999500Y-59456893D01*
X148000868Y-59463769D01*
X148000869Y-59463775D01*
X148037947Y-59650183D01*
X148037949Y-59650186D01*
X148060038Y-59703515D01*
X148073671Y-59736428D01*
X148113366Y-59832261D01*
X148113371Y-59832270D01*
X148222859Y-59996130D01*
X148222863Y-59996135D01*
X148366537Y-60139809D01*
X148366559Y-60139829D01*
X148948179Y-60721449D01*
X148981664Y-60782772D01*
X148984498Y-60809130D01*
X148984498Y-60853570D01*
X148984694Y-60854805D01*
X149018983Y-61071300D01*
X149087101Y-61280951D01*
X149087102Y-61280954D01*
X149155120Y-61414444D01*
X149178520Y-61460369D01*
X149187185Y-61477373D01*
X149316750Y-61655706D01*
X149316754Y-61655711D01*
X149472634Y-61811591D01*
X149472639Y-61811595D01*
X149612210Y-61912998D01*
X149650976Y-61941163D01*
X149734298Y-61983618D01*
X149847391Y-62041243D01*
X149847394Y-62041244D01*
X149929740Y-62067999D01*
X150057047Y-62109363D01*
X150274776Y-62143848D01*
X150274777Y-62143848D01*
X150495219Y-62143848D01*
X150495220Y-62143848D01*
X150712949Y-62109363D01*
X150922604Y-62041243D01*
X151119020Y-61941163D01*
X151297363Y-61811590D01*
X151453240Y-61655713D01*
X151582813Y-61477370D01*
X151682893Y-61280954D01*
X151751013Y-61071299D01*
X151785498Y-60853570D01*
X151785498Y-60633126D01*
X151751013Y-60415397D01*
X151716953Y-60310569D01*
X151682894Y-60205744D01*
X151682893Y-60205741D01*
X151635383Y-60112499D01*
X151582813Y-60009326D01*
X151497928Y-59892491D01*
X151453245Y-59830989D01*
X151453241Y-59830984D01*
X151297361Y-59675104D01*
X151297356Y-59675100D01*
X151119023Y-59545535D01*
X151119022Y-59545534D01*
X151119020Y-59545533D01*
X151056094Y-59513470D01*
X150922604Y-59445452D01*
X150922601Y-59445451D01*
X150712950Y-59377333D01*
X150604084Y-59360090D01*
X150495220Y-59342848D01*
X150495219Y-59342848D01*
X150450780Y-59342848D01*
X150421339Y-59334203D01*
X150391353Y-59327680D01*
X150386337Y-59323925D01*
X150383741Y-59323163D01*
X150363099Y-59306529D01*
X150239486Y-59182916D01*
X154851901Y-59182916D01*
X154851901Y-59463775D01*
X154883343Y-59742842D01*
X154883346Y-59742860D01*
X154945840Y-60016665D01*
X154945844Y-60016677D01*
X155038601Y-60281759D01*
X155160454Y-60534790D01*
X155160456Y-60534793D01*
X155309878Y-60772596D01*
X155484985Y-60992173D01*
X155683576Y-61190764D01*
X155903153Y-61365871D01*
X156140956Y-61515293D01*
X156393993Y-61637149D01*
X156593081Y-61706813D01*
X156659071Y-61729904D01*
X156659083Y-61729908D01*
X156932892Y-61792403D01*
X156932898Y-61792403D01*
X156932906Y-61792405D01*
X157103182Y-61811590D01*
X157211970Y-61823847D01*
X157211973Y-61823848D01*
X157211976Y-61823848D01*
X157492829Y-61823848D01*
X157492830Y-61823847D01*
X157635456Y-61807777D01*
X157771895Y-61792405D01*
X157771900Y-61792404D01*
X157771910Y-61792403D01*
X158045719Y-61729908D01*
X158310809Y-61637149D01*
X158563846Y-61515293D01*
X158801649Y-61365871D01*
X159021226Y-61190764D01*
X159219817Y-60992173D01*
X159394924Y-60772596D01*
X159544346Y-60534793D01*
X159666202Y-60281756D01*
X159758961Y-60016666D01*
X159821456Y-59742857D01*
X159822181Y-59736428D01*
X159852901Y-59463775D01*
X159852901Y-59182920D01*
X159852900Y-59182916D01*
X159821458Y-58903853D01*
X159821455Y-58903835D01*
X159815549Y-58877961D01*
X159758961Y-58630030D01*
X159752879Y-58612650D01*
X159701997Y-58467236D01*
X159666202Y-58364940D01*
X159544346Y-58111903D01*
X159394924Y-57874100D01*
X159219817Y-57654523D01*
X159021226Y-57455932D01*
X158801649Y-57280825D01*
X158563846Y-57131403D01*
X158563843Y-57131401D01*
X158310812Y-57009548D01*
X158045730Y-56916791D01*
X158045718Y-56916787D01*
X157771913Y-56854293D01*
X157771895Y-56854290D01*
X157492832Y-56822848D01*
X157492826Y-56822848D01*
X157211976Y-56822848D01*
X157211969Y-56822848D01*
X156932906Y-56854290D01*
X156932888Y-56854293D01*
X156659083Y-56916787D01*
X156659071Y-56916791D01*
X156393989Y-57009548D01*
X156140958Y-57131401D01*
X155903154Y-57280824D01*
X155683576Y-57455931D01*
X155484984Y-57654523D01*
X155309877Y-57874101D01*
X155160454Y-58111905D01*
X155038601Y-58364936D01*
X154945844Y-58630018D01*
X154945840Y-58630030D01*
X154883346Y-58903835D01*
X154883343Y-58903853D01*
X154851901Y-59182916D01*
X150239486Y-59182916D01*
X150057944Y-59001374D01*
X150024459Y-58940051D01*
X150029443Y-58870359D01*
X150057944Y-58826012D01*
X150068242Y-58815714D01*
X150197815Y-58637371D01*
X150297895Y-58440955D01*
X150366015Y-58231300D01*
X150400500Y-58013571D01*
X150400500Y-57793127D01*
X150366015Y-57575398D01*
X150297895Y-57365743D01*
X150297895Y-57365742D01*
X150254626Y-57280824D01*
X150197815Y-57169327D01*
X150167396Y-57127458D01*
X150068247Y-56990990D01*
X150068243Y-56990985D01*
X149912363Y-56835105D01*
X149912358Y-56835101D01*
X149734025Y-56705536D01*
X149734024Y-56705535D01*
X149734022Y-56705534D01*
X149671096Y-56673471D01*
X149537606Y-56605453D01*
X149537603Y-56605452D01*
X149327952Y-56537334D01*
X149219086Y-56520091D01*
X149110222Y-56502849D01*
X149110221Y-56502849D01*
X149065783Y-56502849D01*
X148998744Y-56483164D01*
X148978102Y-56466530D01*
X146380860Y-53869289D01*
X146380857Y-53869285D01*
X146380857Y-53869286D01*
X146373790Y-53862219D01*
X146373790Y-53862218D01*
X146234433Y-53722861D01*
X146234432Y-53722860D01*
X146234431Y-53722859D01*
X146070571Y-53613371D01*
X146070562Y-53613366D01*
X145997966Y-53583296D01*
X145941816Y-53560038D01*
X145888487Y-53537949D01*
X145888483Y-53537948D01*
X145888479Y-53537946D01*
X145791839Y-53518724D01*
X145695195Y-53499500D01*
X145695192Y-53499500D01*
X120467175Y-53499500D01*
X120467155Y-53499499D01*
X120461041Y-53499499D01*
X120263960Y-53499499D01*
X120263957Y-53499499D01*
X120070672Y-53537946D01*
X120070664Y-53537948D01*
X119888588Y-53613366D01*
X119888579Y-53613371D01*
X119724719Y-53722859D01*
X119724715Y-53722862D01*
X115171897Y-58275681D01*
X115110574Y-58309166D01*
X115084216Y-58312000D01*
X113402129Y-58312000D01*
X113402123Y-58312001D01*
X113342516Y-58318408D01*
X113207671Y-58368702D01*
X113207664Y-58368706D01*
X113092455Y-58454952D01*
X113092452Y-58454955D01*
X113006206Y-58570164D01*
X113006202Y-58570171D01*
X112955908Y-58705017D01*
X112949501Y-58764616D01*
X112949500Y-58764635D01*
X112949500Y-59005214D01*
X112929815Y-59072253D01*
X112877011Y-59118008D01*
X112807853Y-59127952D01*
X112768788Y-59110111D01*
X112748678Y-59108793D01*
X111884900Y-59972571D01*
X111875021Y-59922902D01*
X111826022Y-59804610D01*
X111754888Y-59698149D01*
X111664351Y-59607612D01*
X111557890Y-59536478D01*
X111439598Y-59487479D01*
X111389927Y-59477599D01*
X112253704Y-58613820D01*
X112253704Y-58613819D01*
X112252180Y-58612650D01*
X112252176Y-58612647D01*
X112047828Y-58494665D01*
X112047819Y-58494660D01*
X111829836Y-58404370D01*
X111829838Y-58404370D01*
X111601914Y-58343299D01*
X111367985Y-58312500D01*
X111132014Y-58312500D01*
X110898085Y-58343299D01*
X110670162Y-58404370D01*
X110452180Y-58494660D01*
X110452171Y-58494665D01*
X110247823Y-58612647D01*
X110246294Y-58613819D01*
X110246293Y-58613820D01*
X111110072Y-59477598D01*
X111060402Y-59487479D01*
X110942110Y-59536478D01*
X110835649Y-59607612D01*
X110745112Y-59698149D01*
X110673978Y-59804610D01*
X110624979Y-59922902D01*
X110615099Y-59972572D01*
X109751320Y-59108793D01*
X109751319Y-59108794D01*
X109750147Y-59110323D01*
X109632165Y-59314671D01*
X109632160Y-59314680D01*
X109541870Y-59532662D01*
X109480799Y-59760585D01*
X109450000Y-59994514D01*
X100000500Y-59994514D01*
X100000500Y-54378711D01*
X102149500Y-54378711D01*
X102149500Y-54621288D01*
X102181161Y-54861785D01*
X102243947Y-55096104D01*
X102336773Y-55320205D01*
X102336776Y-55320212D01*
X102458064Y-55530289D01*
X102458066Y-55530292D01*
X102458067Y-55530293D01*
X102605733Y-55722736D01*
X102605739Y-55722743D01*
X102777256Y-55894260D01*
X102777262Y-55894265D01*
X102969711Y-56041936D01*
X103179788Y-56163224D01*
X103403900Y-56256054D01*
X103638211Y-56318838D01*
X103818586Y-56342584D01*
X103878711Y-56350500D01*
X103878712Y-56350500D01*
X104121289Y-56350500D01*
X104169388Y-56344167D01*
X104361789Y-56318838D01*
X104596100Y-56256054D01*
X104820212Y-56163224D01*
X105030289Y-56041936D01*
X105222738Y-55894265D01*
X105394265Y-55722738D01*
X105541936Y-55530289D01*
X105663224Y-55320212D01*
X105756054Y-55096100D01*
X105818838Y-54861789D01*
X105850500Y-54621288D01*
X105850500Y-54378712D01*
X105818838Y-54138211D01*
X105756054Y-53903900D01*
X105663224Y-53679788D01*
X105541936Y-53469711D01*
X105394265Y-53277262D01*
X105394260Y-53277256D01*
X105222743Y-53105739D01*
X105222736Y-53105733D01*
X105030293Y-52958067D01*
X105030292Y-52958066D01*
X105030289Y-52958064D01*
X104820212Y-52836776D01*
X104820205Y-52836773D01*
X104596104Y-52743947D01*
X104361785Y-52681161D01*
X104121289Y-52649500D01*
X104121288Y-52649500D01*
X103878712Y-52649500D01*
X103878711Y-52649500D01*
X103638214Y-52681161D01*
X103403895Y-52743947D01*
X103179794Y-52836773D01*
X103179785Y-52836777D01*
X102969706Y-52958067D01*
X102777263Y-53105733D01*
X102777256Y-53105739D01*
X102605739Y-53277256D01*
X102605733Y-53277263D01*
X102458067Y-53469706D01*
X102336777Y-53679785D01*
X102336773Y-53679794D01*
X102243947Y-53903895D01*
X102181161Y-54138214D01*
X102149500Y-54378711D01*
X100000500Y-54378711D01*
X100000500Y-53003246D01*
X100000670Y-52996756D01*
X100009054Y-52836776D01*
X100015184Y-52719811D01*
X100015794Y-52712424D01*
X100022814Y-52650112D01*
X100023553Y-52644658D01*
X100061850Y-52402860D01*
X100063420Y-52394721D01*
X100076105Y-52339144D01*
X100077172Y-52334844D01*
X100142289Y-52091827D01*
X100145007Y-52083016D01*
X100159943Y-52040331D01*
X100161178Y-52036964D01*
X100255746Y-51790603D01*
X100259762Y-51781305D01*
X100269729Y-51760608D01*
X100270863Y-51758318D01*
X100399415Y-51506023D01*
X100405891Y-51494808D01*
X100569819Y-51242380D01*
X100577434Y-51231899D01*
X100766858Y-50997979D01*
X100775525Y-50988354D01*
X100988354Y-50775525D01*
X100997979Y-50766858D01*
X101231899Y-50577434D01*
X101242380Y-50569819D01*
X101494808Y-50405891D01*
X101506023Y-50399415D01*
X101758318Y-50270863D01*
X101760608Y-50269729D01*
X101781305Y-50259762D01*
X101790603Y-50255746D01*
X102036964Y-50161178D01*
X102040331Y-50159943D01*
X102083016Y-50145007D01*
X102091827Y-50142289D01*
X102334844Y-50077172D01*
X102339144Y-50076105D01*
X102394721Y-50063420D01*
X102402860Y-50061850D01*
X102644658Y-50023553D01*
X102650112Y-50022814D01*
X102712430Y-50015793D01*
X102719811Y-50015184D01*
X102996756Y-50000669D01*
X103003246Y-50000500D01*
X196996754Y-50000500D01*
X197003243Y-50000669D01*
G37*
%TD.AperFunction*%
%TD*%
M02*
